<svg width="266" height="180" viewBox="0 0 266 180" fill="none" xmlns="http://www.w3.org/2000/svg">
<rect x="1" y="0.714294" width="132" height="42" fill="#007BFF" fill-opacity="0.25"/>
<rect x="1" y="0.714294" width="132" height="42" stroke="#F6F8FF"/>
<path d="M47.6371 26.7143C47.3851 26.7143 47.1691 26.6303 46.9891 26.4623C46.8211 26.2823 46.7371 26.0663 46.7371 25.8143C46.7371 25.5623 46.8211 25.3523 46.9891 25.1843C47.1691 25.0043 47.3851 24.9143 47.6371 24.9143H48.8971V16.4543H47.6371C47.3851 16.4543 47.1691 16.3643 46.9891 16.1843C46.8211 16.0043 46.7371 15.7883 46.7371 15.5363C46.7371 15.2843 46.8211 15.0743 46.9891 14.9063C47.1691 14.7383 47.3851 14.6543 47.6371 14.6543H51.9391C52.1911 14.6543 52.4011 14.7383 52.5691 14.9063C52.7371 15.0743 52.8211 15.2843 52.8211 15.5363C52.8211 15.7883 52.7371 16.0043 52.5691 16.1843C52.4011 16.3643 52.1911 16.4543 51.9391 16.4543H50.6971V24.9143H51.9391C52.2031 24.9143 52.4131 25.0043 52.5691 25.1843C52.7371 25.3523 52.8211 25.5623 52.8211 25.8143C52.8211 26.0663 52.7371 26.2823 52.5691 26.4623C52.4011 26.6303 52.1911 26.7143 51.9391 26.7143H47.6371ZM55.5801 26.8223C55.3521 26.8223 55.1481 26.7383 54.9681 26.5703C54.8001 26.4023 54.7161 26.2103 54.7161 25.9943V18.6863C54.7161 18.4463 54.8061 18.2423 54.9861 18.0743C55.1661 17.9063 55.3761 17.8223 55.6161 17.8223C55.8441 17.8223 56.0361 17.9063 56.1921 18.0743C56.3601 18.2423 56.4441 18.4463 56.4441 18.6863V20.0543C56.7801 19.3343 57.2061 18.7883 57.7221 18.4163C58.2381 18.0323 58.8021 17.8403 59.4141 17.8403C60.0861 17.8403 60.6201 17.9963 61.0161 18.3083C61.4121 18.6203 61.7001 19.1363 61.8801 19.8563C62.0601 20.5643 62.1501 21.5483 62.1501 22.8083L62.1321 25.9583C62.1321 26.1863 62.0541 26.3903 61.8981 26.5703C61.7421 26.7383 61.5441 26.8223 61.3041 26.8223C61.0761 26.8223 60.8721 26.7383 60.6921 26.5703C60.5241 26.3903 60.4401 26.1923 60.4401 25.9763V22.9883C60.4401 22.0523 60.3981 21.3323 60.3141 20.8283C60.2301 20.3243 60.1041 19.9823 59.9361 19.8023C59.7681 19.6103 59.5401 19.5143 59.2521 19.5143C58.8921 19.5143 58.5321 19.6703 58.1721 19.9823C57.8121 20.2823 57.4761 20.7143 57.1641 21.2783C56.8881 21.7703 56.6961 22.2503 56.5881 22.7183C56.4801 23.1863 56.4261 23.7503 56.4261 24.4103V25.9223C56.4261 26.1863 56.3481 26.4023 56.1921 26.5703C56.0481 26.7383 55.8441 26.8223 55.5801 26.8223ZM65.3535 30.0083C65.1255 30.0083 64.9215 29.9183 64.7415 29.7383C64.5735 29.5703 64.4895 29.3723 64.4895 29.1443V18.7043C64.4895 18.4523 64.5735 18.2423 64.7415 18.0743C64.9095 17.9063 65.1195 17.8223 65.3715 17.8223C65.5755 17.8223 65.7615 17.9003 65.9295 18.0563C66.1095 18.2123 66.1995 18.4163 66.1995 18.6683V18.8663C66.8115 18.1703 67.7115 17.8223 68.8995 17.8223C69.3915 17.8223 69.8655 17.9783 70.3215 18.2903C70.7895 18.6023 71.1735 19.0703 71.4735 19.6943C71.7735 20.3063 71.9235 21.0443 71.9235 21.9083C71.9235 22.6883 71.8035 23.4383 71.5635 24.1583C71.3235 24.8783 70.9035 25.4843 70.3035 25.9763C69.7155 26.4563 68.9235 26.6963 67.9275 26.6963C67.3515 26.6963 66.7815 26.5343 66.2175 26.2103V29.1443C66.2175 29.3723 66.1275 29.5703 65.9475 29.7383C65.7795 29.9183 65.5815 30.0083 65.3535 30.0083ZM68.0355 25.0403C68.7315 25.0403 69.2775 24.7823 69.6735 24.2663C70.0815 23.7383 70.2855 22.9523 70.2855 21.9083C70.2855 21.1403 70.1355 20.5403 69.8355 20.1083C69.5475 19.6643 69.1875 19.4423 68.7555 19.4423C68.1435 19.4423 67.6215 19.5623 67.1895 19.8023C66.7695 20.0423 66.4455 20.3123 66.2175 20.6123V24.6083C66.9495 24.8963 67.5555 25.0403 68.0355 25.0403ZM76.3422 26.8763C75.6942 26.8763 75.1782 26.7383 74.7942 26.4623C74.4102 26.1743 74.1222 25.6583 73.9302 24.9143C73.7382 24.1703 73.6422 23.1023 73.6422 21.7103C73.6422 21.2423 73.6602 20.7263 73.6962 20.1623C73.7322 19.5983 73.7802 19.1243 73.8402 18.7403C73.8882 18.4403 73.9782 18.2123 74.1102 18.0563C74.2422 17.9003 74.4342 17.8223 74.6862 17.8223C74.9262 17.8223 75.1302 17.8943 75.2982 18.0383C75.4662 18.1823 75.5502 18.3923 75.5502 18.6683L75.5142 19.1723C75.3942 20.1923 75.3342 21.1703 75.3342 22.1063C75.3342 23.3303 75.4362 24.1643 75.6402 24.6083C75.8562 25.0403 76.1502 25.2563 76.5222 25.2563C76.9542 25.2563 77.3982 25.1423 77.8542 24.9143C78.3102 24.6743 78.6342 24.4463 78.8262 24.2303C78.8982 24.1583 78.9342 24.0083 78.9342 23.7803L78.9702 18.6503C78.9702 18.4103 79.0542 18.2123 79.2222 18.0563C79.4022 17.9003 79.6002 17.8223 79.8162 17.8223C80.0442 17.8223 80.2422 17.9003 80.4102 18.0563C80.5902 18.2123 80.6802 18.4103 80.6802 18.6503V25.9583C80.6802 26.1863 80.5902 26.3903 80.4102 26.5703C80.2422 26.7383 80.0442 26.8223 79.8162 26.8223C79.5762 26.8223 79.3602 26.7503 79.1682 26.6063C78.9882 26.4503 78.8982 26.2583 78.8982 26.0303V25.8323C78.4422 26.1563 78.0162 26.4143 77.6202 26.6063C77.2362 26.7863 76.8102 26.8763 76.3422 26.8763ZM84.7586 26.8403C84.5306 26.8403 84.3266 26.7563 84.1466 26.5883C83.9786 26.4203 83.8946 26.2223 83.8946 25.9943V19.5683H82.4726C82.2326 19.5683 82.0286 19.4843 81.8606 19.3163C81.6926 19.1363 81.6086 18.9323 81.6086 18.7043C81.6086 18.4403 81.6986 18.2303 81.8786 18.0743C82.0586 17.9063 82.2686 17.8223 82.5086 17.8223H83.8946V15.8963C83.8946 15.6683 83.9786 15.4643 84.1466 15.2843C84.3146 15.1043 84.5186 15.0143 84.7586 15.0143C85.0106 15.0143 85.2146 15.1043 85.3706 15.2843C85.5386 15.4523 85.6226 15.6563 85.6226 15.8963V17.8223H87.1526C87.3926 17.8223 87.5966 17.9063 87.7646 18.0743C87.9326 18.2423 88.0166 18.4523 88.0166 18.7043C88.0166 18.9323 87.9326 19.1363 87.7646 19.3163C87.5966 19.4843 87.3926 19.5683 87.1526 19.5683H85.6226V25.9943C85.6226 26.2223 85.5386 26.4203 85.3706 26.5883C85.2026 26.7563 84.9986 26.8403 84.7586 26.8403Z" fill="#F6F8FF"/>
<rect x="1" y="42.7143" width="66" height="34" fill="#0A0F2C"/>
<rect x="1" y="42.7143" width="66" height="34" stroke="#F6F8FF"/>
<path d="M32.3928 64.7143C32.1408 64.7143 31.9308 64.6303 31.7628 64.4623C31.6068 64.2943 31.5288 64.0903 31.5288 63.8503C31.5288 63.6103 31.6068 63.4063 31.7628 63.2383C31.9308 63.0703 32.1408 62.9863 32.3928 62.9863H33.4368L33.5628 55.9483L32.9688 56.5783C32.8008 56.7463 32.5908 56.8303 32.3388 56.8303C32.0988 56.8303 31.8948 56.7463 31.7268 56.5783C31.5588 56.4103 31.4748 56.2063 31.4748 55.9663C31.4748 55.7623 31.5528 55.5703 31.7088 55.3903L33.8148 53.1043C33.8868 53.0323 33.9828 52.9723 34.1028 52.9243C34.2228 52.8643 34.3308 52.8343 34.4268 52.8343C34.6908 52.8343 34.9008 52.9243 35.0568 53.1043C35.2248 53.2723 35.3088 53.4703 35.3088 53.6983L35.1828 62.9863H35.9208C36.1968 62.9863 36.4128 63.0703 36.5688 63.2383C36.7368 63.4063 36.8208 63.6103 36.8208 63.8503C36.8208 64.0903 36.7308 64.2943 36.5508 64.4623C36.3828 64.6303 36.1848 64.7143 35.9568 64.7143H32.3928Z" fill="#F6F8FF"/>
<rect x="67" y="42.7143" width="66" height="34" fill="#0A0F2C"/>
<rect x="67" y="42.7143" width="66" height="34" stroke="#F6F8FF"/>
<path d="M98.3928 64.7143C98.1408 64.7143 97.9308 64.6303 97.7628 64.4623C97.6068 64.2943 97.5288 64.0903 97.5288 63.8503C97.5288 63.6103 97.6068 63.4063 97.7628 63.2383C97.9308 63.0703 98.1408 62.9863 98.3928 62.9863H99.4368L99.5628 55.9483L98.9688 56.5783C98.8008 56.7463 98.5908 56.8303 98.3388 56.8303C98.0988 56.8303 97.8948 56.7463 97.7268 56.5783C97.5588 56.4103 97.4748 56.2063 97.4748 55.9663C97.4748 55.7623 97.5528 55.5703 97.7088 55.3903L99.8148 53.1043C99.8868 53.0323 99.9828 52.9723 100.103 52.9243C100.223 52.8643 100.331 52.8343 100.427 52.8343C100.691 52.8343 100.901 52.9243 101.057 53.1043C101.225 53.2723 101.309 53.4703 101.309 53.6983L101.183 62.9863H101.921C102.197 62.9863 102.413 63.0703 102.569 63.2383C102.737 63.4063 102.821 63.6103 102.821 63.8503C102.821 64.0903 102.731 64.2943 102.551 64.4623C102.383 64.6303 102.185 64.7143 101.957 64.7143H98.3928Z" fill="#F6F8FF"/>
<rect x="1" y="76.7143" width="66" height="34" fill="#0A0F2C"/>
<rect x="1" y="76.7143" width="66" height="34" stroke="#F6F8FF"/>
<path d="M32.3928 98.7143C32.1408 98.7143 31.9308 98.6303 31.7628 98.4623C31.6068 98.2943 31.5288 98.0903 31.5288 97.8503C31.5288 97.6103 31.6068 97.4063 31.7628 97.2383C31.9308 97.0703 32.1408 96.9863 32.3928 96.9863H33.4368L33.5628 89.9483L32.9688 90.5783C32.8008 90.7463 32.5908 90.8303 32.3388 90.8303C32.0988 90.8303 31.8948 90.7463 31.7268 90.5783C31.5588 90.4103 31.4748 90.2063 31.4748 89.9663C31.4748 89.7623 31.5528 89.5703 31.7088 89.3903L33.8148 87.1043C33.8868 87.0323 33.9828 86.9723 34.1028 86.9243C34.2228 86.8643 34.3308 86.8343 34.4268 86.8343C34.6908 86.8343 34.9008 86.9243 35.0568 87.1043C35.2248 87.2723 35.3088 87.4703 35.3088 87.6983L35.1828 96.9863H35.9208C36.1968 96.9863 36.4128 97.0703 36.5688 97.2383C36.7368 97.4063 36.8208 97.6103 36.8208 97.8503C36.8208 98.0903 36.7308 98.2943 36.5508 98.4623C36.3828 98.6303 36.1848 98.7143 35.9568 98.7143H32.3928Z" fill="#F6F8FF"/>
<rect x="67" y="76.7143" width="66" height="34" fill="#0A0F2C"/>
<rect x="67" y="76.7143" width="66" height="34" stroke="#F6F8FF"/>
<path d="M99.8176 98.8223C99.0376 98.8223 98.3296 98.5643 97.6936 98.0483C97.0696 97.5203 96.5776 96.8183 96.2176 95.9423C95.8696 95.0663 95.6956 94.1243 95.6956 93.1163C95.6956 92.0243 95.8936 90.9983 96.2896 90.0383C96.6976 89.0663 97.2436 88.2923 97.9276 87.7163C98.6236 87.1283 99.3796 86.8343 100.196 86.8343C100.976 86.8343 101.678 87.0983 102.302 87.6263C102.926 88.1423 103.412 88.8383 103.76 89.7143C104.12 90.5903 104.3 91.5383 104.3 92.5583C104.3 93.6623 104.096 94.6943 103.688 95.6543C103.292 96.6143 102.746 97.3823 102.05 97.9583C101.366 98.5343 100.622 98.8223 99.8176 98.8223ZM99.8176 97.0943C100.31 97.0943 100.766 96.8903 101.186 96.4823C101.618 96.0743 101.96 95.5283 102.212 94.8443C102.476 94.1483 102.608 93.3983 102.608 92.5943C102.608 91.8863 102.5 91.2263 102.284 90.6143C102.08 89.9903 101.792 89.4923 101.42 89.1203C101.048 88.7483 100.64 88.5623 100.196 88.5623C99.7036 88.5623 99.2416 88.7663 98.8096 89.1743C98.3776 89.5823 98.0356 90.1343 97.7836 90.8303C97.5316 91.5263 97.4056 92.2763 97.4056 93.0803C97.4056 93.7763 97.5076 94.4363 97.7116 95.0603C97.9156 95.6723 98.2036 96.1643 98.5756 96.5363C98.9476 96.9083 99.3616 97.0943 99.8176 97.0943Z" fill="#F6F8FF"/>
<rect x="1" y="110.714" width="66" height="34" fill="#0A0F2C"/>
<rect x="1" y="110.714" width="66" height="34" stroke="#F6F8FF"/>
<path d="M33.8176 132.822C33.0376 132.822 32.3296 132.564 31.6936 132.048C31.0696 131.52 30.5776 130.818 30.2176 129.942C29.8696 129.066 29.6956 128.124 29.6956 127.116C29.6956 126.024 29.8936 124.998 30.2896 124.038C30.6976 123.066 31.2436 122.292 31.9276 121.716C32.6236 121.128 33.3796 120.834 34.1956 120.834C34.9756 120.834 35.6776 121.098 36.3016 121.626C36.9256 122.142 37.4116 122.838 37.7596 123.714C38.1196 124.59 38.2996 125.538 38.2996 126.558C38.2996 127.662 38.0956 128.694 37.6876 129.654C37.2916 130.614 36.7456 131.382 36.0496 131.958C35.3656 132.534 34.6216 132.822 33.8176 132.822ZM33.8176 131.094C34.3096 131.094 34.7656 130.89 35.1856 130.482C35.6176 130.074 35.9596 129.528 36.2116 128.844C36.4756 128.148 36.6076 127.398 36.6076 126.594C36.6076 125.886 36.4996 125.226 36.2836 124.614C36.0796 123.99 35.7916 123.492 35.4196 123.12C35.0476 122.748 34.6396 122.562 34.1956 122.562C33.7036 122.562 33.2416 122.766 32.8096 123.174C32.3776 123.582 32.0356 124.134 31.7836 124.83C31.5316 125.526 31.4056 126.276 31.4056 127.08C31.4056 127.776 31.5076 128.436 31.7116 129.06C31.9156 129.672 32.2036 130.164 32.5756 130.536C32.9476 130.908 33.3616 131.094 33.8176 131.094Z" fill="#F6F8FF"/>
<rect x="67" y="110.714" width="66" height="34" fill="#0A0F2C"/>
<rect x="67" y="110.714" width="66" height="34" stroke="#F6F8FF"/>
<path d="M98.3928 132.714C98.1408 132.714 97.9308 132.63 97.7628 132.462C97.6068 132.294 97.5288 132.09 97.5288 131.85C97.5288 131.61 97.6068 131.406 97.7628 131.238C97.9308 131.07 98.1408 130.986 98.3928 130.986H99.4368L99.5628 123.948L98.9688 124.578C98.8008 124.746 98.5908 124.83 98.3388 124.83C98.0988 124.83 97.8948 124.746 97.7268 124.578C97.5588 124.41 97.4748 124.206 97.4748 123.966C97.4748 123.762 97.5528 123.57 97.7088 123.39L99.8148 121.104C99.8868 121.032 99.9828 120.972 100.103 120.924C100.223 120.864 100.331 120.834 100.427 120.834C100.691 120.834 100.901 120.924 101.057 121.104C101.225 121.272 101.309 121.47 101.309 121.698L101.183 130.986H101.921C102.197 130.986 102.413 131.07 102.569 131.238C102.737 131.406 102.821 131.61 102.821 131.85C102.821 132.09 102.731 132.294 102.551 132.462C102.383 132.63 102.185 132.714 101.957 132.714H98.3928Z" fill="#F6F8FF"/>
<rect x="1" y="144.714" width="66" height="34" fill="#0A0F2C"/>
<rect x="1" y="144.714" width="66" height="34" stroke="#F6F8FF"/>
<path d="M33.8176 166.822C33.0376 166.822 32.3296 166.564 31.6936 166.048C31.0696 165.52 30.5776 164.818 30.2176 163.942C29.8696 163.066 29.6956 162.124 29.6956 161.116C29.6956 160.024 29.8936 158.998 30.2896 158.038C30.6976 157.066 31.2436 156.292 31.9276 155.716C32.6236 155.128 33.3796 154.834 34.1956 154.834C34.9756 154.834 35.6776 155.098 36.3016 155.626C36.9256 156.142 37.4116 156.838 37.7596 157.714C38.1196 158.59 38.2996 159.538 38.2996 160.558C38.2996 161.662 38.0956 162.694 37.6876 163.654C37.2916 164.614 36.7456 165.382 36.0496 165.958C35.3656 166.534 34.6216 166.822 33.8176 166.822ZM33.8176 165.094C34.3096 165.094 34.7656 164.89 35.1856 164.482C35.6176 164.074 35.9596 163.528 36.2116 162.844C36.4756 162.148 36.6076 161.398 36.6076 160.594C36.6076 159.886 36.4996 159.226 36.2836 158.614C36.0796 157.99 35.7916 157.492 35.4196 157.12C35.0476 156.748 34.6396 156.562 34.1956 156.562C33.7036 156.562 33.2416 156.766 32.8096 157.174C32.3776 157.582 32.0356 158.134 31.7836 158.83C31.5316 159.526 31.4056 160.276 31.4056 161.08C31.4056 161.776 31.5076 162.436 31.7116 163.06C31.9156 163.672 32.2036 164.164 32.5756 164.536C32.9476 164.908 33.3616 165.094 33.8176 165.094Z" fill="#F6F8FF"/>
<rect x="67" y="144.714" width="66" height="34" fill="#0A0F2C"/>
<rect x="67" y="144.714" width="66" height="34" stroke="#F6F8FF"/>
<path d="M99.8176 166.822C99.0376 166.822 98.3296 166.564 97.6936 166.048C97.0696 165.52 96.5776 164.818 96.2176 163.942C95.8696 163.066 95.6956 162.124 95.6956 161.116C95.6956 160.024 95.8936 158.998 96.2896 158.038C96.6976 157.066 97.2436 156.292 97.9276 155.716C98.6236 155.128 99.3796 154.834 100.196 154.834C100.976 154.834 101.678 155.098 102.302 155.626C102.926 156.142 103.412 156.838 103.76 157.714C104.12 158.59 104.3 159.538 104.3 160.558C104.3 161.662 104.096 162.694 103.688 163.654C103.292 164.614 102.746 165.382 102.05 165.958C101.366 166.534 100.622 166.822 99.8176 166.822ZM99.8176 165.094C100.31 165.094 100.766 164.89 101.186 164.482C101.618 164.074 101.96 163.528 102.212 162.844C102.476 162.148 102.608 161.398 102.608 160.594C102.608 159.886 102.5 159.226 102.284 158.614C102.08 157.99 101.792 157.492 101.42 157.12C101.048 156.748 100.64 156.562 100.196 156.562C99.7036 156.562 99.2416 156.766 98.8096 157.174C98.3776 157.582 98.0356 158.134 97.7836 158.83C97.5316 159.526 97.4056 160.276 97.4056 161.08C97.4056 161.776 97.5076 162.436 97.7116 163.06C97.9156 163.672 98.2036 164.164 98.5756 164.536C98.9476 164.908 99.3616 165.094 99.8176 165.094Z" fill="#F6F8FF"/>
<rect x="133" y="0.714294" width="132" height="42" fill="#007BFF" fill-opacity="0.25"/>
<rect x="133" y="0.714294" width="132" height="42" stroke="#F6F8FF"/>
<path d="M178.727 26.8223C177.839 26.8223 177.041 26.5763 176.333 26.0843C175.625 25.5803 175.067 24.8963 174.659 24.0323C174.263 23.1683 174.065 22.2023 174.065 21.1343C174.065 19.9223 174.311 18.8123 174.803 17.8043C175.295 16.7963 175.949 16.0043 176.765 15.4283C177.593 14.8403 178.481 14.5463 179.429 14.5463C180.317 14.5463 181.115 14.7923 181.823 15.2843C182.543 15.7763 183.101 16.4543 183.497 17.3183C183.905 18.1823 184.109 19.1543 184.109 20.2343C184.109 21.4583 183.863 22.5743 183.371 23.5823C182.879 24.5783 182.219 25.3703 181.391 25.9583C180.575 26.5343 179.687 26.8223 178.727 26.8223ZM178.727 25.1123C179.375 25.1123 179.969 24.9083 180.509 24.5003C181.061 24.0923 181.499 23.5223 181.823 22.7903C182.147 22.0583 182.309 21.2303 182.309 20.3063C182.309 19.4663 182.165 18.7403 181.877 18.1283C181.601 17.5163 181.229 17.0543 180.761 16.7423C180.305 16.4183 179.825 16.2563 179.321 16.2563C178.697 16.2563 178.121 16.4663 177.593 16.8863C177.065 17.3063 176.645 17.8883 176.333 18.6323C176.021 19.3643 175.865 20.1983 175.865 21.1343C175.865 21.9743 175.997 22.6943 176.261 23.2943C176.525 23.8943 176.873 24.3503 177.305 24.6623C177.749 24.9623 178.223 25.1123 178.727 25.1123ZM188.549 26.8763C187.901 26.8763 187.385 26.7383 187.001 26.4623C186.617 26.1743 186.329 25.6583 186.137 24.9143C185.945 24.1703 185.849 23.1023 185.849 21.7103C185.849 21.2423 185.867 20.7263 185.903 20.1623C185.939 19.5983 185.987 19.1243 186.047 18.7403C186.095 18.4403 186.185 18.2123 186.317 18.0563C186.449 17.9003 186.641 17.8223 186.893 17.8223C187.133 17.8223 187.337 17.8943 187.505 18.0383C187.673 18.1823 187.757 18.3923 187.757 18.6683L187.721 19.1723C187.601 20.1923 187.541 21.1703 187.541 22.1063C187.541 23.3303 187.643 24.1643 187.847 24.6083C188.063 25.0403 188.357 25.2563 188.729 25.2563C189.161 25.2563 189.605 25.1423 190.061 24.9143C190.517 24.6743 190.841 24.4463 191.033 24.2303C191.105 24.1583 191.141 24.0083 191.141 23.7803L191.177 18.6503C191.177 18.4103 191.261 18.2123 191.429 18.0563C191.609 17.9003 191.807 17.8223 192.023 17.8223C192.251 17.8223 192.449 17.9003 192.617 18.0563C192.797 18.2123 192.887 18.4103 192.887 18.6503V25.9583C192.887 26.1863 192.797 26.3903 192.617 26.5703C192.449 26.7383 192.251 26.8223 192.023 26.8223C191.783 26.8223 191.567 26.7503 191.375 26.6063C191.195 26.4503 191.105 26.2583 191.105 26.0303V25.8323C190.649 26.1563 190.223 26.4143 189.827 26.6063C189.443 26.7863 189.017 26.8763 188.549 26.8763ZM196.966 26.8403C196.738 26.8403 196.534 26.7563 196.354 26.5883C196.186 26.4203 196.102 26.2223 196.102 25.9943V19.5683H194.68C194.44 19.5683 194.236 19.4843 194.068 19.3163C193.9 19.1363 193.816 18.9323 193.816 18.7043C193.816 18.4403 193.906 18.2303 194.086 18.0743C194.266 17.9063 194.476 17.8223 194.716 17.8223H196.102V15.8963C196.102 15.6683 196.186 15.4643 196.354 15.2843C196.522 15.1043 196.726 15.0143 196.966 15.0143C197.218 15.0143 197.422 15.1043 197.578 15.2843C197.746 15.4523 197.83 15.6563 197.83 15.8963V17.8223H199.36C199.6 17.8223 199.804 17.9063 199.972 18.0743C200.14 18.2423 200.224 18.4523 200.224 18.7043C200.224 18.9323 200.14 19.1363 199.972 19.3163C199.804 19.4843 199.6 19.5683 199.36 19.5683H197.83V25.9943C197.83 26.2223 197.746 26.4203 197.578 26.5883C197.41 26.7563 197.206 26.8403 196.966 26.8403ZM202.17 30.0083C201.942 30.0083 201.738 29.9183 201.558 29.7383C201.39 29.5703 201.306 29.3723 201.306 29.1443V18.7043C201.306 18.4523 201.39 18.2423 201.558 18.0743C201.726 17.9063 201.936 17.8223 202.188 17.8223C202.392 17.8223 202.578 17.9003 202.746 18.0563C202.926 18.2123 203.016 18.4163 203.016 18.6683V18.8663C203.628 18.1703 204.528 17.8223 205.716 17.8223C206.208 17.8223 206.682 17.9783 207.138 18.2903C207.606 18.6023 207.99 19.0703 208.29 19.6943C208.59 20.3063 208.74 21.0443 208.74 21.9083C208.74 22.6883 208.62 23.4383 208.38 24.1583C208.14 24.8783 207.72 25.4843 207.12 25.9763C206.532 26.4563 205.74 26.6963 204.744 26.6963C204.168 26.6963 203.598 26.5343 203.034 26.2103V29.1443C203.034 29.3723 202.944 29.5703 202.764 29.7383C202.596 29.9183 202.398 30.0083 202.17 30.0083ZM204.852 25.0403C205.548 25.0403 206.094 24.7823 206.49 24.2663C206.898 23.7383 207.102 22.9523 207.102 21.9083C207.102 21.1403 206.952 20.5403 206.652 20.1083C206.364 19.6643 206.004 19.4423 205.572 19.4423C204.96 19.4423 204.438 19.5623 204.006 19.8023C203.586 20.0423 203.262 20.3123 203.034 20.6123V24.6083C203.766 24.8963 204.372 25.0403 204.852 25.0403ZM213.159 26.8763C212.511 26.8763 211.995 26.7383 211.611 26.4623C211.227 26.1743 210.939 25.6583 210.747 24.9143C210.555 24.1703 210.459 23.1023 210.459 21.7103C210.459 21.2423 210.477 20.7263 210.513 20.1623C210.549 19.5983 210.597 19.1243 210.657 18.7403C210.705 18.4403 210.795 18.2123 210.927 18.0563C211.059 17.9003 211.251 17.8223 211.503 17.8223C211.743 17.8223 211.947 17.8943 212.115 18.0383C212.283 18.1823 212.367 18.3923 212.367 18.6683L212.331 19.1723C212.211 20.1923 212.151 21.1703 212.151 22.1063C212.151 23.3303 212.253 24.1643 212.457 24.6083C212.673 25.0403 212.967 25.2563 213.339 25.2563C213.771 25.2563 214.215 25.1423 214.671 24.9143C215.127 24.6743 215.451 24.4463 215.643 24.2303C215.715 24.1583 215.751 24.0083 215.751 23.7803L215.787 18.6503C215.787 18.4103 215.871 18.2123 216.039 18.0563C216.219 17.9003 216.417 17.8223 216.633 17.8223C216.861 17.8223 217.059 17.9003 217.227 18.0563C217.407 18.2123 217.497 18.4103 217.497 18.6503V25.9583C217.497 26.1863 217.407 26.3903 217.227 26.5703C217.059 26.7383 216.861 26.8223 216.633 26.8223C216.393 26.8223 216.177 26.7503 215.985 26.6063C215.805 26.4503 215.715 26.2583 215.715 26.0303V25.8323C215.259 26.1563 214.833 26.4143 214.437 26.6063C214.053 26.7863 213.627 26.8763 213.159 26.8763ZM221.575 26.8403C221.347 26.8403 221.143 26.7563 220.963 26.5883C220.795 26.4203 220.711 26.2223 220.711 25.9943V19.5683H219.289C219.049 19.5683 218.845 19.4843 218.677 19.3163C218.509 19.1363 218.425 18.9323 218.425 18.7043C218.425 18.4403 218.515 18.2303 218.695 18.0743C218.875 17.9063 219.085 17.8223 219.325 17.8223H220.711V15.8963C220.711 15.6683 220.795 15.4643 220.963 15.2843C221.131 15.1043 221.335 15.0143 221.575 15.0143C221.827 15.0143 222.031 15.1043 222.187 15.2843C222.355 15.4523 222.439 15.6563 222.439 15.8963V17.8223H223.969C224.209 17.8223 224.413 17.9063 224.581 18.0743C224.749 18.2423 224.833 18.4523 224.833 18.7043C224.833 18.9323 224.749 19.1363 224.581 19.3163C224.413 19.4843 224.209 19.5683 223.969 19.5683H222.439V25.9943C222.439 26.2223 222.355 26.4203 222.187 26.5883C222.019 26.7563 221.815 26.8403 221.575 26.8403Z" fill="#F6F8FF"/>
<rect x="133" y="42.7143" width="132" height="34" fill="#0A0F2C"/>
<rect x="133" y="42.7143" width="132" height="34" stroke="#F6F8FF"/>
<path d="M197.393 64.7143C197.141 64.7143 196.931 64.6303 196.763 64.4623C196.607 64.2943 196.529 64.0903 196.529 63.8503C196.529 63.6103 196.607 63.4063 196.763 63.2383C196.931 63.0703 197.141 62.9863 197.393 62.9863H198.437L198.563 55.9483L197.969 56.5783C197.801 56.7463 197.591 56.8303 197.339 56.8303C197.099 56.8303 196.895 56.7463 196.727 56.5783C196.559 56.4103 196.475 56.2063 196.475 55.9663C196.475 55.7623 196.553 55.5703 196.709 55.3903L198.815 53.1043C198.887 53.0323 198.983 52.9723 199.103 52.9243C199.223 52.8643 199.331 52.8343 199.427 52.8343C199.691 52.8343 199.901 52.9243 200.057 53.1043C200.225 53.2723 200.309 53.4703 200.309 53.6983L200.183 62.9863H200.921C201.197 62.9863 201.413 63.0703 201.569 63.2383C201.737 63.4063 201.821 63.6103 201.821 63.8503C201.821 64.0903 201.731 64.2943 201.551 64.4623C201.383 64.6303 201.185 64.7143 200.957 64.7143H197.393Z" fill="#F6F8FF"/>
<rect x="133" y="76.7143" width="132" height="34" fill="#0A0F2C"/>
<rect x="133" y="76.7143" width="132" height="34" stroke="#F6F8FF"/>
<path d="M198.818 98.8223C198.038 98.8223 197.33 98.5643 196.694 98.0483C196.07 97.5203 195.578 96.8183 195.218 95.9423C194.87 95.0663 194.696 94.1243 194.696 93.1163C194.696 92.0243 194.894 90.9983 195.29 90.0383C195.698 89.0663 196.244 88.2923 196.928 87.7163C197.624 87.1283 198.38 86.8343 199.196 86.8343C199.976 86.8343 200.678 87.0983 201.302 87.6263C201.926 88.1423 202.412 88.8383 202.76 89.7143C203.12 90.5903 203.3 91.5383 203.3 92.5583C203.3 93.6623 203.096 94.6943 202.688 95.6543C202.292 96.6143 201.746 97.3823 201.05 97.9583C200.366 98.5343 199.622 98.8223 198.818 98.8223ZM198.818 97.0943C199.31 97.0943 199.766 96.8903 200.186 96.4823C200.618 96.0743 200.96 95.5283 201.212 94.8443C201.476 94.1483 201.608 93.3983 201.608 92.5943C201.608 91.8863 201.5 91.2263 201.284 90.6143C201.08 89.9903 200.792 89.4923 200.42 89.1203C200.048 88.7483 199.64 88.5623 199.196 88.5623C198.704 88.5623 198.242 88.7663 197.81 89.1743C197.378 89.5823 197.036 90.1343 196.784 90.8303C196.532 91.5263 196.406 92.2763 196.406 93.0803C196.406 93.7763 196.508 94.4363 196.712 95.0603C196.916 95.6723 197.204 96.1643 197.576 96.5363C197.948 96.9083 198.362 97.0943 198.818 97.0943Z" fill="#F6F8FF"/>
<rect x="133" y="110.714" width="132" height="34" fill="#0A0F2C"/>
<rect x="133" y="110.714" width="132" height="34" stroke="#F6F8FF"/>
<path d="M198.818 132.822C198.038 132.822 197.33 132.564 196.694 132.048C196.07 131.52 195.578 130.818 195.218 129.942C194.87 129.066 194.696 128.124 194.696 127.116C194.696 126.024 194.894 124.998 195.29 124.038C195.698 123.066 196.244 122.292 196.928 121.716C197.624 121.128 198.38 120.834 199.196 120.834C199.976 120.834 200.678 121.098 201.302 121.626C201.926 122.142 202.412 122.838 202.76 123.714C203.12 124.59 203.3 125.538 203.3 126.558C203.3 127.662 203.096 128.694 202.688 129.654C202.292 130.614 201.746 131.382 201.05 131.958C200.366 132.534 199.622 132.822 198.818 132.822ZM198.818 131.094C199.31 131.094 199.766 130.89 200.186 130.482C200.618 130.074 200.96 129.528 201.212 128.844C201.476 128.148 201.608 127.398 201.608 126.594C201.608 125.886 201.5 125.226 201.284 124.614C201.08 123.99 200.792 123.492 200.42 123.12C200.048 122.748 199.64 122.562 199.196 122.562C198.704 122.562 198.242 122.766 197.81 123.174C197.378 123.582 197.036 124.134 196.784 124.83C196.532 125.526 196.406 126.276 196.406 127.08C196.406 127.776 196.508 128.436 196.712 129.06C196.916 129.672 197.204 130.164 197.576 130.536C197.948 130.908 198.362 131.094 198.818 131.094Z" fill="#F6F8FF"/>
<rect x="133" y="144.714" width="132" height="34" fill="#0A0F2C"/>
<rect x="133" y="144.714" width="132" height="34" stroke="#F6F8FF"/>
<path d="M198.818 166.822C198.038 166.822 197.33 166.564 196.694 166.048C196.07 165.52 195.578 164.818 195.218 163.942C194.87 163.066 194.696 162.124 194.696 161.116C194.696 160.024 194.894 158.998 195.29 158.038C195.698 157.066 196.244 156.292 196.928 155.716C197.624 155.128 198.38 154.834 199.196 154.834C199.976 154.834 200.678 155.098 201.302 155.626C201.926 156.142 202.412 156.838 202.76 157.714C203.12 158.59 203.3 159.538 203.3 160.558C203.3 161.662 203.096 162.694 202.688 163.654C202.292 164.614 201.746 165.382 201.05 165.958C200.366 166.534 199.622 166.822 198.818 166.822ZM198.818 165.094C199.31 165.094 199.766 164.89 200.186 164.482C200.618 164.074 200.96 163.528 201.212 162.844C201.476 162.148 201.608 161.398 201.608 160.594C201.608 159.886 201.5 159.226 201.284 158.614C201.08 157.99 200.792 157.492 200.42 157.12C200.048 156.748 199.64 156.562 199.196 156.562C198.704 156.562 198.242 156.766 197.81 157.174C197.378 157.582 197.036 158.134 196.784 158.83C196.532 159.526 196.406 160.276 196.406 161.08C196.406 161.776 196.508 162.436 196.712 163.06C196.916 163.672 197.204 164.164 197.576 164.536C197.948 164.908 198.362 165.094 198.818 165.094Z" fill="#F6F8FF"/>
</svg>
