<svg width="266" height="180" viewBox="0 0 266 180" fill="none" xmlns="http://www.w3.org/2000/svg">
<rect x="1" y="1" width="132" height="42" fill="#007BFF" fill-opacity="0.25"/>
<rect x="1" y="1" width="132" height="42" stroke="#F6F8FF"/>
<path d="M47.6371 27C47.3851 27 47.1691 26.916 46.9891 26.748C46.8211 26.568 46.7371 26.352 46.7371 26.1C46.7371 25.848 46.8211 25.638 46.9891 25.47C47.1691 25.29 47.3851 25.2 47.6371 25.2H48.8971V16.74H47.6371C47.3851 16.74 47.1691 16.65 46.9891 16.47C46.8211 16.29 46.7371 16.074 46.7371 15.822C46.7371 15.57 46.8211 15.36 46.9891 15.192C47.1691 15.024 47.3851 14.94 47.6371 14.94H51.9391C52.1911 14.94 52.4011 15.024 52.5691 15.192C52.7371 15.36 52.8211 15.57 52.8211 15.822C52.8211 16.074 52.7371 16.29 52.5691 16.47C52.4011 16.65 52.1911 16.74 51.9391 16.74H50.6971V25.2H51.9391C52.2031 25.2 52.4131 25.29 52.5691 25.47C52.7371 25.638 52.8211 25.848 52.8211 26.1C52.8211 26.352 52.7371 26.568 52.5691 26.748C52.4011 26.916 52.1911 27 51.9391 27H47.6371ZM55.5801 27.108C55.3521 27.108 55.1481 27.024 54.9681 26.856C54.8001 26.688 54.7161 26.496 54.7161 26.28V18.972C54.7161 18.732 54.8061 18.528 54.9861 18.36C55.1661 18.192 55.3761 18.108 55.6161 18.108C55.8441 18.108 56.0361 18.192 56.1921 18.36C56.3601 18.528 56.4441 18.732 56.4441 18.972V20.34C56.7801 19.62 57.2061 19.074 57.7221 18.702C58.2381 18.318 58.8021 18.126 59.4141 18.126C60.0861 18.126 60.6201 18.282 61.0161 18.594C61.4121 18.906 61.7001 19.422 61.8801 20.142C62.0601 20.85 62.1501 21.834 62.1501 23.094L62.1321 26.244C62.1321 26.472 62.0541 26.676 61.8981 26.856C61.7421 27.024 61.5441 27.108 61.3041 27.108C61.0761 27.108 60.8721 27.024 60.6921 26.856C60.5241 26.676 60.4401 26.478 60.4401 26.262V23.274C60.4401 22.338 60.3981 21.618 60.3141 21.114C60.2301 20.61 60.1041 20.268 59.9361 20.088C59.7681 19.896 59.5401 19.8 59.2521 19.8C58.8921 19.8 58.5321 19.956 58.1721 20.268C57.8121 20.568 57.4761 21 57.1641 21.564C56.8881 22.056 56.6961 22.536 56.5881 23.004C56.4801 23.472 56.4261 24.036 56.4261 24.696V26.208C56.4261 26.472 56.3481 26.688 56.1921 26.856C56.0481 27.024 55.8441 27.108 55.5801 27.108ZM65.3535 30.294C65.1255 30.294 64.9215 30.204 64.7415 30.024C64.5735 29.856 64.4895 29.658 64.4895 29.43V18.99C64.4895 18.738 64.5735 18.528 64.7415 18.36C64.9095 18.192 65.1195 18.108 65.3715 18.108C65.5755 18.108 65.7615 18.186 65.9295 18.342C66.1095 18.498 66.1995 18.702 66.1995 18.954V19.152C66.8115 18.456 67.7115 18.108 68.8995 18.108C69.3915 18.108 69.8655 18.264 70.3215 18.576C70.7895 18.888 71.1735 19.356 71.4735 19.98C71.7735 20.592 71.9235 21.33 71.9235 22.194C71.9235 22.974 71.8035 23.724 71.5635 24.444C71.3235 25.164 70.9035 25.77 70.3035 26.262C69.7155 26.742 68.9235 26.982 67.9275 26.982C67.3515 26.982 66.7815 26.82 66.2175 26.496V29.43C66.2175 29.658 66.1275 29.856 65.9475 30.024C65.7795 30.204 65.5815 30.294 65.3535 30.294ZM68.0355 25.326C68.7315 25.326 69.2775 25.068 69.6735 24.552C70.0815 24.024 70.2855 23.238 70.2855 22.194C70.2855 21.426 70.1355 20.826 69.8355 20.394C69.5475 19.95 69.1875 19.728 68.7555 19.728C68.1435 19.728 67.6215 19.848 67.1895 20.088C66.7695 20.328 66.4455 20.598 66.2175 20.898V24.894C66.9495 25.182 67.5555 25.326 68.0355 25.326ZM76.3422 27.162C75.6942 27.162 75.1782 27.024 74.7942 26.748C74.4102 26.46 74.1222 25.944 73.9302 25.2C73.7382 24.456 73.6422 23.388 73.6422 21.996C73.6422 21.528 73.6602 21.012 73.6962 20.448C73.7322 19.884 73.7802 19.41 73.8402 19.026C73.8882 18.726 73.9782 18.498 74.1102 18.342C74.2422 18.186 74.4342 18.108 74.6862 18.108C74.9262 18.108 75.1302 18.18 75.2982 18.324C75.4662 18.468 75.5502 18.678 75.5502 18.954L75.5142 19.458C75.3942 20.478 75.3342 21.456 75.3342 22.392C75.3342 23.616 75.4362 24.45 75.6402 24.894C75.8562 25.326 76.1502 25.542 76.5222 25.542C76.9542 25.542 77.3982 25.428 77.8542 25.2C78.3102 24.96 78.6342 24.732 78.8262 24.516C78.8982 24.444 78.9342 24.294 78.9342 24.066L78.9702 18.936C78.9702 18.696 79.0542 18.498 79.2222 18.342C79.4022 18.186 79.6002 18.108 79.8162 18.108C80.0442 18.108 80.2422 18.186 80.4102 18.342C80.5902 18.498 80.6802 18.696 80.6802 18.936V26.244C80.6802 26.472 80.5902 26.676 80.4102 26.856C80.2422 27.024 80.0442 27.108 79.8162 27.108C79.5762 27.108 79.3602 27.036 79.1682 26.892C78.9882 26.736 78.8982 26.544 78.8982 26.316V26.118C78.4422 26.442 78.0162 26.7 77.6202 26.892C77.2362 27.072 76.8102 27.162 76.3422 27.162ZM84.7586 27.126C84.5306 27.126 84.3266 27.042 84.1466 26.874C83.9786 26.706 83.8946 26.508 83.8946 26.28V19.854H82.4726C82.2326 19.854 82.0286 19.77 81.8606 19.602C81.6926 19.422 81.6086 19.218 81.6086 18.99C81.6086 18.726 81.6986 18.516 81.8786 18.36C82.0586 18.192 82.2686 18.108 82.5086 18.108H83.8946V16.182C83.8946 15.954 83.9786 15.75 84.1466 15.57C84.3146 15.39 84.5186 15.3 84.7586 15.3C85.0106 15.3 85.2146 15.39 85.3706 15.57C85.5386 15.738 85.6226 15.942 85.6226 16.182V18.108H87.1526C87.3926 18.108 87.5966 18.192 87.7646 18.36C87.9326 18.528 88.0166 18.738 88.0166 18.99C88.0166 19.218 87.9326 19.422 87.7646 19.602C87.5966 19.77 87.3926 19.854 87.1526 19.854H85.6226V26.28C85.6226 26.508 85.5386 26.706 85.3706 26.874C85.2026 27.042 84.9986 27.126 84.7586 27.126Z" fill="#F6F8FF"/>
<rect x="1" y="43" width="66" height="34" fill="#0A0F2C"/>
<rect x="1" y="43" width="66" height="34" stroke="#F6F8FF"/>
<path d="M32.3928 65C32.1408 65 31.9308 64.916 31.7628 64.748C31.6068 64.58 31.5288 64.376 31.5288 64.136C31.5288 63.896 31.6068 63.692 31.7628 63.524C31.9308 63.356 32.1408 63.272 32.3928 63.272H33.4368L33.5628 56.234L32.9688 56.864C32.8008 57.032 32.5908 57.116 32.3388 57.116C32.0988 57.116 31.8948 57.032 31.7268 56.864C31.5588 56.696 31.4748 56.492 31.4748 56.252C31.4748 56.048 31.5528 55.856 31.7088 55.676L33.8148 53.39C33.8868 53.318 33.9828 53.258 34.1028 53.21C34.2228 53.15 34.3308 53.12 34.4268 53.12C34.6908 53.12 34.9008 53.21 35.0568 53.39C35.2248 53.558 35.3088 53.756 35.3088 53.984L35.1828 63.272H35.9208C36.1968 63.272 36.4128 63.356 36.5688 63.524C36.7368 63.692 36.8208 63.896 36.8208 64.136C36.8208 64.376 36.7308 64.58 36.5508 64.748C36.3828 64.916 36.1848 65 35.9568 65H32.3928Z" fill="#F6F8FF"/>
<rect x="67" y="43" width="66" height="34" fill="#0A0F2C"/>
<rect x="67" y="43" width="66" height="34" stroke="#F6F8FF"/>
<path d="M98.3928 65C98.1408 65 97.9308 64.916 97.7628 64.748C97.6068 64.58 97.5288 64.376 97.5288 64.136C97.5288 63.896 97.6068 63.692 97.7628 63.524C97.9308 63.356 98.1408 63.272 98.3928 63.272H99.4368L99.5628 56.234L98.9688 56.864C98.8008 57.032 98.5908 57.116 98.3388 57.116C98.0988 57.116 97.8948 57.032 97.7268 56.864C97.5588 56.696 97.4748 56.492 97.4748 56.252C97.4748 56.048 97.5528 55.856 97.7088 55.676L99.8148 53.39C99.8868 53.318 99.9828 53.258 100.103 53.21C100.223 53.15 100.331 53.12 100.427 53.12C100.691 53.12 100.901 53.21 101.057 53.39C101.225 53.558 101.309 53.756 101.309 53.984L101.183 63.272H101.921C102.197 63.272 102.413 63.356 102.569 63.524C102.737 63.692 102.821 63.896 102.821 64.136C102.821 64.376 102.731 64.58 102.551 64.748C102.383 64.916 102.185 65 101.957 65H98.3928Z" fill="#F6F8FF"/>
<rect x="1" y="77" width="66" height="34" fill="#0A0F2C"/>
<rect x="1" y="77" width="66" height="34" stroke="#F6F8FF"/>
<path d="M32.3928 99C32.1408 99 31.9308 98.916 31.7628 98.748C31.6068 98.58 31.5288 98.376 31.5288 98.136C31.5288 97.896 31.6068 97.692 31.7628 97.524C31.9308 97.356 32.1408 97.272 32.3928 97.272H33.4368L33.5628 90.234L32.9688 90.864C32.8008 91.032 32.5908 91.116 32.3388 91.116C32.0988 91.116 31.8948 91.032 31.7268 90.864C31.5588 90.696 31.4748 90.492 31.4748 90.252C31.4748 90.048 31.5528 89.856 31.7088 89.676L33.8148 87.39C33.8868 87.318 33.9828 87.258 34.1028 87.21C34.2228 87.15 34.3308 87.12 34.4268 87.12C34.6908 87.12 34.9008 87.21 35.0568 87.39C35.2248 87.558 35.3088 87.756 35.3088 87.984L35.1828 97.272H35.9208C36.1968 97.272 36.4128 97.356 36.5688 97.524C36.7368 97.692 36.8208 97.896 36.8208 98.136C36.8208 98.376 36.7308 98.58 36.5508 98.748C36.3828 98.916 36.1848 99 35.9568 99H32.3928Z" fill="#F6F8FF"/>
<rect x="67" y="77" width="66" height="34" fill="#0A0F2C"/>
<rect x="67" y="77" width="66" height="34" stroke="#F6F8FF"/>
<path d="M99.8176 99.108C99.0376 99.108 98.3296 98.85 97.6936 98.334C97.0696 97.806 96.5776 97.104 96.2176 96.228C95.8696 95.352 95.6956 94.41 95.6956 93.402C95.6956 92.31 95.8936 91.284 96.2896 90.324C96.6976 89.352 97.2436 88.578 97.9276 88.002C98.6236 87.414 99.3796 87.12 100.196 87.12C100.976 87.12 101.678 87.384 102.302 87.912C102.926 88.428 103.412 89.124 103.76 90C104.12 90.876 104.3 91.824 104.3 92.844C104.3 93.948 104.096 94.98 103.688 95.94C103.292 96.9 102.746 97.668 102.05 98.244C101.366 98.82 100.622 99.108 99.8176 99.108ZM99.8176 97.38C100.31 97.38 100.766 97.176 101.186 96.768C101.618 96.36 101.96 95.814 102.212 95.13C102.476 94.434 102.608 93.684 102.608 92.88C102.608 92.172 102.5 91.512 102.284 90.9C102.08 90.276 101.792 89.778 101.42 89.406C101.048 89.034 100.64 88.848 100.196 88.848C99.7036 88.848 99.2416 89.052 98.8096 89.46C98.3776 89.868 98.0356 90.42 97.7836 91.116C97.5316 91.812 97.4056 92.562 97.4056 93.366C97.4056 94.062 97.5076 94.722 97.7116 95.346C97.9156 95.958 98.2036 96.45 98.5756 96.822C98.9476 97.194 99.3616 97.38 99.8176 97.38Z" fill="#F6F8FF"/>
<rect x="1" y="111" width="66" height="34" fill="#0A0F2C"/>
<rect x="1" y="111" width="66" height="34" stroke="#F6F8FF"/>
<path d="M33.8176 133.108C33.0376 133.108 32.3296 132.85 31.6936 132.334C31.0696 131.806 30.5776 131.104 30.2176 130.228C29.8696 129.352 29.6956 128.41 29.6956 127.402C29.6956 126.31 29.8936 125.284 30.2896 124.324C30.6976 123.352 31.2436 122.578 31.9276 122.002C32.6236 121.414 33.3796 121.12 34.1956 121.12C34.9756 121.12 35.6776 121.384 36.3016 121.912C36.9256 122.428 37.4116 123.124 37.7596 124C38.1196 124.876 38.2996 125.824 38.2996 126.844C38.2996 127.948 38.0956 128.98 37.6876 129.94C37.2916 130.9 36.7456 131.668 36.0496 132.244C35.3656 132.82 34.6216 133.108 33.8176 133.108ZM33.8176 131.38C34.3096 131.38 34.7656 131.176 35.1856 130.768C35.6176 130.36 35.9596 129.814 36.2116 129.13C36.4756 128.434 36.6076 127.684 36.6076 126.88C36.6076 126.172 36.4996 125.512 36.2836 124.9C36.0796 124.276 35.7916 123.778 35.4196 123.406C35.0476 123.034 34.6396 122.848 34.1956 122.848C33.7036 122.848 33.2416 123.052 32.8096 123.46C32.3776 123.868 32.0356 124.42 31.7836 125.116C31.5316 125.812 31.4056 126.562 31.4056 127.366C31.4056 128.062 31.5076 128.722 31.7116 129.346C31.9156 129.958 32.2036 130.45 32.5756 130.822C32.9476 131.194 33.3616 131.38 33.8176 131.38Z" fill="#F6F8FF"/>
<rect x="67" y="111" width="66" height="34" fill="#0A0F2C"/>
<rect x="67" y="111" width="66" height="34" stroke="#F6F8FF"/>
<path d="M98.3928 133C98.1408 133 97.9308 132.916 97.7628 132.748C97.6068 132.58 97.5288 132.376 97.5288 132.136C97.5288 131.896 97.6068 131.692 97.7628 131.524C97.9308 131.356 98.1408 131.272 98.3928 131.272H99.4368L99.5628 124.234L98.9688 124.864C98.8008 125.032 98.5908 125.116 98.3388 125.116C98.0988 125.116 97.8948 125.032 97.7268 124.864C97.5588 124.696 97.4748 124.492 97.4748 124.252C97.4748 124.048 97.5528 123.856 97.7088 123.676L99.8148 121.39C99.8868 121.318 99.9828 121.258 100.103 121.21C100.223 121.15 100.331 121.12 100.427 121.12C100.691 121.12 100.901 121.21 101.057 121.39C101.225 121.558 101.309 121.756 101.309 121.984L101.183 131.272H101.921C102.197 131.272 102.413 131.356 102.569 131.524C102.737 131.692 102.821 131.896 102.821 132.136C102.821 132.376 102.731 132.58 102.551 132.748C102.383 132.916 102.185 133 101.957 133H98.3928Z" fill="#F6F8FF"/>
<rect x="1" y="145" width="66" height="34" fill="#0A0F2C"/>
<rect x="1" y="145" width="66" height="34" stroke="#F6F8FF"/>
<path d="M33.8176 167.108C33.0376 167.108 32.3296 166.85 31.6936 166.334C31.0696 165.806 30.5776 165.104 30.2176 164.228C29.8696 163.352 29.6956 162.41 29.6956 161.402C29.6956 160.31 29.8936 159.284 30.2896 158.324C30.6976 157.352 31.2436 156.578 31.9276 156.002C32.6236 155.414 33.3796 155.12 34.1956 155.12C34.9756 155.12 35.6776 155.384 36.3016 155.912C36.9256 156.428 37.4116 157.124 37.7596 158C38.1196 158.876 38.2996 159.824 38.2996 160.844C38.2996 161.948 38.0956 162.98 37.6876 163.94C37.2916 164.9 36.7456 165.668 36.0496 166.244C35.3656 166.82 34.6216 167.108 33.8176 167.108ZM33.8176 165.38C34.3096 165.38 34.7656 165.176 35.1856 164.768C35.6176 164.36 35.9596 163.814 36.2116 163.13C36.4756 162.434 36.6076 161.684 36.6076 160.88C36.6076 160.172 36.4996 159.512 36.2836 158.9C36.0796 158.276 35.7916 157.778 35.4196 157.406C35.0476 157.034 34.6396 156.848 34.1956 156.848C33.7036 156.848 33.2416 157.052 32.8096 157.46C32.3776 157.868 32.0356 158.42 31.7836 159.116C31.5316 159.812 31.4056 160.562 31.4056 161.366C31.4056 162.062 31.5076 162.722 31.7116 163.346C31.9156 163.958 32.2036 164.45 32.5756 164.822C32.9476 165.194 33.3616 165.38 33.8176 165.38Z" fill="#F6F8FF"/>
<rect x="67" y="145" width="66" height="34" fill="#0A0F2C"/>
<rect x="67" y="145" width="66" height="34" stroke="#F6F8FF"/>
<path d="M99.8176 167.108C99.0376 167.108 98.3296 166.85 97.6936 166.334C97.0696 165.806 96.5776 165.104 96.2176 164.228C95.8696 163.352 95.6956 162.41 95.6956 161.402C95.6956 160.31 95.8936 159.284 96.2896 158.324C96.6976 157.352 97.2436 156.578 97.9276 156.002C98.6236 155.414 99.3796 155.12 100.196 155.12C100.976 155.12 101.678 155.384 102.302 155.912C102.926 156.428 103.412 157.124 103.76 158C104.12 158.876 104.3 159.824 104.3 160.844C104.3 161.948 104.096 162.98 103.688 163.94C103.292 164.9 102.746 165.668 102.05 166.244C101.366 166.82 100.622 167.108 99.8176 167.108ZM99.8176 165.38C100.31 165.38 100.766 165.176 101.186 164.768C101.618 164.36 101.96 163.814 102.212 163.13C102.476 162.434 102.608 161.684 102.608 160.88C102.608 160.172 102.5 159.512 102.284 158.9C102.08 158.276 101.792 157.778 101.42 157.406C101.048 157.034 100.64 156.848 100.196 156.848C99.7036 156.848 99.2416 157.052 98.8096 157.46C98.3776 157.868 98.0356 158.42 97.7836 159.116C97.5316 159.812 97.4056 160.562 97.4056 161.366C97.4056 162.062 97.5076 162.722 97.7116 163.346C97.9156 163.958 98.2036 164.45 98.5756 164.822C98.9476 165.194 99.3616 165.38 99.8176 165.38Z" fill="#F6F8FF"/>
<rect x="133" y="1" width="132" height="42" fill="#007BFF" fill-opacity="0.25"/>
<rect x="133" y="1" width="132" height="42" stroke="#F6F8FF"/>
<path d="M178.727 27.108C177.839 27.108 177.041 26.862 176.333 26.37C175.625 25.866 175.067 25.182 174.659 24.318C174.263 23.454 174.065 22.488 174.065 21.42C174.065 20.208 174.311 19.098 174.803 18.09C175.295 17.082 175.949 16.29 176.765 15.714C177.593 15.126 178.481 14.832 179.429 14.832C180.317 14.832 181.115 15.078 181.823 15.57C182.543 16.062 183.101 16.74 183.497 17.604C183.905 18.468 184.109 19.44 184.109 20.52C184.109 21.744 183.863 22.86 183.371 23.868C182.879 24.864 182.219 25.656 181.391 26.244C180.575 26.82 179.687 27.108 178.727 27.108ZM178.727 25.398C179.375 25.398 179.969 25.194 180.509 24.786C181.061 24.378 181.499 23.808 181.823 23.076C182.147 22.344 182.309 21.516 182.309 20.592C182.309 19.752 182.165 19.026 181.877 18.414C181.601 17.802 181.229 17.34 180.761 17.028C180.305 16.704 179.825 16.542 179.321 16.542C178.697 16.542 178.121 16.752 177.593 17.172C177.065 17.592 176.645 18.174 176.333 18.918C176.021 19.65 175.865 20.484 175.865 21.42C175.865 22.26 175.997 22.98 176.261 23.58C176.525 24.18 176.873 24.636 177.305 24.948C177.749 25.248 178.223 25.398 178.727 25.398ZM188.549 27.162C187.901 27.162 187.385 27.024 187.001 26.748C186.617 26.46 186.329 25.944 186.137 25.2C185.945 24.456 185.849 23.388 185.849 21.996C185.849 21.528 185.867 21.012 185.903 20.448C185.939 19.884 185.987 19.41 186.047 19.026C186.095 18.726 186.185 18.498 186.317 18.342C186.449 18.186 186.641 18.108 186.893 18.108C187.133 18.108 187.337 18.18 187.505 18.324C187.673 18.468 187.757 18.678 187.757 18.954L187.721 19.458C187.601 20.478 187.541 21.456 187.541 22.392C187.541 23.616 187.643 24.45 187.847 24.894C188.063 25.326 188.357 25.542 188.729 25.542C189.161 25.542 189.605 25.428 190.061 25.2C190.517 24.96 190.841 24.732 191.033 24.516C191.105 24.444 191.141 24.294 191.141 24.066L191.177 18.936C191.177 18.696 191.261 18.498 191.429 18.342C191.609 18.186 191.807 18.108 192.023 18.108C192.251 18.108 192.449 18.186 192.617 18.342C192.797 18.498 192.887 18.696 192.887 18.936V26.244C192.887 26.472 192.797 26.676 192.617 26.856C192.449 27.024 192.251 27.108 192.023 27.108C191.783 27.108 191.567 27.036 191.375 26.892C191.195 26.736 191.105 26.544 191.105 26.316V26.118C190.649 26.442 190.223 26.7 189.827 26.892C189.443 27.072 189.017 27.162 188.549 27.162ZM196.966 27.126C196.738 27.126 196.534 27.042 196.354 26.874C196.186 26.706 196.102 26.508 196.102 26.28V19.854H194.68C194.44 19.854 194.236 19.77 194.068 19.602C193.9 19.422 193.816 19.218 193.816 18.99C193.816 18.726 193.906 18.516 194.086 18.36C194.266 18.192 194.476 18.108 194.716 18.108H196.102V16.182C196.102 15.954 196.186 15.75 196.354 15.57C196.522 15.39 196.726 15.3 196.966 15.3C197.218 15.3 197.422 15.39 197.578 15.57C197.746 15.738 197.83 15.942 197.83 16.182V18.108H199.36C199.6 18.108 199.804 18.192 199.972 18.36C200.14 18.528 200.224 18.738 200.224 18.99C200.224 19.218 200.14 19.422 199.972 19.602C199.804 19.77 199.6 19.854 199.36 19.854H197.83V26.28C197.83 26.508 197.746 26.706 197.578 26.874C197.41 27.042 197.206 27.126 196.966 27.126ZM202.17 30.294C201.942 30.294 201.738 30.204 201.558 30.024C201.39 29.856 201.306 29.658 201.306 29.43V18.99C201.306 18.738 201.39 18.528 201.558 18.36C201.726 18.192 201.936 18.108 202.188 18.108C202.392 18.108 202.578 18.186 202.746 18.342C202.926 18.498 203.016 18.702 203.016 18.954V19.152C203.628 18.456 204.528 18.108 205.716 18.108C206.208 18.108 206.682 18.264 207.138 18.576C207.606 18.888 207.99 19.356 208.29 19.98C208.59 20.592 208.74 21.33 208.74 22.194C208.74 22.974 208.62 23.724 208.38 24.444C208.14 25.164 207.72 25.77 207.12 26.262C206.532 26.742 205.74 26.982 204.744 26.982C204.168 26.982 203.598 26.82 203.034 26.496V29.43C203.034 29.658 202.944 29.856 202.764 30.024C202.596 30.204 202.398 30.294 202.17 30.294ZM204.852 25.326C205.548 25.326 206.094 25.068 206.49 24.552C206.898 24.024 207.102 23.238 207.102 22.194C207.102 21.426 206.952 20.826 206.652 20.394C206.364 19.95 206.004 19.728 205.572 19.728C204.96 19.728 204.438 19.848 204.006 20.088C203.586 20.328 203.262 20.598 203.034 20.898V24.894C203.766 25.182 204.372 25.326 204.852 25.326ZM213.159 27.162C212.511 27.162 211.995 27.024 211.611 26.748C211.227 26.46 210.939 25.944 210.747 25.2C210.555 24.456 210.459 23.388 210.459 21.996C210.459 21.528 210.477 21.012 210.513 20.448C210.549 19.884 210.597 19.41 210.657 19.026C210.705 18.726 210.795 18.498 210.927 18.342C211.059 18.186 211.251 18.108 211.503 18.108C211.743 18.108 211.947 18.18 212.115 18.324C212.283 18.468 212.367 18.678 212.367 18.954L212.331 19.458C212.211 20.478 212.151 21.456 212.151 22.392C212.151 23.616 212.253 24.45 212.457 24.894C212.673 25.326 212.967 25.542 213.339 25.542C213.771 25.542 214.215 25.428 214.671 25.2C215.127 24.96 215.451 24.732 215.643 24.516C215.715 24.444 215.751 24.294 215.751 24.066L215.787 18.936C215.787 18.696 215.871 18.498 216.039 18.342C216.219 18.186 216.417 18.108 216.633 18.108C216.861 18.108 217.059 18.186 217.227 18.342C217.407 18.498 217.497 18.696 217.497 18.936V26.244C217.497 26.472 217.407 26.676 217.227 26.856C217.059 27.024 216.861 27.108 216.633 27.108C216.393 27.108 216.177 27.036 215.985 26.892C215.805 26.736 215.715 26.544 215.715 26.316V26.118C215.259 26.442 214.833 26.7 214.437 26.892C214.053 27.072 213.627 27.162 213.159 27.162ZM221.575 27.126C221.347 27.126 221.143 27.042 220.963 26.874C220.795 26.706 220.711 26.508 220.711 26.28V19.854H219.289C219.049 19.854 218.845 19.77 218.677 19.602C218.509 19.422 218.425 19.218 218.425 18.99C218.425 18.726 218.515 18.516 218.695 18.36C218.875 18.192 219.085 18.108 219.325 18.108H220.711V16.182C220.711 15.954 220.795 15.75 220.963 15.57C221.131 15.39 221.335 15.3 221.575 15.3C221.827 15.3 222.031 15.39 222.187 15.57C222.355 15.738 222.439 15.942 222.439 16.182V18.108H223.969C224.209 18.108 224.413 18.192 224.581 18.36C224.749 18.528 224.833 18.738 224.833 18.99C224.833 19.218 224.749 19.422 224.581 19.602C224.413 19.77 224.209 19.854 223.969 19.854H222.439V26.28C222.439 26.508 222.355 26.706 222.187 26.874C222.019 27.042 221.815 27.126 221.575 27.126Z" fill="#F6F8FF"/>
<rect x="133" y="43" width="132" height="34" fill="#0A0F2C"/>
<rect x="133" y="43" width="132" height="34" stroke="#F6F8FF"/>
<path d="M198.818 65.108C198.038 65.108 197.33 64.85 196.694 64.334C196.07 63.806 195.578 63.104 195.218 62.228C194.87 61.352 194.696 60.41 194.696 59.402C194.696 58.31 194.894 57.284 195.29 56.324C195.698 55.352 196.244 54.578 196.928 54.002C197.624 53.414 198.38 53.12 199.196 53.12C199.976 53.12 200.678 53.384 201.302 53.912C201.926 54.428 202.412 55.124 202.76 56C203.12 56.876 203.3 57.824 203.3 58.844C203.3 59.948 203.096 60.98 202.688 61.94C202.292 62.9 201.746 63.668 201.05 64.244C200.366 64.82 199.622 65.108 198.818 65.108ZM198.818 63.38C199.31 63.38 199.766 63.176 200.186 62.768C200.618 62.36 200.96 61.814 201.212 61.13C201.476 60.434 201.608 59.684 201.608 58.88C201.608 58.172 201.5 57.512 201.284 56.9C201.08 56.276 200.792 55.778 200.42 55.406C200.048 55.034 199.64 54.848 199.196 54.848C198.704 54.848 198.242 55.052 197.81 55.46C197.378 55.868 197.036 56.42 196.784 57.116C196.532 57.812 196.406 58.562 196.406 59.366C196.406 60.062 196.508 60.722 196.712 61.346C196.916 61.958 197.204 62.45 197.576 62.822C197.948 63.194 198.362 63.38 198.818 63.38Z" fill="#F6F8FF"/>
<rect x="133" y="77" width="132" height="34" fill="#0A0F2C"/>
<rect x="133" y="77" width="132" height="34" stroke="#F6F8FF"/>
<path d="M197.393 99C197.141 99 196.931 98.916 196.763 98.748C196.607 98.58 196.529 98.376 196.529 98.136C196.529 97.896 196.607 97.692 196.763 97.524C196.931 97.356 197.141 97.272 197.393 97.272H198.437L198.563 90.234L197.969 90.864C197.801 91.032 197.591 91.116 197.339 91.116C197.099 91.116 196.895 91.032 196.727 90.864C196.559 90.696 196.475 90.492 196.475 90.252C196.475 90.048 196.553 89.856 196.709 89.676L198.815 87.39C198.887 87.318 198.983 87.258 199.103 87.21C199.223 87.15 199.331 87.12 199.427 87.12C199.691 87.12 199.901 87.21 200.057 87.39C200.225 87.558 200.309 87.756 200.309 87.984L200.183 97.272H200.921C201.197 97.272 201.413 97.356 201.569 97.524C201.737 97.692 201.821 97.896 201.821 98.136C201.821 98.376 201.731 98.58 201.551 98.748C201.383 98.916 201.185 99 200.957 99H197.393Z" fill="#F6F8FF"/>
<rect x="133" y="111" width="132" height="34" fill="#0A0F2C"/>
<rect x="133" y="111" width="132" height="34" stroke="#F6F8FF"/>
<path d="M197.393 133C197.141 133 196.931 132.916 196.763 132.748C196.607 132.58 196.529 132.376 196.529 132.136C196.529 131.896 196.607 131.692 196.763 131.524C196.931 131.356 197.141 131.272 197.393 131.272H198.437L198.563 124.234L197.969 124.864C197.801 125.032 197.591 125.116 197.339 125.116C197.099 125.116 196.895 125.032 196.727 124.864C196.559 124.696 196.475 124.492 196.475 124.252C196.475 124.048 196.553 123.856 196.709 123.676L198.815 121.39C198.887 121.318 198.983 121.258 199.103 121.21C199.223 121.15 199.331 121.12 199.427 121.12C199.691 121.12 199.901 121.21 200.057 121.39C200.225 121.558 200.309 121.756 200.309 121.984L200.183 131.272H200.921C201.197 131.272 201.413 131.356 201.569 131.524C201.737 131.692 201.821 131.896 201.821 132.136C201.821 132.376 201.731 132.58 201.551 132.748C201.383 132.916 201.185 133 200.957 133H197.393Z" fill="#F6F8FF"/>
<rect x="133" y="145" width="132" height="34" fill="#0A0F2C"/>
<rect x="133" y="145" width="132" height="34" stroke="#F6F8FF"/>
<path d="M197.393 167C197.141 167 196.931 166.916 196.763 166.748C196.607 166.58 196.529 166.376 196.529 166.136C196.529 165.896 196.607 165.692 196.763 165.524C196.931 165.356 197.141 165.272 197.393 165.272H198.437L198.563 158.234L197.969 158.864C197.801 159.032 197.591 159.116 197.339 159.116C197.099 159.116 196.895 159.032 196.727 158.864C196.559 158.696 196.475 158.492 196.475 158.252C196.475 158.048 196.553 157.856 196.709 157.676L198.815 155.39C198.887 155.318 198.983 155.258 199.103 155.21C199.223 155.15 199.331 155.12 199.427 155.12C199.691 155.12 199.901 155.21 200.057 155.39C200.225 155.558 200.309 155.756 200.309 155.984L200.183 165.272H200.921C201.197 165.272 201.413 165.356 201.569 165.524C201.737 165.692 201.821 165.896 201.821 166.136C201.821 166.376 201.731 166.58 201.551 166.748C201.383 166.916 201.185 167 200.957 167H197.393Z" fill="#F6F8FF"/>
</svg>
