<svg width="50" height="70" viewBox="0 0 50 70" fill="none" xmlns="http://www.w3.org/2000/svg">
<rect x="1" y="0.5" width="48" height="69" fill="#FF8C00" stroke="black"/>
<path d="M38.0996 5.5C42.4627 5.5 46 9.03734 46 13.4004V31.4004C45.9998 49.6807 31.1807 64.4998 12.9004 64.5C8.53734 64.5 5 60.9627 5 56.5996V38.5996C5.00021 20.3193 19.8193 5.50021 38.0996 5.5Z" fill="#F6F8FF" stroke="black"/>
<path d="M6.452 9.056C6.26 9.056 6.13467 8.96533 6.076 8.784L5.5 7.12L3.868 7.48L3.348 8.792C3.316 8.86667 3.268 8.928 3.204 8.976C3.14533 9.024 3.07067 9.048 2.98 9.048C2.87333 9.048 2.78 9.01067 2.7 8.936C2.62 8.86133 2.58 8.77333 2.58 8.672C2.58 8.60267 2.59867 8.52267 2.636 8.432L2.956 7.632C2.924 7.62133 2.9 7.61067 2.884 7.6C2.74533 7.53067 2.676 7.41333 2.676 7.248C2.676 7.152 2.70267 7.06933 2.756 7C2.81467 6.93067 2.88933 6.88533 2.98 6.864L3.276 6.8L4.46 3.792C4.492 3.712 4.54267 3.65067 4.612 3.608C4.68133 3.56533 4.756 3.544 4.836 3.544C4.92133 3.544 4.996 3.56533 5.06 3.608C5.124 3.65067 5.172 3.71733 5.204 3.808L6.796 8.424C6.80133 8.43467 6.812 8.46667 6.828 8.52C6.844 8.568 6.852 8.61867 6.852 8.672C6.852 8.77333 6.81467 8.864 6.74 8.944C6.66533 9.01867 6.56933 9.056 6.452 9.056ZM5.236 6.376L4.804 5.088L4.204 6.6L5.236 6.376ZM7.90606 9.048C7.80473 9.048 7.71406 9.008 7.63406 8.928C7.55406 8.848 7.51406 8.75733 7.51406 8.656L7.52206 3.992C7.52206 3.88533 7.55673 3.79467 7.62606 3.72C7.70073 3.64 7.79406 3.6 7.90606 3.6C7.97006 3.6 8.0314 3.616 8.09006 3.648C8.14873 3.67467 8.19673 3.71467 8.23406 3.768L10.7381 7.392V3.992C10.7381 3.88533 10.7754 3.792 10.8501 3.712C10.9301 3.632 11.0261 3.592 11.1381 3.592C11.2447 3.592 11.3354 3.632 11.4101 3.712C11.4901 3.792 11.5301 3.88533 11.5301 3.992V8.656C11.5301 8.768 11.4927 8.86133 11.4181 8.936C11.3434 9.01067 11.2501 9.048 11.1381 9.048C11.0794 9.048 11.0181 9.032 10.9541 9C10.8954 8.968 10.8474 8.92533 10.8101 8.872L8.31406 5.264L8.30606 8.656C8.30606 8.768 8.26606 8.86133 8.18606 8.936C8.1114 9.01067 8.01806 9.048 7.90606 9.048ZM13.9968 9.096C13.8101 9.096 13.6208 9.07733 13.4288 9.04C13.2368 9.008 13.1061 8.98133 13.0368 8.96C12.9515 8.93333 12.8795 8.88267 12.8208 8.808C12.7621 8.73333 12.7328 8.65333 12.7328 8.568V4.032C12.7328 3.92 12.7701 3.82667 12.8448 3.752C12.9248 3.67733 13.0208 3.64 13.1328 3.64C13.6715 3.64 14.2155 3.72 14.7648 3.88C15.3141 4.04 15.7888 4.33867 16.1888 4.776C16.5941 5.21333 16.7968 5.81867 16.7968 6.592C16.7968 7.152 16.6741 7.62133 16.4288 8C16.1835 8.37333 15.8501 8.65067 15.4288 8.832C15.0075 9.008 14.5301 9.096 13.9968 9.096ZM13.9968 8.296C14.6208 8.296 15.1088 8.152 15.4608 7.864C15.8181 7.576 15.9968 7.152 15.9968 6.592C15.9968 5.89867 15.7701 5.384 15.3168 5.048C14.8688 4.712 14.2741 4.51467 13.5328 4.456V8.248C13.7141 8.28 13.8688 8.296 13.9968 8.296Z" fill="black"/>
<path d="M15 27V43H27C29.1217 43 31.1566 42.1571 32.6569 40.6569C34.1571 39.1566 35 37.1217 35 35C35 32.8783 34.1571 30.8434 32.6569 29.3431C31.1566 27.8429 29.1217 27 27 27H15ZM17 29H27C28.5913 29 30.1174 29.6321 31.2426 30.7574C32.3679 31.8826 33 33.4087 33 35C33 36.5913 32.3679 38.1174 31.2426 39.2426C30.1174 40.3679 28.5913 41 27 41H17V29Z" fill="black"/>
<path d="M43.548 60.944C43.74 60.944 43.8653 61.0347 43.924 61.216L44.5 62.88L46.132 62.52L46.652 61.208C46.684 61.1333 46.732 61.072 46.796 61.024C46.8547 60.976 46.9293 60.952 47.02 60.952C47.1267 60.952 47.22 60.9893 47.3 61.064C47.38 61.1387 47.42 61.2267 47.42 61.328C47.42 61.3973 47.4013 61.4773 47.364 61.568L47.044 62.368C47.076 62.3787 47.1 62.3893 47.116 62.4C47.2547 62.4693 47.324 62.5867 47.324 62.752C47.324 62.848 47.2973 62.9307 47.244 63C47.1853 63.0693 47.1107 63.1147 47.02 63.136L46.724 63.2L45.54 66.208C45.508 66.288 45.4573 66.3493 45.388 66.392C45.3187 66.4347 45.244 66.456 45.164 66.456C45.0787 66.456 45.004 66.4347 44.94 66.392C44.876 66.3493 44.828 66.2827 44.796 66.192L43.204 61.576C43.1987 61.5653 43.188 61.5333 43.172 61.48C43.156 61.432 43.148 61.3813 43.148 61.328C43.148 61.2267 43.1853 61.136 43.26 61.056C43.3347 60.9813 43.4307 60.944 43.548 60.944ZM44.764 63.624L45.196 64.912L45.796 63.4L44.764 63.624ZM42.0939 60.952C42.1953 60.952 42.2859 60.992 42.3659 61.072C42.4459 61.152 42.4859 61.2427 42.4859 61.344L42.4779 66.008C42.4779 66.1147 42.4433 66.2053 42.3739 66.28C42.2993 66.36 42.2059 66.4 42.0939 66.4C42.0299 66.4 41.9686 66.384 41.9099 66.352C41.8513 66.3253 41.8033 66.2853 41.7659 66.232L39.2619 62.608V66.008C39.2619 66.1147 39.2246 66.208 39.1499 66.288C39.0699 66.368 38.9739 66.408 38.8619 66.408C38.7553 66.408 38.6646 66.368 38.5899 66.288C38.5099 66.208 38.4699 66.1147 38.4699 66.008V61.344C38.4699 61.232 38.5073 61.1387 38.5819 61.064C38.6566 60.9893 38.7499 60.952 38.8619 60.952C38.9206 60.952 38.9819 60.968 39.0459 61C39.1046 61.032 39.1526 61.0747 39.1899 61.128L41.6859 64.736L41.6939 61.344C41.6939 61.232 41.7339 61.1387 41.8139 61.064C41.8886 60.9893 41.9819 60.952 42.0939 60.952ZM36.0032 60.904C36.1899 60.904 36.3792 60.9227 36.5712 60.96C36.7632 60.992 36.8939 61.0187 36.9632 61.04C37.0485 61.0667 37.1205 61.1173 37.1792 61.192C37.2379 61.2667 37.2672 61.3467 37.2672 61.432V65.968C37.2672 66.08 37.2299 66.1733 37.1552 66.248C37.0752 66.3227 36.9792 66.36 36.8672 66.36C36.3285 66.36 35.7845 66.28 35.2352 66.12C34.6859 65.96 34.2112 65.6613 33.8112 65.224C33.4059 64.7867 33.2032 64.1813 33.2032 63.408C33.2032 62.848 33.3259 62.3787 33.5712 62C33.8165 61.6267 34.1499 61.3493 34.5712 61.168C34.9925 60.992 35.4699 60.904 36.0032 60.904ZM36.0032 61.704C35.3792 61.704 34.8912 61.848 34.5392 62.136C34.1819 62.424 34.0032 62.848 34.0032 63.408C34.0032 64.1013 34.2299 64.616 34.6832 64.952C35.1312 65.288 35.7259 65.4853 36.4672 65.544V61.752C36.2859 61.72 36.1312 61.704 36.0032 61.704Z" fill="black"/>
</svg>
