<svg width="50" height="70" viewBox="0 0 50 70" fill="none" xmlns="http://www.w3.org/2000/svg">
<rect x="1" y="0.5" width="48" height="69" fill="#B22222" stroke="black"/>
<path d="M38.0996 5.5C42.4627 5.5 46 9.03734 46 13.4004V31.4004C45.9998 49.6807 31.1807 64.4998 12.9004 64.5C8.53734 64.5 5 60.9627 5 56.5996V38.5996C5.00021 20.3193 19.8193 5.50021 38.0996 5.5Z" fill="#F6F8FF" stroke="black"/>
<path d="M3.492 9.048C3.39067 9.048 3.3 9.008 3.22 8.928C3.14 8.848 3.1 8.75733 3.1 8.656L3.108 3.992C3.108 3.88533 3.14267 3.79467 3.212 3.72C3.28667 3.64 3.38 3.6 3.492 3.6C3.556 3.6 3.61733 3.616 3.676 3.648C3.73467 3.67467 3.78267 3.71467 3.82 3.768L6.324 7.392V3.992C6.324 3.88533 6.36133 3.792 6.436 3.712C6.516 3.632 6.612 3.592 6.724 3.592C6.83067 3.592 6.92133 3.632 6.996 3.712C7.076 3.792 7.116 3.88533 7.116 3.992V8.656C7.116 8.768 7.07867 8.86133 7.004 8.936C6.92933 9.01067 6.836 9.048 6.724 9.048C6.66533 9.048 6.604 9.032 6.54 9C6.48133 8.968 6.43333 8.92533 6.396 8.872L3.9 5.264L3.892 8.656C3.892 8.768 3.852 8.86133 3.772 8.936C3.69733 9.01067 3.604 9.048 3.492 9.048ZM11.6708 9.056C11.4788 9.056 11.3534 8.96533 11.2948 8.784L10.7188 7.12L9.08675 7.48L8.56675 8.792C8.53475 8.86667 8.48675 8.928 8.42275 8.976C8.36408 9.024 8.28942 9.048 8.19875 9.048C8.09208 9.048 7.99875 9.01067 7.91875 8.936C7.83875 8.86133 7.79875 8.77333 7.79875 8.672C7.79875 8.60267 7.81742 8.52267 7.85475 8.432L8.17475 7.632C8.14275 7.62133 8.11875 7.61067 8.10275 7.6C7.96408 7.53067 7.89475 7.41333 7.89475 7.248C7.89475 7.152 7.92142 7.06933 7.97475 7C8.03342 6.93067 8.10808 6.88533 8.19875 6.864L8.49475 6.8L9.67875 3.792C9.71075 3.712 9.76142 3.65067 9.83075 3.608C9.90008 3.56533 9.97475 3.544 10.0548 3.544C10.1401 3.544 10.2148 3.56533 10.2788 3.608C10.3428 3.65067 10.3908 3.71733 10.4228 3.808L12.0148 8.424C12.0201 8.43467 12.0308 8.46667 12.0468 8.52C12.0628 8.568 12.0708 8.61867 12.0708 8.672C12.0708 8.77333 12.0334 8.864 11.9588 8.944C11.8841 9.01867 11.7881 9.056 11.6708 9.056ZM10.4548 6.376L10.0228 5.088L9.42275 6.6L10.4548 6.376ZM13.1248 9.048C13.0235 9.048 12.9328 9.008 12.8528 8.928C12.7728 8.848 12.7328 8.75733 12.7328 8.656L12.7408 3.992C12.7408 3.88533 12.7755 3.79467 12.8448 3.72C12.9195 3.64 13.0128 3.6 13.1248 3.6C13.1888 3.6 13.2501 3.616 13.3088 3.648C13.3675 3.67467 13.4155 3.71467 13.4528 3.768L15.9568 7.392V3.992C15.9568 3.88533 15.9941 3.792 16.0688 3.712C16.1488 3.632 16.2448 3.592 16.3568 3.592C16.4635 3.592 16.5541 3.632 16.6288 3.712C16.7088 3.792 16.7488 3.88533 16.7488 3.992V8.656C16.7488 8.768 16.7115 8.86133 16.6368 8.936C16.5621 9.01067 16.4688 9.048 16.3568 9.048C16.2981 9.048 16.2368 9.032 16.1728 9C16.1141 8.968 16.0661 8.92533 16.0288 8.872L13.5328 5.264L13.5248 8.656C13.5248 8.768 13.4848 8.86133 13.4048 8.936C13.3301 9.01067 13.2368 9.048 13.1248 9.048ZM19.2156 9.096C19.0289 9.096 18.8396 9.07733 18.6476 9.04C18.4556 9.008 18.3249 8.98133 18.2556 8.96C18.1702 8.93333 18.0982 8.88267 18.0396 8.808C17.9809 8.73333 17.9516 8.65333 17.9516 8.568V4.032C17.9516 3.92 17.9889 3.82667 18.0636 3.752C18.1436 3.67733 18.2396 3.64 18.3516 3.64C18.8902 3.64 19.4342 3.72 19.9836 3.88C20.5329 4.04 21.0076 4.33867 21.4076 4.776C21.8129 5.21333 22.0156 5.81867 22.0156 6.592C22.0156 7.152 21.8929 7.62133 21.6476 8C21.4022 8.37333 21.0689 8.65067 20.6476 8.832C20.2262 9.008 19.7489 9.096 19.2156 9.096ZM19.2156 8.296C19.8396 8.296 20.3276 8.152 20.6796 7.864C21.0369 7.576 21.2156 7.152 21.2156 6.592C21.2156 5.89867 20.9889 5.384 20.5356 5.048C20.0876 4.712 19.4929 4.51467 18.7516 4.456V8.248C18.9329 8.28 19.0876 8.296 19.2156 8.296Z" fill="black"/>
<path d="M15 27V43H23C26.43 43 29.5 40.84 30.6 37.6C31 37.8 31.5 38 32 38C32.7956 38 33.5587 37.6839 34.1213 37.1213C34.6839 36.5587 35 35.7956 35 35C35 34.2044 34.6839 33.4413 34.1213 32.8787C33.5587 32.3161 32.7956 32 32 32C31.5 32 31.03 32.15 30.6 32.4C29.5 29.16 26.43 27 23 27H15ZM17 29H23C24.5913 29 26.1174 29.6321 27.2426 30.7574C28.3679 31.8826 29 33.4087 29 35C29 36.5913 28.3679 38.1174 27.2426 39.2426C26.1174 40.3679 24.5913 41 23 41H17V29ZM32 34C32.5 34 33 34.5 33 35C33 35.5 32.5 36 32 36C31.7348 36 31.4804 35.8946 31.2929 35.7071C31.1054 35.5196 31 35.2652 31 35C31 34.5 31.5 34 32 34Z" fill="black"/>
<path d="M46.508 60.952C46.6093 60.952 46.7 60.992 46.78 61.072C46.86 61.152 46.9 61.2427 46.9 61.344L46.892 66.008C46.892 66.1147 46.8573 66.2053 46.788 66.28C46.7133 66.36 46.62 66.4 46.508 66.4C46.444 66.4 46.3827 66.384 46.324 66.352C46.2653 66.3253 46.2173 66.2853 46.18 66.232L43.676 62.608V66.008C43.676 66.1147 43.6387 66.208 43.564 66.288C43.484 66.368 43.388 66.408 43.276 66.408C43.1693 66.408 43.0787 66.368 43.004 66.288C42.924 66.208 42.884 66.1147 42.884 66.008V61.344C42.884 61.232 42.9213 61.1387 42.996 61.064C43.0707 60.9893 43.164 60.952 43.276 60.952C43.3347 60.952 43.396 60.968 43.46 61C43.5187 61.032 43.5667 61.0747 43.604 61.128L46.1 64.736L46.108 61.344C46.108 61.232 46.148 61.1387 46.228 61.064C46.3027 60.9893 46.396 60.952 46.508 60.952ZM38.3292 60.944C38.5212 60.944 38.6466 61.0347 38.7052 61.216L39.2812 62.88L40.9132 62.52L41.4332 61.208C41.4652 61.1333 41.5132 61.072 41.5772 61.024C41.6359 60.976 41.7106 60.952 41.8012 60.952C41.9079 60.952 42.0012 60.9893 42.0812 61.064C42.1612 61.1387 42.2012 61.2267 42.2012 61.328C42.2012 61.3973 42.1826 61.4773 42.1452 61.568L41.8252 62.368C41.8572 62.3787 41.8812 62.3893 41.8972 62.4C42.0359 62.4693 42.1052 62.5867 42.1052 62.752C42.1052 62.848 42.0786 62.9307 42.0252 63C41.9666 63.0693 41.8919 63.1147 41.8012 63.136L41.5052 63.2L40.3212 66.208C40.2892 66.288 40.2386 66.3493 40.1693 66.392C40.0999 66.4347 40.0252 66.456 39.9452 66.456C39.8599 66.456 39.7852 66.4347 39.7212 66.392C39.6572 66.3493 39.6092 66.2827 39.5772 66.192L37.9852 61.576C37.9799 61.5653 37.9692 61.5333 37.9532 61.48C37.9372 61.432 37.9292 61.3813 37.9292 61.328C37.9292 61.2267 37.9666 61.136 38.0412 61.056C38.1159 60.9813 38.2119 60.944 38.3292 60.944ZM39.5452 63.624L39.9772 64.912L40.5772 63.4L39.5452 63.624ZM36.8752 60.952C36.9765 60.952 37.0672 60.992 37.1472 61.072C37.2272 61.152 37.2672 61.2427 37.2672 61.344L37.2592 66.008C37.2592 66.1147 37.2245 66.2053 37.1552 66.28C37.0805 66.36 36.9872 66.4 36.8752 66.4C36.8112 66.4 36.7499 66.384 36.6912 66.352C36.6325 66.3253 36.5845 66.2853 36.5472 66.232L34.0432 62.608V66.008C34.0432 66.1147 34.0059 66.208 33.9312 66.288C33.8512 66.368 33.7552 66.408 33.6432 66.408C33.5365 66.408 33.4459 66.368 33.3712 66.288C33.2912 66.208 33.2512 66.1147 33.2512 66.008V61.344C33.2512 61.232 33.2885 61.1387 33.3632 61.064C33.4379 60.9893 33.5312 60.952 33.6432 60.952C33.7019 60.952 33.7632 60.968 33.8272 61C33.8859 61.032 33.9339 61.0747 33.9712 61.128L36.4672 64.736L36.4752 61.344C36.4752 61.232 36.5152 61.1387 36.5952 61.064C36.6699 60.9893 36.7632 60.952 36.8752 60.952ZM30.7844 60.904C30.9711 60.904 31.1604 60.9227 31.3524 60.96C31.5444 60.992 31.6751 61.0187 31.7444 61.04C31.8298 61.0667 31.9018 61.1173 31.9604 61.192C32.0191 61.2667 32.0484 61.3467 32.0484 61.432V65.968C32.0484 66.08 32.0111 66.1733 31.9364 66.248C31.8564 66.3227 31.7604 66.36 31.6484 66.36C31.1098 66.36 30.5658 66.28 30.0164 66.12C29.4671 65.96 28.9924 65.6613 28.5924 65.224C28.1871 64.7867 27.9844 64.1813 27.9844 63.408C27.9844 62.848 28.1071 62.3787 28.3524 62C28.5978 61.6267 28.9311 61.3493 29.3524 61.168C29.7738 60.992 30.2511 60.904 30.7844 60.904ZM30.7844 61.704C30.1604 61.704 29.6724 61.848 29.3204 62.136C28.9631 62.424 28.7844 62.848 28.7844 63.408C28.7844 64.1013 29.0111 64.616 29.4644 64.952C29.9124 65.288 30.5071 65.4853 31.2484 65.544V61.752C31.0671 61.72 30.9124 61.704 30.7844 61.704Z" fill="black"/>
</svg>
