<svg width="50" height="70" viewBox="0 0 50 70" fill="none" xmlns="http://www.w3.org/2000/svg">
<rect x="1" y="0.5" width="48" height="69" fill="#8B4513" stroke="black"/>
<path d="M38.0996 5.5C42.4627 5.5 46 9.03734 46 13.4004V31.4004C45.9998 49.6807 31.1807 64.4998 12.9004 64.5C8.53734 64.5 5 60.9627 5 56.5996V38.5996C5.00021 20.3193 19.8193 5.50021 38.0996 5.5Z" fill="#F6F8FF" stroke="black"/>
<path d="M3.492 9.048C3.39067 9.048 3.3 9.008 3.22 8.928C3.14 8.848 3.1 8.75733 3.1 8.656L3.108 3.992C3.108 3.88533 3.14267 3.79467 3.212 3.72C3.28667 3.64 3.38 3.6 3.492 3.6C3.556 3.6 3.61733 3.616 3.676 3.648C3.73467 3.67467 3.78267 3.71467 3.82 3.768L6.324 7.392V3.992C6.324 3.88533 6.36133 3.792 6.436 3.712C6.516 3.632 6.612 3.592 6.724 3.592C6.83067 3.592 6.92133 3.632 6.996 3.712C7.076 3.792 7.116 3.88533 7.116 3.992V8.656C7.116 8.768 7.07867 8.86133 7.004 8.936C6.92933 9.01067 6.836 9.048 6.724 9.048C6.66533 9.048 6.604 9.032 6.54 9C6.48133 8.968 6.43333 8.92533 6.396 8.872L3.9 5.264L3.892 8.656C3.892 8.768 3.852 8.86133 3.772 8.936C3.69733 9.01067 3.604 9.048 3.492 9.048ZM10.1108 9.048C9.71608 9.048 9.36142 8.93867 9.04675 8.72C8.73208 8.496 8.48408 8.192 8.30275 7.808C8.12675 7.424 8.03875 6.99467 8.03875 6.52C8.03875 5.98133 8.14808 5.488 8.36675 5.04C8.58542 4.592 8.87608 4.24 9.23875 3.984C9.60675 3.72267 10.0014 3.592 10.4228 3.592C10.8174 3.592 11.1721 3.70133 11.4868 3.92C11.8068 4.13867 12.0548 4.44 12.2308 4.824C12.4121 5.208 12.5028 5.64 12.5028 6.12C12.5028 6.664 12.3934 7.16 12.1748 7.608C11.9561 8.05067 11.6628 8.40267 11.2948 8.664C10.9321 8.92 10.5374 9.048 10.1108 9.048ZM10.1108 8.288C10.3988 8.288 10.6628 8.19733 10.9028 8.016C11.1481 7.83467 11.3428 7.58133 11.4868 7.256C11.6308 6.93067 11.7028 6.56267 11.7028 6.152C11.7028 5.77867 11.6388 5.456 11.5108 5.184C11.3881 4.912 11.2228 4.70667 11.0148 4.568C10.8121 4.424 10.5988 4.352 10.3748 4.352C10.0974 4.352 9.84142 4.44533 9.60675 4.632C9.37208 4.81867 9.18542 5.07733 9.04675 5.408C8.90808 5.73333 8.83875 6.104 8.83875 6.52C8.83875 6.89333 8.89742 7.21333 9.01475 7.48C9.13208 7.74667 9.28675 7.94933 9.47875 8.088C9.67608 8.22133 9.88675 8.288 10.1108 8.288ZM13.8123 9.048C13.7003 9.048 13.607 9.01067 13.5323 8.936C13.4576 8.86133 13.4203 8.768 13.4203 8.656V4.072C13.4203 3.928 13.4336 3.824 13.4603 3.76C13.4923 3.696 13.551 3.65333 13.6363 3.632C13.727 3.60533 13.8683 3.592 14.0603 3.592H14.3883C15.2843 3.592 15.975 3.74133 16.4603 4.04C16.9456 4.33867 17.1883 4.75733 17.1883 5.296C17.1883 5.97867 16.7936 6.496 16.0043 6.848C16.5696 7.296 17.0123 7.83733 17.3323 8.472C17.359 8.52533 17.3723 8.58667 17.3723 8.656C17.3723 8.76267 17.335 8.856 17.2603 8.936C17.191 9.01067 17.0976 9.048 16.9803 9.048C16.831 9.048 16.7136 8.97867 16.6283 8.84C15.9243 7.72 15.295 7.16 14.7403 7.16C14.575 7.16 14.3963 7.176 14.2043 7.208V8.656C14.2043 8.768 14.1643 8.86133 14.0843 8.936C14.0096 9.01067 13.919 9.048 13.8123 9.048ZM14.2043 6.472C14.7803 6.43467 15.2896 6.31733 15.7323 6.12C16.175 5.92267 16.3963 5.648 16.3963 5.296C16.3963 4.992 16.2176 4.76 15.8603 4.6C15.5083 4.44 15.0096 4.36 14.3643 4.36H14.2043V6.472Z" fill="black"/>
<path d="M15 27C18 33 18 37 15 43H18C22.4 43 26 40.7 29.6 36.7C30.15 37.5 31.04 38 32 38C32.7956 38 33.5587 37.6839 34.1213 37.1213C34.6839 36.5587 35 35.7956 35 35C35 34.2044 34.6839 33.4413 34.1213 32.8787C33.5587 32.3161 32.7956 32 32 32C31.04 32 30.15 32.5 29.6 33.3C26 29.3 22.4 27 18 27H15ZM18 29C21.8 29 25 31.1 28.3 35C25 38.9 21.8 41 18 41C19.5 37 19.5 33 18 29ZM32 34C32.5 34 33 34.5 33 35C33 35.5 32.5 36 32 36C31.7348 36 31.4804 35.8946 31.2929 35.7071C31.1054 35.5196 31 35.2652 31 35C31 34.5 31.5 34 32 34Z" fill="black"/>
<path d="M46.508 60.952C46.6093 60.952 46.7 60.992 46.78 61.072C46.86 61.152 46.9 61.2427 46.9 61.344L46.892 66.008C46.892 66.1147 46.8573 66.2053 46.788 66.28C46.7133 66.36 46.62 66.4 46.508 66.4C46.444 66.4 46.3827 66.384 46.324 66.352C46.2653 66.3253 46.2173 66.2853 46.18 66.232L43.676 62.608V66.008C43.676 66.1147 43.6387 66.208 43.564 66.288C43.484 66.368 43.388 66.408 43.276 66.408C43.1693 66.408 43.0787 66.368 43.004 66.288C42.924 66.208 42.884 66.1147 42.884 66.008V61.344C42.884 61.232 42.9213 61.1387 42.996 61.064C43.0707 60.9893 43.164 60.952 43.276 60.952C43.3347 60.952 43.396 60.968 43.46 61C43.5187 61.032 43.5667 61.0747 43.604 61.128L46.1 64.736L46.108 61.344C46.108 61.232 46.148 61.1387 46.228 61.064C46.3027 60.9893 46.396 60.952 46.508 60.952ZM39.8892 60.952C40.2839 60.952 40.6386 61.0613 40.9532 61.28C41.2679 61.504 41.5159 61.808 41.6972 62.192C41.8732 62.576 41.9612 63.0053 41.9612 63.48C41.9612 64.0187 41.8519 64.512 41.6332 64.96C41.4146 65.408 41.1239 65.76 40.7612 66.016C40.3932 66.2773 39.9986 66.408 39.5772 66.408C39.1826 66.408 38.8279 66.2987 38.5132 66.08C38.1932 65.8613 37.9452 65.56 37.7692 65.176C37.5879 64.792 37.4972 64.36 37.4972 63.88C37.4972 63.336 37.6066 62.84 37.8252 62.392C38.0439 61.9493 38.3372 61.5973 38.7052 61.336C39.0679 61.08 39.4626 60.952 39.8892 60.952ZM39.8892 61.712C39.6012 61.712 39.3372 61.8027 39.0972 61.984C38.8519 62.1653 38.6572 62.4187 38.5132 62.744C38.3692 63.0693 38.2972 63.4373 38.2972 63.848C38.2972 64.2213 38.3612 64.544 38.4892 64.816C38.6119 65.088 38.7772 65.2933 38.9852 65.432C39.1879 65.576 39.4012 65.648 39.6252 65.648C39.9026 65.648 40.1586 65.5547 40.3932 65.368C40.6279 65.1813 40.8146 64.9227 40.9532 64.592C41.0919 64.2667 41.1612 63.896 41.1612 63.48C41.1612 63.1067 41.1026 62.7867 40.9852 62.52C40.8679 62.2533 40.7132 62.0507 40.5212 61.912C40.3239 61.7787 40.1132 61.712 39.8892 61.712ZM36.1877 60.952C36.2997 60.952 36.393 60.9893 36.4677 61.064C36.5424 61.1387 36.5797 61.232 36.5797 61.344V65.928C36.5797 66.072 36.5664 66.176 36.5397 66.24C36.5077 66.304 36.449 66.3467 36.3637 66.368C36.273 66.3947 36.1317 66.408 35.9397 66.408H35.6117C34.7157 66.408 34.025 66.2587 33.5397 65.96C33.0544 65.6613 32.8117 65.2427 32.8117 64.704C32.8117 64.0213 33.2064 63.504 33.9957 63.152C33.4304 62.704 32.9877 62.1627 32.6677 61.528C32.641 61.4747 32.6277 61.4133 32.6277 61.344C32.6277 61.2373 32.665 61.144 32.7397 61.064C32.809 60.9893 32.9024 60.952 33.0197 60.952C33.169 60.952 33.2864 61.0213 33.3717 61.16C34.0757 62.28 34.705 62.84 35.2597 62.84C35.425 62.84 35.6037 62.824 35.7957 62.792V61.344C35.7957 61.232 35.8357 61.1387 35.9157 61.064C35.9904 60.9893 36.081 60.952 36.1877 60.952ZM35.7957 63.528C35.2197 63.5653 34.7104 63.6827 34.2677 63.88C33.825 64.0773 33.6037 64.352 33.6037 64.704C33.6037 65.008 33.7824 65.24 34.1397 65.4C34.4917 65.56 34.9904 65.64 35.6357 65.64H35.7957V63.528Z" fill="black"/>
</svg>
