<svg width="50" height="70" viewBox="0 0 50 70" fill="none" xmlns="http://www.w3.org/2000/svg">
<rect x="1" y="0.5" width="48" height="69" fill="#3CB371" stroke="black"/>
<path d="M38.0996 5.5C42.4627 5.5 46 9.03734 46 13.4004V31.4004C45.9998 49.6807 31.1807 64.4998 12.9004 64.5C8.53734 64.5 5 60.9627 5 56.5996V38.5996C5.00021 20.3193 19.8193 5.50021 38.0996 5.5Z" fill="#F6F8FF" stroke="black"/>
<path d="M4.892 9.048C4.49733 9.048 4.14267 8.93867 3.828 8.72C3.51333 8.496 3.26533 8.192 3.084 7.808C2.908 7.424 2.82 6.99467 2.82 6.52C2.82 5.98133 2.92933 5.488 3.148 5.04C3.36667 4.592 3.65733 4.24 4.02 3.984C4.388 3.72267 4.78267 3.592 5.204 3.592C5.59867 3.592 5.95333 3.70133 6.268 3.92C6.588 4.13867 6.836 4.44 7.012 4.824C7.19333 5.208 7.284 5.64 7.284 6.12C7.284 6.664 7.17467 7.16 6.956 7.608C6.73733 8.05067 6.444 8.40267 6.076 8.664C5.71333 8.92 5.31867 9.048 4.892 9.048ZM4.892 8.288C5.18 8.288 5.444 8.19733 5.684 8.016C5.92933 7.83467 6.124 7.58133 6.268 7.256C6.412 6.93067 6.484 6.56267 6.484 6.152C6.484 5.77867 6.42 5.456 6.292 5.184C6.16933 4.912 6.004 4.70667 5.796 4.568C5.59333 4.424 5.38 4.352 5.156 4.352C4.87867 4.352 4.62267 4.44533 4.388 4.632C4.15333 4.81867 3.96667 5.07733 3.828 5.408C3.68933 5.73333 3.62 6.104 3.62 6.52C3.62 6.89333 3.67867 7.21333 3.796 7.48C3.91333 7.74667 4.068 7.94933 4.26 8.088C4.45733 8.22133 4.668 8.288 4.892 8.288ZM8.59356 9.048C8.48156 9.048 8.38823 9.01067 8.31356 8.936C8.2389 8.86133 8.20156 8.768 8.20156 8.656V4.072C8.20156 3.928 8.2149 3.824 8.24156 3.76C8.27356 3.696 8.33223 3.65333 8.41756 3.632C8.50823 3.60533 8.64956 3.592 8.84156 3.592H9.16956C10.0656 3.592 10.7562 3.74133 11.2416 4.04C11.7269 4.33867 11.9696 4.75733 11.9696 5.296C11.9696 5.97867 11.5749 6.496 10.7856 6.848C11.3509 7.296 11.7936 7.83733 12.1136 8.472C12.1402 8.52533 12.1536 8.58667 12.1536 8.656C12.1536 8.76267 12.1162 8.856 12.0416 8.936C11.9722 9.01067 11.8789 9.048 11.7616 9.048C11.6122 9.048 11.4949 8.97867 11.4096 8.84C10.7056 7.72 10.0762 7.16 9.52156 7.16C9.35623 7.16 9.17756 7.176 8.98556 7.208V8.656C8.98556 8.768 8.94556 8.86133 8.86556 8.936C8.7909 9.01067 8.70023 9.048 8.59356 9.048ZM8.98556 6.472C9.56156 6.43467 10.0709 6.31733 10.5136 6.12C10.9562 5.92267 11.1776 5.648 11.1776 5.296C11.1776 4.992 10.9989 4.76 10.6416 4.6C10.2896 4.44 9.7909 4.36 9.14556 4.36H8.98556V6.472Z" fill="black"/>
<path d="M15 27C18 33 18 37 15 43H21C26 43 32 39 35 35C32 31 26 27 21 27H15ZM18 29H21C24.5 29 29.3 32 32.3 35C29.3 38 24.5 41 21 41H18C19.4 36.9 19.4 33.1 18 29Z" fill="black"/>
<path d="M45.108 60.952C45.5027 60.952 45.8573 61.0613 46.172 61.28C46.4867 61.504 46.7347 61.808 46.916 62.192C47.092 62.576 47.18 63.0053 47.18 63.48C47.18 64.0187 47.0707 64.512 46.852 64.96C46.6333 65.408 46.3427 65.76 45.98 66.016C45.612 66.2773 45.2173 66.408 44.796 66.408C44.4013 66.408 44.0467 66.2987 43.732 66.08C43.412 65.8613 43.164 65.56 42.988 65.176C42.8067 64.792 42.716 64.36 42.716 63.88C42.716 63.336 42.8253 62.84 43.044 62.392C43.2627 61.9493 43.556 61.5973 43.924 61.336C44.2867 61.08 44.6813 60.952 45.108 60.952ZM45.108 61.712C44.82 61.712 44.556 61.8027 44.316 61.984C44.0707 62.1653 43.876 62.4187 43.732 62.744C43.588 63.0693 43.516 63.4373 43.516 63.848C43.516 64.2213 43.58 64.544 43.708 64.816C43.8307 65.088 43.996 65.2933 44.204 65.432C44.4067 65.576 44.62 65.648 44.844 65.648C45.1213 65.648 45.3773 65.5547 45.612 65.368C45.8467 65.1813 46.0333 64.9227 46.172 64.592C46.3107 64.2667 46.38 63.896 46.38 63.48C46.38 63.1067 46.3213 62.7867 46.204 62.52C46.0867 62.2533 45.932 62.0507 45.74 61.912C45.5427 61.7787 45.332 61.712 45.108 61.712ZM41.4064 60.952C41.5184 60.952 41.6118 60.9893 41.6864 61.064C41.7611 61.1387 41.7984 61.232 41.7984 61.344V65.928C41.7984 66.072 41.7851 66.176 41.7584 66.24C41.7264 66.304 41.6678 66.3467 41.5824 66.368C41.4918 66.3947 41.3504 66.408 41.1584 66.408H40.8304C39.9344 66.408 39.2438 66.2587 38.7584 65.96C38.2731 65.6613 38.0304 65.2427 38.0304 64.704C38.0304 64.0213 38.4251 63.504 39.2144 63.152C38.6491 62.704 38.2064 62.1627 37.8864 61.528C37.8598 61.4747 37.8464 61.4133 37.8464 61.344C37.8464 61.2373 37.8838 61.144 37.9584 61.064C38.0278 60.9893 38.1211 60.952 38.2384 60.952C38.3878 60.952 38.5051 61.0213 38.5904 61.16C39.2944 62.28 39.9238 62.84 40.4784 62.84C40.6438 62.84 40.8224 62.824 41.0144 62.792V61.344C41.0144 61.232 41.0544 61.1387 41.1344 61.064C41.2091 60.9893 41.2998 60.952 41.4064 60.952ZM41.0144 63.528C40.4384 63.5653 39.9291 63.6827 39.4864 63.88C39.0438 64.0773 38.8224 64.352 38.8224 64.704C38.8224 65.008 39.0011 65.24 39.3584 65.4C39.7104 65.56 40.2091 65.64 40.8544 65.64H41.0144V63.528Z" fill="black"/>
</svg>
