<svg width="50" height="70" viewBox="0 0 50 70" fill="none" xmlns="http://www.w3.org/2000/svg">
<rect x="1" y="0.5" width="48" height="69" fill="#FFD700" stroke="black"/>
<path d="M38.0996 5.5C42.4627 5.5 46 9.03734 46 13.4004V31.4004C45.9998 49.6807 31.1807 64.4998 12.9004 64.5C8.53734 64.5 5 60.9627 5 56.5996V38.5996C5.00021 20.3193 19.8193 5.50021 38.0996 5.5Z" fill="#F6F8FF" stroke="black"/>
<path d="M3.284 9.048C3.16667 9.048 3.07067 9.01067 2.996 8.936C2.92133 8.856 2.884 8.76267 2.884 8.656C2.884 8.61333 2.892 8.568 2.908 8.52C2.924 8.46667 2.94533 8.42667 2.972 8.4L4.756 6.28L3.132 4.24C3.068 4.15467 3.036 4.072 3.036 3.992C3.036 3.88533 3.076 3.79467 3.156 3.72C3.24133 3.64 3.33733 3.6 3.444 3.6C3.56667 3.6 3.668 3.648 3.748 3.744L5.276 5.656L6.884 3.744C6.92133 3.696 6.96667 3.66133 7.02 3.64C7.07867 3.61333 7.13467 3.6 7.188 3.6C7.29467 3.6 7.388 3.64 7.468 3.72C7.548 3.8 7.588 3.89067 7.588 3.992C7.588 4.08267 7.556 4.168 7.492 4.248L5.78 6.288L7.468 8.416C7.516 8.47467 7.54 8.55467 7.54 8.656C7.54 8.76267 7.50267 8.856 7.428 8.936C7.35333 9.01067 7.26267 9.048 7.156 9.048C7.028 9.048 6.924 9 6.844 8.904L5.252 6.92L3.58 8.904C3.5 9 3.40133 9.048 3.284 9.048ZM10.5483 9.048C10.1536 9.048 9.79892 8.93867 9.48425 8.72C9.16958 8.496 8.92158 8.192 8.74025 7.808C8.56425 7.424 8.47625 6.99467 8.47625 6.52C8.47625 5.98133 8.58558 5.488 8.80425 5.04C9.02292 4.592 9.31358 4.24 9.67625 3.984C10.0443 3.72267 10.4389 3.592 10.8603 3.592C11.2549 3.592 11.6096 3.70133 11.9243 3.92C12.2443 4.13867 12.4923 4.44 12.6683 4.824C12.8496 5.208 12.9403 5.64 12.9403 6.12C12.9403 6.664 12.8309 7.16 12.6123 7.608C12.3936 8.05067 12.1003 8.40267 11.7323 8.664C11.3696 8.92 10.9749 9.048 10.5483 9.048ZM10.5483 8.288C10.8363 8.288 11.1003 8.19733 11.3403 8.016C11.5856 7.83467 11.7803 7.58133 11.9243 7.256C12.0683 6.93067 12.1403 6.56267 12.1403 6.152C12.1403 5.77867 12.0763 5.456 11.9483 5.184C11.8256 4.912 11.6603 4.70667 11.4523 4.568C11.2496 4.424 11.0363 4.352 10.8123 4.352C10.5349 4.352 10.2789 4.44533 10.0443 4.632C9.80958 4.81867 9.62292 5.07733 9.48425 5.408C9.34558 5.73333 9.27625 6.104 9.27625 6.52C9.27625 6.89333 9.33492 7.21333 9.45225 7.48C9.56958 7.74667 9.72425 7.94933 9.91625 8.088C10.1136 8.22133 10.3243 8.288 10.5483 8.288ZM14.2498 9.048C14.1378 9.048 14.0445 9.01067 13.9698 8.936C13.8951 8.86133 13.8578 8.768 13.8578 8.656V4.072C13.8578 3.928 13.8711 3.824 13.8978 3.76C13.9298 3.696 13.9885 3.65333 14.0738 3.632C14.1645 3.60533 14.3058 3.592 14.4978 3.592H14.8258C15.7218 3.592 16.4125 3.74133 16.8978 4.04C17.3831 4.33867 17.6258 4.75733 17.6258 5.296C17.6258 5.97867 17.2311 6.496 16.4418 6.848C17.0071 7.296 17.4498 7.83733 17.7698 8.472C17.7965 8.52533 17.8098 8.58667 17.8098 8.656C17.8098 8.76267 17.7725 8.856 17.6978 8.936C17.6285 9.01067 17.5351 9.048 17.4178 9.048C17.2685 9.048 17.1511 8.97867 17.0658 8.84C16.3618 7.72 15.7325 7.16 15.1778 7.16C15.0125 7.16 14.8338 7.176 14.6418 7.208V8.656C14.6418 8.768 14.6018 8.86133 14.5218 8.936C14.4471 9.01067 14.3565 9.048 14.2498 9.048ZM14.6418 6.472C15.2178 6.43467 15.7271 6.31733 16.1698 6.12C16.6125 5.92267 16.8338 5.648 16.8338 5.296C16.8338 4.992 16.6551 4.76 16.2978 4.6C15.9458 4.44 15.4471 4.36 14.8018 4.36H14.6418V6.472Z" fill="black"/>
<path d="M15 27C18 33 18 37 15 43H17C20 37 20 33 17.1 27H15ZM19 27C22 33 22 37 19 43H22C27 43 31 40 35 35C31 30 27 27 22 27H19ZM22 29C25.8 29 29 31.1 32.3 35C28.9 38.9 25.8 41 22 41C23.5 37 23.5 33 22 29Z" fill="black"/>
<path d="M46.716 60.952C46.8333 60.952 46.9293 60.9893 47.004 61.064C47.0787 61.144 47.116 61.2373 47.116 61.344C47.116 61.3867 47.108 61.432 47.092 61.48C47.076 61.5333 47.0547 61.5733 47.028 61.6L45.244 63.72L46.868 65.76C46.932 65.8453 46.964 65.928 46.964 66.008C46.964 66.1147 46.924 66.2053 46.844 66.28C46.7587 66.36 46.6627 66.4 46.556 66.4C46.4333 66.4 46.332 66.352 46.252 66.256L44.724 64.344L43.116 66.256C43.0787 66.304 43.0333 66.3387 42.98 66.36C42.9213 66.3867 42.8653 66.4 42.812 66.4C42.7053 66.4 42.612 66.36 42.532 66.28C42.452 66.2 42.412 66.1093 42.412 66.008C42.412 65.9173 42.444 65.832 42.508 65.752L44.22 63.712L42.532 61.584C42.484 61.5253 42.46 61.4453 42.46 61.344C42.46 61.2373 42.4973 61.144 42.572 61.064C42.6467 60.9893 42.7373 60.952 42.844 60.952C42.972 60.952 43.076 61 43.156 61.096L44.748 63.08L46.42 61.096C46.5 61 46.5987 60.952 46.716 60.952ZM39.4517 60.952C39.8464 60.952 40.2011 61.0613 40.5157 61.28C40.8304 61.504 41.0784 61.808 41.2597 62.192C41.4357 62.576 41.5237 63.0053 41.5237 63.48C41.5237 64.0187 41.4144 64.512 41.1957 64.96C40.9771 65.408 40.6864 65.76 40.3237 66.016C39.9557 66.2773 39.5611 66.408 39.1397 66.408C38.7451 66.408 38.3904 66.2987 38.0757 66.08C37.7557 65.8613 37.5077 65.56 37.3317 65.176C37.1504 64.792 37.0597 64.36 37.0597 63.88C37.0597 63.336 37.1691 62.84 37.3877 62.392C37.6064 61.9493 37.8997 61.5973 38.2677 61.336C38.6304 61.08 39.0251 60.952 39.4517 60.952ZM39.4517 61.712C39.1637 61.712 38.8997 61.8027 38.6597 61.984C38.4144 62.1653 38.2197 62.4187 38.0757 62.744C37.9317 63.0693 37.8597 63.4373 37.8597 63.848C37.8597 64.2213 37.9237 64.544 38.0517 64.816C38.1744 65.088 38.3397 65.2933 38.5477 65.432C38.7504 65.576 38.9637 65.648 39.1877 65.648C39.4651 65.648 39.7211 65.5547 39.9557 65.368C40.1904 65.1813 40.3771 64.9227 40.5157 64.592C40.6544 64.2667 40.7237 63.896 40.7237 63.48C40.7237 63.1067 40.6651 62.7867 40.5477 62.52C40.4304 62.2533 40.2757 62.0507 40.0837 61.912C39.8864 61.7787 39.6757 61.712 39.4517 61.712ZM35.7502 60.952C35.8622 60.952 35.9555 60.9893 36.0302 61.064C36.1049 61.1387 36.1422 61.232 36.1422 61.344V65.928C36.1422 66.072 36.1289 66.176 36.1022 66.24C36.0702 66.304 36.0115 66.3467 35.9262 66.368C35.8355 66.3947 35.6942 66.408 35.5022 66.408H35.1742C34.2782 66.408 33.5875 66.2587 33.1022 65.96C32.6169 65.6613 32.3742 65.2427 32.3742 64.704C32.3742 64.0213 32.7689 63.504 33.5582 63.152C32.9929 62.704 32.5502 62.1627 32.2302 61.528C32.2035 61.4747 32.1902 61.4133 32.1902 61.344C32.1902 61.2373 32.2275 61.144 32.3022 61.064C32.3715 60.9893 32.4649 60.952 32.5822 60.952C32.7315 60.952 32.8489 61.0213 32.9342 61.16C33.6382 62.28 34.2675 62.84 34.8222 62.84C34.9875 62.84 35.1662 62.824 35.3582 62.792V61.344C35.3582 61.232 35.3982 61.1387 35.4782 61.064C35.5529 60.9893 35.6435 60.952 35.7502 60.952ZM35.3582 63.528C34.7822 63.5653 34.2729 63.6827 33.8302 63.88C33.3875 64.0773 33.1662 64.352 33.1662 64.704C33.1662 65.008 33.3449 65.24 33.7022 65.4C34.0542 65.56 34.5529 65.64 35.1982 65.64H35.3582V63.528Z" fill="black"/>
</svg>
