<svg width="26" height="26" viewBox="0 0 26 26" fill="none" xmlns="http://www.w3.org/2000/svg">
<path d="M13.8125 2.4375C13.8125 2.22201 13.7269 2.01535 13.5745 1.86298C13.4222 1.7106 13.2155 1.625 13 1.625C12.7845 1.625 12.5778 1.7106 12.4255 1.86298C12.2731 2.01535 12.1875 2.22201 12.1875 2.4375V3.25H8.32812C7.62779 3.25 6.95613 3.52821 6.46092 4.02342C5.96571 4.51863 5.6875 5.19029 5.6875 5.89062V10.3594C5.6875 11.0597 5.96571 11.7314 6.46092 12.2266C6.95613 12.7218 7.62779 13 8.32812 13H17.6719C18.3722 13 19.0439 12.7218 19.5391 12.2266C20.0343 11.7314 20.3125 11.0597 20.3125 10.3594V5.89062C20.3125 5.19029 20.0343 4.51863 19.5391 4.02342C19.0439 3.52821 18.3722 3.25 17.6719 3.25H13.8125V2.4375ZM6.70312 15.4375C6.00279 15.4375 5.33113 15.7157 4.83592 16.2109C4.34071 16.7061 4.0625 17.3778 4.0625 18.0781V18.4438C4.0625 20.2069 4.93756 21.7287 6.51056 22.776C8.06 23.8079 10.2651 24.375 13 24.375C15.7349 24.375 17.94 23.8079 19.4894 22.776C21.0624 21.7279 21.9375 20.2077 21.9375 18.4438V18.0781C21.9375 17.3778 21.6593 16.7061 21.1641 16.2109C20.6689 15.7157 19.9972 15.4375 19.2969 15.4375H6.70312ZM10.1562 9.54688C9.96953 9.54688 9.78463 9.5101 9.61212 9.43864C9.43961 9.36719 9.28287 9.26245 9.15083 9.13042C9.0188 8.99838 8.91406 8.84164 8.84261 8.66913C8.77115 8.49662 8.73438 8.31172 8.73438 8.125C8.73438 7.93828 8.77115 7.75338 8.84261 7.58087C8.91406 7.40836 9.0188 7.25162 9.15083 7.11958C9.28287 6.98755 9.43961 6.88281 9.61212 6.81136C9.78463 6.7399 9.96953 6.70312 10.1562 6.70312C10.5334 6.70312 10.895 6.85293 11.1617 7.11958C11.4283 7.38624 11.5781 7.7479 11.5781 8.125C11.5781 8.5021 11.4283 8.86376 11.1617 9.13042C10.895 9.39707 10.5334 9.54688 10.1562 9.54688ZM17.2656 8.125C17.2656 8.5021 17.1158 8.86376 16.8492 9.13042C16.5825 9.39707 16.2209 9.54688 15.8438 9.54688C15.4666 9.54688 15.105 9.39707 14.8383 9.13042C14.5717 8.86376 14.4219 8.5021 14.4219 8.125C14.4219 7.7479 14.5717 7.38624 14.8383 7.11958C15.105 6.85293 15.4666 6.70312 15.8438 6.70312C16.2209 6.70312 16.5825 6.85293 16.8492 7.11958C17.1158 7.38624 17.2656 7.7479 17.2656 8.125Z" fill="black"/>
</svg>
