<svg width="24" height="24" viewBox="0 0 24 24" fill="none" xmlns="http://www.w3.org/2000/svg">
<path d="M21.4699 4.35L20.1299 3.79V12.82L22.5599 6.96C22.9699 5.94 22.4999 4.77 21.4699 4.35ZM1.96988 8.05L6.92988 20C7.07594 20.3636 7.32507 20.6765 7.64665 20.9004C7.96822 21.1243 8.34821 21.2493 8.73988 21.26C8.99988 21.26 9.26988 21.21 9.52988 21.1L16.8999 18.05C17.6499 17.74 18.1099 17 18.1299 16.26C18.1399 16 18.0899 15.71 17.9999 15.45L12.9999 3.5C12.859 3.1337 12.6109 2.81844 12.288 2.59542C11.965 2.37241 11.5823 2.25202 11.1899 2.25C10.9299 2.25 10.6699 2.31 10.4199 2.4L3.05988 5.45C2.57065 5.65035 2.181 6.03678 1.9766 6.52433C1.7722 7.01189 1.76978 7.56066 1.96988 8.05ZM18.1199 4.25C18.1199 3.71957 17.9092 3.21086 17.5341 2.83579C17.159 2.46071 16.6503 2.25 16.1199 2.25H14.6699L18.1199 10.59" fill="#F6F8FF"/>
</svg>
