<svg width="27" height="26" viewBox="0 0 27 26" fill="none" xmlns="http://www.w3.org/2000/svg">
<path d="M8.21875 13C10.238 13 11.875 11.363 11.875 9.34375C11.875 7.32446 10.238 5.6875 8.21875 5.6875C6.19946 5.6875 4.5625 7.32446 4.5625 9.34375C4.5625 11.363 6.19946 13 8.21875 13Z" fill="black"/>
<path d="M12.3828 15.0312C10.9528 14.3051 9.37453 14.0156 8.21875 14.0156C5.95492 14.0156 1.3125 15.404 1.3125 18.1797V20.3125H8.92969V19.4964C8.92969 18.5316 9.33594 17.5642 10.0469 16.7578C10.6141 16.1139 11.4083 15.5162 12.3828 15.0312Z" fill="black"/>
<path d="M17.7656 14.625C15.1214 14.625 9.84375 16.2581 9.84375 19.5V21.9375H25.6875V19.5C25.6875 16.2581 20.4098 14.625 17.7656 14.625Z" fill="black"/>
<path d="M17.7656 13C20.2336 13 22.2344 10.9993 22.2344 8.53125C22.2344 6.06323 20.2336 4.0625 17.7656 4.0625C15.2976 4.0625 13.2969 6.06323 13.2969 8.53125C13.2969 10.9993 15.2976 13 17.7656 13Z" fill="black"/>
</svg>
