<svg width="18" height="19" viewBox="0 0 18 19" fill="none" xmlns="http://www.w3.org/2000/svg">
<g clip-path="url(#clip0_1560_1218)">
<path fill-rule="evenodd" clip-rule="evenodd" d="M14.6666 0.564233C14.8207 0.628099 14.9525 0.736259 15.0453 0.875033C15.138 1.01381 15.1874 1.17696 15.1874 1.34386V3.31261H17.1562C17.3229 3.31275 17.4859 3.36232 17.6245 3.45504C17.7632 3.54776 17.8712 3.67949 17.935 3.83357C17.9988 3.98765 18.0155 4.15719 17.983 4.32076C17.9505 4.48434 17.8703 4.63461 17.7524 4.75261L14.3774 8.12761C14.2193 8.28589 14.0049 8.37491 13.7812 8.37511H13.3571C13.5805 9.2405 13.5411 10.1528 13.244 10.9957C12.9469 11.8387 12.4055 12.5741 11.6889 13.1081C10.9723 13.6422 10.1128 13.9508 9.22012 13.9945C8.32743 14.0383 7.44193 13.8152 6.67652 13.3537C5.9111 12.8923 5.30042 12.2133 4.92235 11.4035C4.54427 10.5936 4.41592 9.68954 4.55364 8.80645C4.69137 7.92337 5.08895 7.1013 5.69568 6.44504C6.30242 5.78878 7.09084 5.32806 7.96043 5.12161C8.17824 5.06984 8.40769 5.10672 8.59831 5.22413C8.78893 5.34154 8.9251 5.52986 8.97686 5.74767C9.02863 5.96548 8.99175 6.19493 8.87434 6.38555C8.75693 6.57617 8.56861 6.71234 8.3508 6.76411C7.78859 6.89723 7.28102 7.20027 6.8971 7.63202C6.51318 8.06377 6.27154 8.60328 6.20503 9.17719C6.13853 9.75111 6.25039 10.3316 6.5254 10.8397C6.80041 11.3478 7.22523 11.7589 7.7421 12.017C8.25897 12.2752 8.84281 12.3679 9.41423 12.2826C9.98565 12.1973 10.5169 11.938 10.9358 11.5401C11.3547 11.1422 11.6409 10.6249 11.7555 10.0587C11.8701 9.49238 11.8074 8.90456 11.5762 8.37511H11.3174L9.59618 10.0964C9.51893 10.1793 9.42578 10.2457 9.32228 10.2919C9.21878 10.338 9.10705 10.3628 8.99376 10.3648C8.88047 10.3668 8.76794 10.3459 8.66288 10.3035C8.55782 10.2611 8.46238 10.1979 8.38226 10.1178C8.30214 10.0377 8.23897 9.94222 8.19654 9.83716C8.1541 9.73209 8.13326 9.61956 8.13526 9.50627C8.13726 9.39298 8.16206 9.28125 8.20817 9.17775C8.25429 9.07425 8.32078 8.9811 8.40368 8.90386L10.1249 7.18261V4.71886C10.1251 4.49516 10.2141 4.28069 10.3724 4.12261L13.7474 0.747608C13.8653 0.629605 14.0156 0.549204 14.1792 0.516565C14.3428 0.483926 14.5124 0.500514 14.6666 0.564233ZM11.8124 5.06873V6.68761H13.4324L15.1199 5.00011H13.4999V3.38011L11.8124 5.06873ZM5.42243 3.12136C6.7401 2.38224 8.25436 2.06941 9.75705 2.22586C9.86726 2.23731 9.97865 2.22694 10.0849 2.19534C10.1911 2.16374 10.29 2.11153 10.376 2.0417C10.4621 1.97186 10.5335 1.88577 10.5862 1.78833C10.639 1.69088 10.672 1.58401 10.6835 1.4738C10.6949 1.36358 10.6846 1.2522 10.653 1.14599C10.6214 1.03979 10.5692 0.940847 10.4993 0.85482C10.4295 0.768792 10.3434 0.697362 10.246 0.644607C10.1485 0.591853 10.0416 0.558808 9.93143 0.547358C8.08178 0.354903 6.21793 0.740135 4.59614 1.65009C2.97434 2.56004 1.67424 3.95003 0.874584 5.62895C0.0749268 7.30788 -0.185021 9.19328 0.130481 11.026C0.445983 12.8586 1.32144 14.5486 2.63649 15.8634C3.95154 17.1783 5.64161 18.0535 7.47433 18.3688C9.30704 18.684 11.1924 18.4238 12.8712 17.6239C14.55 16.824 15.9398 15.5237 16.8496 13.9018C17.7593 12.2799 18.1443 10.416 17.9516 8.56636C17.9401 8.45615 17.9071 8.34927 17.8543 8.25183C17.8015 8.15439 17.7301 8.06829 17.6441 7.99846C17.5581 7.92862 17.4591 7.87641 17.3529 7.84481C17.2467 7.81322 17.1353 7.80285 17.0251 7.8143C16.9149 7.82575 16.808 7.85879 16.7106 7.91155C16.6131 7.9643 16.527 8.03573 16.4572 8.12176C16.3874 8.20778 16.3352 8.30673 16.3036 8.41293C16.272 8.51913 16.2616 8.63052 16.2731 8.74073C16.4101 10.0533 16.1894 11.3785 15.6343 12.5758C15.0792 13.7731 14.2104 14.7978 13.1201 15.5414C12.0298 16.2849 10.7586 16.7196 9.44131 16.7992C8.12401 16.8788 6.80971 16.6005 5.63778 15.9937C4.46585 15.3869 3.47998 14.4742 2.78471 13.3525C2.08944 12.2308 1.71068 10.9419 1.6886 9.62236C1.66652 8.30284 2.00195 7.00194 2.65931 5.8576C3.31666 4.71326 4.27145 3.76815 5.42243 3.12248V3.12136Z" fill="black"/>
</g>
<defs>
<clipPath id="clip0_1560_1218">
<rect width="18" height="18" fill="white" transform="translate(0 0.5)"/>
</clipPath>
</defs>
</svg>
