<svg width="264" height="198" viewBox="0 0 264 198" fill="none" xmlns="http://www.w3.org/2000/svg">
<rect width="264" height="198" fill="#0A0F2C"/>
<rect x="151.5" y="32.5458" width="34" height="33" rx="9.5" fill="#B28DFF"/>
<rect x="151.5" y="32.5458" width="34" height="33" rx="9.5" stroke="#5F2BCF" stroke-width="3"/>
<path d="M168.257 56.6898C167.217 56.6898 166.273 56.3458 165.425 55.6578C164.593 54.9538 163.937 54.0178 163.457 52.8498C162.993 51.6818 162.761 50.4258 162.761 49.0818C162.761 47.6258 163.025 46.2578 163.553 44.9778C164.097 43.6818 164.825 42.6498 165.737 41.8818C166.665 41.0978 167.673 40.7058 168.761 40.7058C169.801 40.7058 170.737 41.0578 171.569 41.7618C172.401 42.4498 173.049 43.3778 173.513 44.5458C173.993 45.7138 174.233 46.9778 174.233 48.3378C174.233 49.8098 173.961 51.1858 173.417 52.4658C172.889 53.7458 172.161 54.7698 171.233 55.5378C170.321 56.3058 169.329 56.6898 168.257 56.6898ZM168.257 54.3858C168.913 54.3858 169.521 54.1138 170.081 53.5698C170.657 53.0258 171.113 52.2978 171.449 51.3858C171.801 50.4578 171.977 49.4578 171.977 48.3858C171.977 47.4418 171.833 46.5618 171.545 45.7458C171.273 44.9138 170.889 44.2498 170.393 43.7538C169.897 43.2578 169.353 43.0098 168.761 43.0098C168.105 43.0098 167.489 43.2818 166.913 43.8258C166.337 44.3698 165.881 45.1058 165.545 46.0338C165.209 46.9618 165.041 47.9618 165.041 49.0338C165.041 49.9618 165.177 50.8418 165.449 51.6738C165.721 52.4898 166.105 53.1458 166.601 53.6418C167.097 54.1378 167.649 54.3858 168.257 54.3858Z" fill="black"/>
<rect x="151.5" y="144.546" width="34" height="33" rx="9.5" fill="#66B2FF"/>
<rect x="151.5" y="144.546" width="34" height="33" rx="9.5" stroke="#005FCC" stroke-width="3"/>
<path d="M166.357 168.546C166.021 168.546 165.741 168.434 165.517 168.21C165.309 167.986 165.205 167.714 165.205 167.394C165.205 167.074 165.309 166.802 165.517 166.578C165.741 166.354 166.021 166.242 166.357 166.242H167.749L167.917 156.858L167.125 157.698C166.901 157.922 166.621 158.034 166.285 158.034C165.965 158.034 165.693 157.922 165.469 157.698C165.245 157.474 165.133 157.202 165.133 156.882C165.133 156.61 165.237 156.354 165.445 156.114L168.253 153.066C168.349 152.97 168.477 152.89 168.637 152.826C168.797 152.746 168.941 152.706 169.069 152.706C169.421 152.706 169.701 152.826 169.909 153.066C170.133 153.29 170.245 153.554 170.245 153.858L170.077 166.242H171.061C171.429 166.242 171.717 166.354 171.925 166.578C172.149 166.802 172.261 167.074 172.261 167.394C172.261 167.714 172.141 167.986 171.901 168.21C171.677 168.434 171.413 168.546 171.109 168.546H166.357Z" fill="black"/>
<g filter="url(#filter0_d_1701_1520)">
<rect x="151.5" y="80.0458" width="35" height="50" fill="#828282" fill-opacity="0.5" shape-rendering="crispEdges"/>
<rect x="151" y="79.5458" width="36" height="51" stroke="#828282" shape-rendering="crispEdges"/>
</g>
<rect x="218.5" y="88.5458" width="34" height="33" rx="9.5" fill="#66B2FF"/>
<rect x="218.5" y="88.5458" width="34" height="33" rx="9.5" stroke="#005FCC" stroke-width="3"/>
<path d="M233.357 112.546C233.021 112.546 232.741 112.434 232.517 112.21C232.309 111.986 232.205 111.714 232.205 111.394C232.205 111.074 232.309 110.802 232.517 110.578C232.741 110.354 233.021 110.242 233.357 110.242H234.749L234.917 100.858L234.125 101.698C233.901 101.922 233.621 102.034 233.285 102.034C232.965 102.034 232.693 101.922 232.469 101.698C232.245 101.474 232.133 101.202 232.133 100.882C232.133 100.61 232.237 100.354 232.445 100.114L235.253 97.0658C235.349 96.9698 235.477 96.8898 235.637 96.8258C235.797 96.7458 235.941 96.7058 236.069 96.7058C236.421 96.7058 236.701 96.8258 236.909 97.0658C237.133 97.2898 237.245 97.5538 237.245 97.8578L237.077 110.242H238.061C238.429 110.242 238.717 110.354 238.925 110.578C239.149 110.802 239.261 111.074 239.261 111.394C239.261 111.714 239.141 111.986 238.901 112.21C238.677 112.434 238.413 112.546 238.109 112.546H233.357Z" fill="black"/>
<rect x="218.5" y="88.5458" width="34" height="33" rx="9.5" fill="#828282"/>
<rect x="218.5" y="88.5458" width="34" height="33" rx="9.5" stroke="#282828" stroke-width="3"/>
<rect x="14.5" y="70.5458" width="48" height="69" fill="#3CB371" stroke="black"/>
<path d="M51.5994 75.5458C55.9624 75.5458 59.4998 79.0831 59.4998 83.4462V101.446C59.4995 119.727 44.6805 134.546 26.4001 134.546C22.0371 134.546 18.4998 131.008 18.4998 126.645V108.645C18.5 90.3651 33.319 75.546 51.5994 75.5458Z" fill="#F6F8FF" stroke="black"/>
<path d="M18.3918 79.0938C17.9971 79.0938 17.6424 78.9845 17.3278 78.7658C17.0131 78.5418 16.7651 78.2378 16.5838 77.8538C16.4078 77.4698 16.3198 77.0405 16.3198 76.5658C16.3198 76.0272 16.4291 75.5338 16.6478 75.0858C16.8664 74.6378 17.1571 74.2858 17.5198 74.0298C17.8878 73.7685 18.2824 73.6378 18.7038 73.6378C19.0984 73.6378 19.4531 73.7472 19.7678 73.9658C20.0878 74.1845 20.3358 74.4858 20.5118 74.8698C20.6931 75.2538 20.7838 75.6858 20.7838 76.1658C20.7838 76.7098 20.6744 77.2058 20.4558 77.6538C20.2371 78.0965 19.9438 78.4485 19.5758 78.7098C19.2131 78.9658 18.8184 79.0938 18.3918 79.0938ZM18.3918 78.3338C18.6798 78.3338 18.9438 78.2432 19.1838 78.0618C19.4291 77.8805 19.6238 77.6272 19.7678 77.3018C19.9118 76.9765 19.9838 76.6085 19.9838 76.1978C19.9838 75.8245 19.9198 75.5018 19.7918 75.2298C19.6691 74.9578 19.5038 74.7525 19.2958 74.6138C19.0931 74.4698 18.8798 74.3978 18.6558 74.3978C18.3784 74.3978 18.1224 74.4912 17.8878 74.6778C17.6531 74.8645 17.4664 75.1232 17.3278 75.4538C17.1891 75.7792 17.1198 76.1498 17.1198 76.5658C17.1198 76.9392 17.1784 77.2592 17.2958 77.5258C17.4131 77.7925 17.5678 77.9952 17.7598 78.1338C17.9571 78.2672 18.1678 78.3338 18.3918 78.3338ZM22.0933 79.0938C21.9813 79.0938 21.888 79.0565 21.8133 78.9818C21.7387 78.9072 21.7013 78.8138 21.7013 78.7018V74.1178C21.7013 73.9738 21.7147 73.8698 21.7413 73.8058C21.7733 73.7418 21.832 73.6992 21.9173 73.6778C22.008 73.6512 22.1493 73.6378 22.3413 73.6378H22.6693C23.5653 73.6378 24.256 73.7872 24.7413 74.0858C25.2267 74.3845 25.4693 74.8032 25.4693 75.3418C25.4693 76.0245 25.0747 76.5418 24.2853 76.8938C24.8507 77.3418 25.2933 77.8832 25.6133 78.5178C25.64 78.5712 25.6533 78.6325 25.6533 78.7018C25.6533 78.8085 25.616 78.9018 25.5413 78.9818C25.472 79.0565 25.3787 79.0938 25.2613 79.0938C25.112 79.0938 24.9947 79.0245 24.9093 78.8858C24.2053 77.7658 23.576 77.2058 23.0213 77.2058C22.856 77.2058 22.6773 77.2218 22.4853 77.2538V78.7018C22.4853 78.8138 22.4453 78.9072 22.3653 78.9818C22.2907 79.0565 22.2 79.0938 22.0933 79.0938ZM22.4853 76.5178C23.0613 76.4805 23.5707 76.3632 24.0133 76.1658C24.456 75.9685 24.6773 75.6938 24.6773 75.3418C24.6773 75.0378 24.4987 74.8058 24.1413 74.6458C23.7893 74.4858 23.2907 74.4058 22.6453 74.4058H22.4853V76.5178Z" fill="black"/>
<path d="M28.5 97.046C31.5 103.046 31.5 107.046 28.5 113.046H34.5C39.5 113.046 45.5 109.046 48.5 105.046C45.5 101.046 39.5 97.046 34.5 97.046H28.5ZM31.5 99.046H34.5C38 99.046 42.8 102.046 45.8 105.046C42.8 108.046 38 111.046 34.5 111.046H31.5C32.9 106.946 32.9 103.146 31.5 99.046Z" fill="black"/>
<path d="M58.6078 130.998C59.0024 130.998 59.3571 131.107 59.6718 131.326C59.9864 131.55 60.2344 131.854 60.4158 132.238C60.5918 132.622 60.6798 133.051 60.6798 133.526C60.6798 134.065 60.5704 134.558 60.3518 135.006C60.1331 135.454 59.8424 135.806 59.4798 136.062C59.1118 136.323 58.7171 136.454 58.2958 136.454C57.9011 136.454 57.5464 136.345 57.2318 136.126C56.9118 135.907 56.6638 135.606 56.4878 135.222C56.3064 134.838 56.2158 134.406 56.2158 133.926C56.2158 133.382 56.3251 132.886 56.5438 132.438C56.7624 131.995 57.0558 131.643 57.4238 131.382C57.7864 131.126 58.1811 130.998 58.6078 130.998ZM58.6078 131.758C58.3198 131.758 58.0558 131.849 57.8158 132.03C57.5704 132.211 57.3758 132.465 57.2318 132.79C57.0878 133.115 57.0158 133.483 57.0158 133.894C57.0158 134.267 57.0798 134.59 57.2078 134.862C57.3304 135.134 57.4958 135.339 57.7038 135.478C57.9064 135.622 58.1198 135.694 58.3438 135.694C58.6211 135.694 58.8771 135.601 59.1118 135.414C59.3464 135.227 59.5331 134.969 59.6718 134.638C59.8104 134.313 59.8798 133.942 59.8798 133.526C59.8798 133.153 59.8211 132.833 59.7038 132.566C59.5864 132.299 59.4318 132.097 59.2398 131.958C59.0424 131.825 58.8318 131.758 58.6078 131.758ZM54.9062 130.998C55.0182 130.998 55.1115 131.035 55.1862 131.11C55.2609 131.185 55.2982 131.278 55.2982 131.39V135.974C55.2982 136.118 55.2849 136.222 55.2582 136.286C55.2262 136.35 55.1675 136.393 55.0822 136.414C54.9915 136.441 54.8502 136.454 54.6582 136.454H54.3302C53.4342 136.454 52.7435 136.305 52.2582 136.006C51.7729 135.707 51.5302 135.289 51.5302 134.75C51.5302 134.067 51.9249 133.55 52.7142 133.198C52.1489 132.75 51.7062 132.209 51.3862 131.574C51.3595 131.521 51.3462 131.459 51.3462 131.39C51.3462 131.283 51.3835 131.19 51.4582 131.11C51.5275 131.035 51.6209 130.998 51.7382 130.998C51.8875 130.998 52.0049 131.067 52.0902 131.206C52.7942 132.326 53.4235 132.886 53.9782 132.886C54.1435 132.886 54.3222 132.87 54.5142 132.838V131.39C54.5142 131.278 54.5542 131.185 54.6342 131.11C54.7089 131.035 54.7995 130.998 54.9062 130.998ZM54.5142 133.574C53.9382 133.611 53.4289 133.729 52.9862 133.926C52.5435 134.123 52.3222 134.398 52.3222 134.75C52.3222 135.054 52.5009 135.286 52.8582 135.446C53.2102 135.606 53.7089 135.686 54.3542 135.686H54.5142V133.574Z" fill="black"/>
<path d="M92.0003 35.5459L91.6987 37.523L92.0003 35.5459ZM138.39 75.9502C139.442 76.2872 140.568 75.7077 140.905 74.6558L146.397 57.5141C146.734 56.4622 146.154 55.3363 145.102 54.9993C144.051 54.6622 142.925 55.2418 142.588 56.2937L137.706 71.5307L122.469 66.6489C121.417 66.3118 120.291 66.8914 119.954 67.9433C119.617 68.9952 120.196 70.1211 121.248 70.4581L138.39 75.9502ZM44.9996 62.046C46.7412 63.0292 46.7409 63.0297 46.7407 63.0301C46.7407 63.0301 46.7405 63.0304 46.7405 63.0304C46.7405 63.0304 46.7408 63.0299 46.7414 63.0289C46.7425 63.0269 46.7447 63.0231 46.7479 63.0175C46.7543 63.0063 46.765 62.9877 46.7798 62.9622C46.8095 62.9111 46.8559 62.832 46.919 62.7268C47.045 62.5165 47.2373 62.2021 47.4944 61.7998C48.0088 60.9949 48.7817 59.8399 49.8018 58.4633C51.8453 55.7058 54.8646 52.0813 58.7682 48.6013C66.5919 41.6268 77.7647 35.3975 91.6987 37.523L92.0003 35.5459L92.3019 33.5688C76.7356 31.1942 64.4081 38.2149 56.1065 45.6155C51.9475 49.3231 48.7478 53.1673 46.5881 56.0817C45.5067 57.541 44.6818 58.7728 44.124 59.6456C43.8449 60.0822 43.6324 60.4295 43.4877 60.671C43.4153 60.7918 43.3599 60.8862 43.3216 60.9521C43.3024 60.9851 43.2875 61.011 43.2769 61.0295C43.2716 61.0388 43.2673 61.0462 43.2642 61.0517C43.2626 61.0545 43.2613 61.0568 43.2603 61.0587C43.2597 61.0596 43.2592 61.0606 43.2589 61.0611C43.2584 61.062 43.2579 61.0628 44.9996 62.046ZM92.0003 35.5459L91.6987 37.523C105.776 39.6705 117.135 48.8956 125.069 57.8126C129.016 62.2493 132.064 66.5531 134.124 69.747C135.153 71.3425 135.934 72.6572 136.454 73.5679C136.714 74.0232 136.909 74.3773 137.037 74.6146C137.102 74.7333 137.149 74.8228 137.18 74.8811C137.195 74.9103 137.207 74.9317 137.214 74.9451C137.217 74.9518 137.22 74.9564 137.221 74.9591C137.222 74.9604 137.222 74.9612 137.222 74.9615C137.222 74.9616 137.222 74.9615 137.222 74.9616C137.222 74.9613 137.222 74.9608 139 74.0456C140.778 73.1303 140.778 73.1296 140.778 73.1288C140.777 73.1284 140.777 73.1274 140.776 73.1265C140.776 73.1248 140.774 73.1225 140.773 73.1197C140.77 73.1141 140.766 73.1064 140.761 73.0968C140.751 73.0774 140.737 73.05 140.718 73.0147C140.681 72.9441 140.626 72.8421 140.555 72.7107C140.413 72.4478 140.203 72.067 139.927 71.5838C139.375 70.6176 138.558 69.2409 137.486 67.5787C135.343 64.257 132.172 59.7796 128.057 55.1539C119.865 45.9462 107.724 35.9214 92.3019 33.5688L92.0003 35.5459Z" fill="#E53935"/>
<defs>
<filter id="filter0_d_1701_1520" x="130.5" y="59.0458" width="77" height="92" filterUnits="userSpaceOnUse" color-interpolation-filters="sRGB">
<feFlood flood-opacity="0" result="BackgroundImageFix"/>
<feColorMatrix in="SourceAlpha" type="matrix" values="0 0 0 0 0 0 0 0 0 0 0 0 0 0 0 0 0 0 127 0" result="hardAlpha"/>
<feOffset/>
<feGaussianBlur stdDeviation="10"/>
<feComposite in2="hardAlpha" operator="out"/>
<feColorMatrix type="matrix" values="0 0 0 0 1 0 0 0 0 1 0 0 0 0 1 0 0 0 0.25 0"/>
<feBlend mode="normal" in2="BackgroundImageFix" result="effect1_dropShadow_1701_1520"/>
<feBlend mode="normal" in="SourceGraphic" in2="effect1_dropShadow_1701_1520" result="shape"/>
</filter>
</defs>
</svg>
