<svg width="265" height="198" viewBox="0 0 265 198" fill="none" xmlns="http://www.w3.org/2000/svg">
<rect x="1" width="264" height="198" fill="#0A0F2C"/>
<rect x="84.7075" y="80.939" width="33.1707" height="32.1951" rx="9.26829" fill="#B28DFF"/>
<rect x="84.7075" y="80.939" width="33.1707" height="32.1951" rx="9.26829" stroke="#5F2BCF" stroke-width="2.92683"/>
<path d="M101.056 104.177C100.041 104.177 99.1201 103.841 98.2928 103.17C97.4811 102.483 96.8411 101.57 96.3728 100.431C95.9201 99.2912 95.6938 98.0659 95.6938 96.7546C95.6938 95.3342 95.9513 93.9995 96.4664 92.7507C96.9972 91.4863 97.7074 90.4795 98.5972 89.7302C99.5025 88.9654 100.486 88.5829 101.547 88.5829C102.562 88.5829 103.475 88.9263 104.287 89.6132C105.099 90.2844 105.731 91.1898 106.184 92.3293C106.652 93.4688 106.886 94.702 106.886 96.0288C106.886 97.4649 106.621 98.8073 106.09 100.056C105.575 101.305 104.864 102.304 103.959 103.053C103.069 103.802 102.102 104.177 101.056 104.177ZM101.056 101.929C101.696 101.929 102.289 101.664 102.835 101.133C103.397 100.602 103.842 99.8922 104.17 99.0024C104.513 98.0971 104.685 97.1215 104.685 96.0756C104.685 95.1546 104.544 94.2961 104.264 93.5C103.998 92.6883 103.624 92.0405 103.14 91.5566C102.656 91.0727 102.125 90.8307 101.547 90.8307C100.907 90.8307 100.306 91.0961 99.7445 91.6268C99.1825 92.1576 98.7377 92.8756 98.4099 93.781C98.0821 94.6863 97.9182 95.662 97.9182 96.7078C97.9182 97.6132 98.0508 98.4717 98.3162 99.2834C98.5816 100.08 98.9562 100.72 99.4401 101.203C99.924 101.687 100.463 101.929 101.056 101.929Z" fill="black"/>
<g filter="url(#filter0_d_1701_1616)">
<rect x="13" y="82.4024" width="30.2439" height="29.2683" rx="7.80488" fill="#828282" shape-rendering="crispEdges"/>
<rect x="11.5366" y="80.939" width="33.1707" height="32.1951" rx="9.26829" stroke="#282828" stroke-width="2.92683" shape-rendering="crispEdges"/>
<g clip-path="url(#clip0_1701_1616)">
<path fill-rule="evenodd" clip-rule="evenodd" d="M33.6501 88.3186C33.8006 88.3809 33.9291 88.4864 34.0196 88.6218C34.1101 88.7572 34.1583 88.9164 34.1583 89.0792V90.9999H36.079C36.2417 91.0001 36.4008 91.0484 36.536 91.1389C36.6712 91.2294 36.7766 91.3579 36.8389 91.5082C36.9011 91.6585 36.9174 91.8239 36.8857 91.9835C36.854 92.1431 36.7757 92.2897 36.6607 92.4048L33.3681 95.6975C33.2138 95.8519 33.0046 95.9388 32.7864 95.939H32.3726C32.5905 96.7832 32.5521 97.6733 32.2623 98.4957C31.9724 99.3181 31.4443 100.035 30.7451 100.557C30.0459 101.078 29.2075 101.379 28.3365 101.421C27.4656 101.464 26.6017 101.246 25.855 100.796C25.1082 100.346 24.5125 99.6836 24.1436 98.8935C23.7747 98.1034 23.6495 97.2213 23.7839 96.3598C23.9183 95.4982 24.3061 94.6962 24.8981 94.056C25.49 93.4157 26.2592 92.9662 27.1076 92.7648C27.3201 92.7143 27.5439 92.7503 27.7299 92.8648C27.9159 92.9794 28.0487 93.1631 28.0992 93.3756C28.1497 93.5881 28.1138 93.812 27.9992 93.9979C27.8847 94.1839 27.7009 94.3167 27.4884 94.3673C26.9399 94.4971 26.4447 94.7928 26.0702 95.214C25.6956 95.6352 25.4599 96.1616 25.395 96.7215C25.3301 97.2814 25.4392 97.8477 25.7076 98.3434C25.9759 98.8391 26.3903 99.2402 26.8946 99.4921C27.3988 99.7439 27.9684 99.8344 28.5259 99.7511C29.0834 99.6679 29.6017 99.415 30.0104 99.0268C30.4191 98.6386 30.6983 98.1339 30.8101 97.5815C30.9218 97.029 30.8608 96.4555 30.6351 95.939H30.3827L28.7034 97.6182C28.6281 97.6991 28.5372 97.764 28.4362 97.809C28.3352 97.854 28.2262 97.8781 28.1157 97.8801C28.0052 97.882 27.8954 97.8617 27.7929 97.8203C27.6904 97.7789 27.5973 97.7173 27.5191 97.6391C27.441 97.561 27.3793 97.4678 27.3379 97.3653C27.2965 97.2628 27.2762 97.1531 27.2781 97.0425C27.2801 96.932 27.3043 96.823 27.3493 96.722C27.3943 96.6211 27.4591 96.5302 27.54 96.4548L29.2193 94.7755V92.3719C29.2195 92.1536 29.3063 91.9444 29.4607 91.7902L32.7534 88.4975C32.8685 88.3824 33.0151 88.3039 33.1747 88.2721C33.3343 88.2402 33.4997 88.2564 33.6501 88.3186ZM30.8656 92.7132V94.2926H32.4461L34.0925 92.6463H32.512V91.0658L30.8656 92.7132ZM24.6315 90.8133C25.917 90.0923 27.3943 89.7871 28.8604 89.9397C28.9679 89.9509 29.0766 89.9407 29.1802 89.9099C29.2838 89.8791 29.3803 89.8282 29.4643 89.76C29.5482 89.6919 29.6179 89.6079 29.6693 89.5128C29.7208 89.4178 29.7531 89.3135 29.7642 89.206C29.7754 89.0984 29.7653 88.9898 29.7344 88.8862C29.7036 88.7825 29.6527 88.686 29.5846 88.6021C29.5164 88.5182 29.4324 88.4485 29.3374 88.397C29.2423 88.3455 29.138 88.3133 29.0305 88.3021C27.226 88.1144 25.4076 88.4902 23.8253 89.378C22.2431 90.2657 20.9747 91.6218 20.1946 93.2598C19.4144 94.8978 19.1608 96.7372 19.4686 98.5252C19.7764 100.313 20.6305 101.962 21.9135 103.245C23.1965 104.527 24.8453 105.381 26.6333 105.689C28.4214 105.996 30.2607 105.743 31.8986 104.962C33.5365 104.182 34.8924 102.913 35.7799 101.331C36.6674 99.7485 37.043 97.9301 36.855 96.1255C36.8438 96.018 36.8116 95.9138 36.7601 95.8187C36.7087 95.7236 36.639 95.6396 36.5551 95.5715C36.4711 95.5034 36.3746 95.4524 36.271 95.4216C36.1674 95.3908 36.0587 95.3807 35.9512 95.3918C35.8437 95.403 35.7394 95.4352 35.6443 95.4867C35.5493 95.5382 35.4653 95.6079 35.3971 95.6918C35.329 95.7757 35.2781 95.8722 35.2472 95.9759C35.2164 96.0795 35.2063 96.1881 35.2175 96.2957C35.3511 97.5762 35.1358 98.8691 34.5942 100.037C34.0527 101.205 33.2051 102.205 32.1414 102.93C31.0777 103.656 29.8375 104.08 28.5523 104.158C27.2672 104.235 25.9849 103.964 24.8416 103.372C23.6982 102.78 22.7364 101.889 22.0581 100.795C21.3798 99.7006 21.0103 98.4431 20.9887 97.1558C20.9672 95.8685 21.2944 94.5993 21.9358 93.4829C22.5771 92.3664 23.5086 91.4444 24.6315 90.8144V90.8133Z" fill="black"/>
</g>
</g>
<path d="M61.2997 98.6327C60.9875 98.6327 60.7222 98.5312 60.5036 98.3283C60.3007 98.1098 60.1992 97.8444 60.1992 97.5322C60.1992 97.2356 60.3007 96.9781 60.5036 96.7595C60.7222 96.5254 60.9875 96.4083 61.2997 96.4083H67.3875C67.6841 96.4083 67.9417 96.5254 68.1602 96.7595C68.3944 96.9781 68.5114 97.2356 68.5114 97.5322C68.5114 97.8288 68.3944 98.0864 68.1602 98.3049C67.9417 98.5234 67.6841 98.6327 67.3875 98.6327H61.2997ZM61.2997 102.847C60.9875 102.847 60.7222 102.746 60.5036 102.543C60.3007 102.324 60.1992 102.059 60.1992 101.747C60.1992 101.45 60.3007 101.193 60.5036 100.974C60.7222 100.74 60.9875 100.623 61.2997 100.623H67.3875C67.6841 100.623 67.9417 100.74 68.1602 100.974C68.3944 101.193 68.5114 101.45 68.5114 101.747C68.5114 102.043 68.3944 102.301 68.1602 102.52C67.9417 102.738 67.6841 102.847 67.3875 102.847H61.2997Z" fill="white"/>
<path d="M134.471 98.6327C134.158 98.6327 133.893 98.5312 133.675 98.3283C133.472 98.1098 133.37 97.8444 133.37 97.5322C133.37 97.2356 133.472 96.9781 133.675 96.7595C133.893 96.5254 134.158 96.4083 134.471 96.4083H140.558C140.855 96.4083 141.113 96.5254 141.331 96.7595C141.565 96.9781 141.682 97.2356 141.682 97.5322C141.682 97.8288 141.565 98.0864 141.331 98.3049C141.113 98.5234 140.855 98.6327 140.558 98.6327H134.471ZM134.471 102.847C134.158 102.847 133.893 102.746 133.675 102.543C133.472 102.324 133.37 102.059 133.37 101.747C133.37 101.45 133.472 101.193 133.675 100.974C133.893 100.74 134.158 100.623 134.471 100.623H140.558C140.855 100.623 141.113 100.74 141.331 100.974C141.565 101.193 141.682 101.45 141.682 101.747C141.682 102.043 141.565 102.301 141.331 102.52C141.113 102.738 140.855 102.847 140.558 102.847H134.471Z" fill="white"/>
<g filter="url(#filter1_d_1701_1616)">
<rect x="221.292" y="81.4268" width="30.2439" height="29.2683" rx="7.80488" transform="rotate(-180 221.292 81.4268)" fill="#B28DFF" shape-rendering="crispEdges"/>
<rect x="222.756" y="82.8903" width="33.1707" height="32.1951" rx="9.26829" transform="rotate(-180 222.756 82.8903)" stroke="#5F2BCF" stroke-width="2.92683" shape-rendering="crispEdges"/>
<path d="M206.408 59.6522C207.422 59.6522 208.343 59.9878 209.171 60.659C209.982 61.3459 210.622 62.259 211.091 63.3985C211.543 64.5381 211.77 65.7634 211.77 67.0746C211.77 68.4951 211.512 69.8298 210.997 71.0785C210.466 72.3429 209.756 73.3498 208.866 74.099C207.961 74.8639 206.977 75.2464 205.916 75.2464C204.901 75.2464 203.988 74.9029 203.176 74.2161C202.365 73.5449 201.733 72.6395 201.28 71.5C200.812 70.3605 200.577 69.1273 200.577 67.8005C200.577 66.3644 200.843 65.022 201.374 63.7732C201.889 62.5244 202.599 61.5254 203.504 60.7761C204.394 60.0268 205.362 59.6522 206.408 59.6522ZM206.408 61.9C205.768 61.9 205.174 62.1654 204.628 62.6961C204.066 63.2268 203.621 63.9371 203.294 64.8268C202.95 65.7322 202.778 66.7078 202.778 67.7537C202.778 68.6746 202.919 69.5332 203.2 70.3293C203.465 71.141 203.84 71.7888 204.324 72.2727C204.808 72.7566 205.338 72.9985 205.916 72.9985C206.556 72.9985 207.157 72.7332 207.719 72.2025C208.281 71.6717 208.726 70.9537 209.054 70.0483C209.381 69.1429 209.545 68.1673 209.545 67.1215C209.545 66.2161 209.413 65.3576 209.147 64.5459C208.882 63.7498 208.507 63.1098 208.023 62.6259C207.539 62.142 207.001 61.9 206.408 61.9Z" fill="black"/>
</g>
<g filter="url(#filter2_d_1701_1616)">
<path d="M162.576 113.275C162.264 113.275 161.991 113.165 161.757 112.947C161.522 112.728 161.405 112.455 161.405 112.127V98.7576C161.405 98.3205 161.46 98.0083 161.569 97.821C161.679 97.6181 161.881 97.4854 162.178 97.423C162.49 97.3449 162.99 97.3059 163.677 97.3059C166.58 97.3059 168.75 97.7352 170.186 98.5937C171.638 99.4522 172.363 100.693 172.363 102.317C172.363 103.628 171.903 104.705 170.982 105.548C170.061 106.391 168.945 107.007 167.634 107.398C166.322 107.788 165.019 108.006 163.723 108.053V112.127C163.723 112.455 163.614 112.728 163.396 112.947C163.177 113.165 162.904 113.275 162.576 113.275ZM163.723 105.759C165.253 105.665 166.689 105.361 168.032 104.845C169.374 104.315 170.045 103.472 170.045 102.317C170.045 101.458 169.522 100.795 168.477 100.326C167.446 99.8581 165.971 99.6239 164.051 99.6239H163.723V105.759ZM179.288 113.275C178.18 113.275 177.181 113.041 176.291 112.572C175.417 112.088 174.73 111.409 174.23 110.535C173.731 109.645 173.481 108.6 173.481 107.398C173.481 106.414 173.7 105.478 174.137 104.588C174.589 103.682 175.214 102.957 176.01 102.41C176.822 101.864 177.743 101.591 178.773 101.591C179.725 101.591 180.537 101.786 181.208 102.176C181.895 102.551 182.41 103.003 182.753 103.534C183.097 104.065 183.268 104.541 183.268 104.962C183.268 105.165 183.206 105.361 183.081 105.548C182.956 105.735 182.777 105.899 182.543 106.04L176.267 109.645C176.486 110.129 176.868 110.504 177.415 110.769C177.977 111.035 178.601 111.167 179.288 111.167C180.193 111.167 180.966 110.832 181.606 110.161C181.856 109.911 182.113 109.786 182.379 109.786C182.691 109.786 182.948 109.887 183.151 110.09C183.37 110.293 183.479 110.543 183.479 110.84C183.479 111.089 183.385 111.323 183.198 111.542C182.761 112.026 182.176 112.44 181.442 112.783C180.724 113.111 180.006 113.275 179.288 113.275ZM180.95 104.682C180.763 104.354 180.498 104.112 180.154 103.956C179.811 103.784 179.405 103.698 178.937 103.698C178.047 103.698 177.298 104.002 176.689 104.611C176.096 105.22 175.752 105.969 175.659 106.859C175.627 107.093 175.612 107.374 175.612 107.702L180.95 104.682ZM186.856 113.275C186.559 113.275 186.294 113.165 186.06 112.947C185.841 112.728 185.732 112.471 185.732 112.174V102.715C185.732 102.418 185.841 102.161 186.06 101.942C186.294 101.708 186.559 101.591 186.856 101.591C187.168 101.591 187.433 101.708 187.652 101.942C187.87 102.161 187.98 102.418 187.98 102.715V104.354C188.947 102.512 190.235 101.591 191.843 101.591C192.483 101.591 193.037 101.778 193.506 102.153C193.989 102.527 194.333 103.089 194.536 103.839C195.535 102.34 196.752 101.591 198.188 101.591C199.156 101.591 199.921 101.965 200.483 102.715C201.045 103.448 201.326 104.557 201.326 106.04V112.174C201.326 112.471 201.209 112.728 200.975 112.947C200.756 113.165 200.499 113.275 200.202 113.275C199.89 113.275 199.625 113.165 199.406 112.947C199.187 112.728 199.078 112.471 199.078 112.174V105.899C199.078 105.181 198.977 104.642 198.774 104.283C198.571 103.924 198.251 103.745 197.814 103.745C197.361 103.745 196.908 103.924 196.456 104.283C196.003 104.642 195.628 105.134 195.332 105.759C195.051 106.383 194.91 107.07 194.91 107.819V112.174C194.91 112.486 194.801 112.752 194.583 112.97C194.364 113.173 194.099 113.275 193.786 113.275C193.49 113.275 193.225 113.165 192.99 112.947C192.772 112.728 192.663 112.471 192.663 112.174V105.899C192.663 105.15 192.569 104.603 192.382 104.26C192.21 103.917 191.921 103.745 191.515 103.745C191.016 103.745 190.524 103.948 190.04 104.354C189.556 104.744 189.135 105.22 188.776 105.782C188.495 106.25 188.284 106.719 188.144 107.187C188.019 107.655 187.956 108.17 187.956 108.732L187.98 112.174C187.98 112.471 187.87 112.728 187.652 112.947C187.433 113.165 187.168 113.275 186.856 113.275ZM211.86 113.509C211.548 113.509 211.29 113.423 211.088 113.251C210.9 113.08 210.807 112.853 210.807 112.572V112.244C210.167 112.931 209.277 113.275 208.137 113.275C207.279 113.275 206.506 113.064 205.819 112.642C205.132 112.221 204.594 111.628 204.204 110.863C203.813 110.082 203.618 109.201 203.618 108.217C203.618 107.124 203.852 106.071 204.321 105.056C204.789 104.026 205.445 103.191 206.288 102.551C207.146 101.911 208.129 101.591 209.238 101.591C209.956 101.591 210.604 101.692 211.181 101.895C211.759 102.082 212.36 102.317 212.984 102.598V112.338C212.984 112.65 212.875 112.923 212.656 113.158C212.438 113.392 212.172 113.509 211.86 113.509ZM208.301 111.097C208.754 111.097 209.191 111.003 209.612 110.816C210.049 110.629 210.409 110.402 210.689 110.137L210.76 104.026C210.307 103.839 209.815 103.745 209.285 103.745C208.613 103.745 208.02 103.956 207.505 104.377C206.99 104.783 206.592 105.329 206.311 106.016C206.03 106.687 205.889 107.405 205.889 108.17C205.889 109.122 206.1 109.848 206.522 110.348C206.943 110.847 207.536 111.097 208.301 111.097ZM217.522 100.607C217.226 100.607 216.96 100.49 216.726 100.256C216.508 100.022 216.406 99.7566 216.422 99.46L216.445 98.5937C216.461 98.2971 216.578 98.0396 216.796 97.821C217.015 97.6025 217.272 97.4932 217.569 97.4932C217.866 97.4932 218.123 97.6103 218.342 97.8444C218.576 98.0786 218.685 98.3361 218.669 98.6171L218.646 99.5069C218.63 99.8191 218.513 100.084 218.295 100.303C218.092 100.506 217.834 100.607 217.522 100.607ZM217.405 113.275C217.093 113.275 216.82 113.165 216.586 112.947C216.367 112.713 216.258 112.44 216.258 112.127L216.375 102.808C216.375 102.496 216.484 102.231 216.703 102.012C216.937 101.778 217.21 101.661 217.522 101.661C217.85 101.661 218.123 101.778 218.342 102.012C218.56 102.231 218.669 102.496 218.669 102.808L218.552 112.127C218.552 112.44 218.435 112.713 218.201 112.947C217.983 113.165 217.717 113.275 217.405 113.275ZM223.075 113.275C222.779 113.275 222.513 113.165 222.279 112.947C222.061 112.728 221.951 112.479 221.951 112.198V102.691C221.951 102.379 222.068 102.114 222.303 101.895C222.537 101.677 222.81 101.567 223.122 101.567C223.419 101.567 223.668 101.677 223.871 101.895C224.09 102.114 224.199 102.379 224.199 102.691V104.471C224.636 103.534 225.19 102.824 225.862 102.34C226.533 101.841 227.266 101.591 228.063 101.591C228.937 101.591 229.631 101.794 230.146 102.2C230.662 102.605 231.036 103.277 231.27 104.213C231.505 105.134 231.622 106.414 231.622 108.053L231.598 112.151C231.598 112.447 231.497 112.713 231.294 112.947C231.091 113.165 230.833 113.275 230.521 113.275C230.225 113.275 229.959 113.165 229.725 112.947C229.506 112.713 229.397 112.455 229.397 112.174V108.287C229.397 107.07 229.343 106.133 229.233 105.478C229.124 104.822 228.96 104.377 228.742 104.143C228.523 103.893 228.226 103.768 227.852 103.768C227.384 103.768 226.915 103.971 226.447 104.377C225.979 104.767 225.542 105.329 225.136 106.063C224.777 106.703 224.527 107.327 224.386 107.936C224.246 108.545 224.176 109.279 224.176 110.137V112.104C224.176 112.447 224.074 112.728 223.871 112.947C223.684 113.165 223.419 113.275 223.075 113.275ZM242.543 112.034C242.543 110.769 242.738 109.708 243.128 108.849C243.518 107.975 244.002 107.273 244.58 106.742C245.157 106.196 245.867 105.657 246.71 105.126C247.46 104.627 248.014 104.237 248.373 103.956C248.747 103.675 249.052 103.362 249.286 103.019C249.536 102.66 249.661 102.254 249.661 101.802C249.661 101.255 249.442 100.81 249.005 100.467C248.568 100.108 248.022 99.9283 247.366 99.9283C246.726 99.9283 246.156 100.092 245.657 100.42C245.173 100.748 244.806 101.06 244.556 101.357C244.4 101.528 244.252 101.661 244.111 101.755C243.986 101.833 243.807 101.872 243.573 101.872C243.245 101.872 242.972 101.755 242.753 101.521C242.55 101.286 242.449 101.021 242.449 100.724C242.449 100.537 242.496 100.358 242.589 100.186C242.699 100.014 242.902 99.7878 243.198 99.5069C243.713 99.0074 244.322 98.5781 245.024 98.2191C245.727 97.86 246.507 97.6805 247.366 97.6805C248.24 97.6805 249.021 97.8678 249.707 98.2425C250.394 98.6015 250.933 99.101 251.323 99.741C251.713 100.365 251.908 101.052 251.908 101.802C251.908 102.613 251.729 103.331 251.37 103.956C251.011 104.564 250.574 105.087 250.059 105.524C249.559 105.946 248.911 106.406 248.115 106.906C247.179 107.515 246.437 108.108 245.891 108.685C245.344 109.263 245.001 110.004 244.861 110.91H250.972C251.268 110.91 251.526 111.019 251.744 111.238C251.979 111.456 252.096 111.722 252.096 112.034C252.096 112.33 251.979 112.588 251.744 112.806C251.526 113.025 251.268 113.134 250.972 113.134H242.543V112.034ZM161.737 139.275C161.393 139.275 161.12 139.173 160.917 138.97C160.73 138.767 160.636 138.541 160.636 138.291C160.636 138.042 160.668 137.784 160.73 137.519L163.633 124.242C163.696 123.962 163.829 123.743 164.032 123.587C164.234 123.415 164.484 123.329 164.781 123.329C165.327 123.329 165.686 123.595 165.858 124.125L169.159 134.498L172.906 124.079C173.093 123.579 173.483 123.329 174.076 123.329C174.342 123.329 174.56 123.415 174.732 123.587C174.919 123.743 175.044 123.962 175.107 124.242L178.08 137.495C178.158 137.854 178.197 138.088 178.197 138.198C178.197 138.494 178.088 138.752 177.87 138.97C177.651 139.173 177.378 139.275 177.05 139.275C176.738 139.275 176.488 139.197 176.301 139.041C176.113 138.869 175.989 138.65 175.926 138.385L173.772 128.598L170.166 138.525C170.088 138.76 169.948 138.947 169.745 139.087C169.542 139.212 169.315 139.275 169.066 139.275C168.519 139.275 168.16 139.009 167.989 138.479L164.945 128.949L162.884 138.362C162.822 138.642 162.689 138.869 162.486 139.041C162.283 139.197 162.033 139.275 161.737 139.275ZM185.542 139.275C184.433 139.275 183.434 139.041 182.545 138.572C181.67 138.088 180.984 137.409 180.484 136.535C179.985 135.645 179.735 134.6 179.735 133.398C179.735 132.414 179.953 131.478 180.39 130.588C180.843 129.682 181.468 128.957 182.264 128.41C183.075 127.864 183.996 127.591 185.027 127.591C185.979 127.591 186.79 127.786 187.462 128.176C188.149 128.551 188.664 129.003 189.007 129.534C189.35 130.065 189.522 130.541 189.522 130.962C189.522 131.165 189.46 131.361 189.335 131.548C189.21 131.735 189.03 131.899 188.796 132.04L182.521 135.645C182.74 136.129 183.122 136.504 183.669 136.769C184.23 137.035 184.855 137.167 185.542 137.167C186.447 137.167 187.22 136.832 187.86 136.161C188.11 135.911 188.367 135.786 188.632 135.786C188.945 135.786 189.202 135.887 189.405 136.09C189.624 136.293 189.733 136.543 189.733 136.84C189.733 137.089 189.639 137.323 189.452 137.542C189.015 138.026 188.43 138.44 187.696 138.783C186.978 139.111 186.26 139.275 185.542 139.275ZM187.204 130.682C187.017 130.354 186.751 130.112 186.408 129.956C186.065 129.784 185.659 129.698 185.19 129.698C184.301 129.698 183.551 130.002 182.943 130.611C182.35 131.22 182.006 131.969 181.912 132.859C181.881 133.093 181.866 133.374 181.866 133.702L187.204 130.682ZM193.11 139.275C192.813 139.275 192.548 139.165 192.313 138.947C192.095 138.728 191.986 138.479 191.986 138.198V128.691C191.986 128.379 192.103 128.114 192.337 127.895C192.571 127.677 192.844 127.567 193.156 127.567C193.453 127.567 193.703 127.677 193.906 127.895C194.124 128.114 194.233 128.379 194.233 128.691V130.471C194.671 129.534 195.225 128.824 195.896 128.34C196.567 127.841 197.301 127.591 198.097 127.591C198.971 127.591 199.666 127.794 200.181 128.2C200.696 128.605 201.071 129.277 201.305 130.213C201.539 131.134 201.656 132.414 201.656 134.053L201.632 138.151C201.632 138.447 201.531 138.713 201.328 138.947C201.125 139.165 200.868 139.275 200.555 139.275C200.259 139.275 199.993 139.165 199.759 138.947C199.541 138.713 199.432 138.455 199.432 138.174V134.287C199.432 133.07 199.377 132.133 199.268 131.478C199.158 130.822 198.994 130.377 198.776 130.143C198.557 129.893 198.261 129.768 197.886 129.768C197.418 129.768 196.95 129.971 196.481 130.377C196.013 130.767 195.576 131.329 195.17 132.063C194.811 132.703 194.561 133.327 194.421 133.936C194.28 134.545 194.21 135.279 194.21 136.137V138.104C194.21 138.447 194.109 138.728 193.906 138.947C193.718 139.165 193.453 139.275 193.11 139.275ZM212.192 139.509C211.88 139.509 211.622 139.423 211.419 139.251C211.232 139.08 211.138 138.853 211.138 138.572V138.244C210.498 138.931 209.608 139.275 208.469 139.275C207.61 139.275 206.838 139.064 206.151 138.642C205.464 138.221 204.925 137.628 204.535 136.863C204.145 136.082 203.95 135.201 203.95 134.217C203.95 133.124 204.184 132.071 204.652 131.056C205.121 130.026 205.776 129.191 206.619 128.551C207.478 127.911 208.461 127.591 209.569 127.591C210.287 127.591 210.935 127.692 211.513 127.895C212.09 128.082 212.691 128.317 213.316 128.598V138.338C213.316 138.65 213.206 138.923 212.988 139.158C212.769 139.392 212.504 139.509 212.192 139.509ZM208.633 137.097C209.085 137.097 209.522 137.003 209.944 136.816C210.381 136.629 210.74 136.402 211.021 136.137L211.091 130.026C210.639 129.839 210.147 129.745 209.616 129.745C208.945 129.745 208.352 129.956 207.837 130.377C207.322 130.783 206.923 131.329 206.642 132.016C206.362 132.687 206.221 133.405 206.221 134.17C206.221 135.122 206.432 135.848 206.853 136.348C207.275 136.847 207.868 137.097 208.633 137.097ZM217.713 139.275C217.417 139.275 217.151 139.165 216.917 138.947C216.699 138.728 216.589 138.479 216.589 138.198V128.691C216.589 128.379 216.706 128.114 216.941 127.895C217.175 127.677 217.448 127.567 217.76 127.567C218.057 127.567 218.306 127.677 218.509 127.895C218.728 128.114 218.837 128.379 218.837 128.691V130.471C219.274 129.534 219.828 128.824 220.5 128.34C221.171 127.841 221.904 127.591 222.701 127.591C223.575 127.591 224.269 127.794 224.784 128.2C225.3 128.605 225.674 129.277 225.908 130.213C226.142 131.134 226.26 132.414 226.26 134.053L226.236 138.151C226.236 138.447 226.135 138.713 225.932 138.947C225.729 139.165 225.471 139.275 225.159 139.275C224.862 139.275 224.597 139.165 224.363 138.947C224.144 138.713 224.035 138.455 224.035 138.174V134.287C224.035 133.07 223.981 132.133 223.871 131.478C223.762 130.822 223.598 130.377 223.38 130.143C223.161 129.893 222.864 129.768 222.49 129.768C222.022 129.768 221.553 129.971 221.085 130.377C220.617 130.767 220.18 131.329 219.774 132.063C219.415 132.703 219.165 133.327 219.024 133.936C218.884 134.545 218.814 135.279 218.814 136.137V138.104C218.814 138.447 218.712 138.728 218.509 138.947C218.322 139.165 218.057 139.275 217.713 139.275ZM233.307 143.208C232.401 143.208 231.48 143.099 230.544 142.881C230.294 142.818 230.083 142.685 229.912 142.482C229.755 142.28 229.677 142.045 229.677 141.78C229.677 141.468 229.787 141.202 230.005 140.984C230.239 140.765 230.505 140.656 230.801 140.656C230.989 140.656 231.238 140.695 231.551 140.773C231.613 140.789 231.808 140.82 232.136 140.867C232.464 140.929 232.846 140.961 233.283 140.961C234.891 140.961 235.757 140.157 235.882 138.549L235.929 137.987C235.664 138.346 235.313 138.619 234.875 138.806C234.438 138.978 233.97 139.064 233.471 139.064C232.643 139.064 231.863 138.861 231.129 138.455C230.411 138.034 229.833 137.433 229.396 136.652C228.959 135.856 228.741 134.927 228.741 133.866C228.741 132.758 228.983 131.72 229.467 130.752C229.966 129.784 230.637 129.011 231.48 128.434C232.339 127.856 233.283 127.567 234.313 127.567C234.891 127.567 235.539 127.708 236.257 127.989C236.382 127.552 236.741 127.333 237.334 127.333C237.662 127.333 237.927 127.427 238.13 127.614C238.349 127.786 238.45 128.075 238.434 128.481L238.2 138.362C238.169 139.969 237.709 141.179 236.819 141.991C235.929 142.802 234.758 143.208 233.307 143.208ZM233.33 136.863C234.189 136.863 234.86 136.559 235.344 135.95C235.828 135.325 236.07 134.365 236.07 133.07V130.237C235.851 130.112 235.586 130.01 235.273 129.932C234.977 129.854 234.688 129.815 234.407 129.815C233.767 129.815 233.174 129.987 232.628 130.33C232.097 130.658 231.668 131.119 231.34 131.712C231.028 132.305 230.872 132.968 230.872 133.702C230.872 134.654 231.106 135.419 231.574 135.997C232.058 136.574 232.643 136.863 233.33 136.863ZM243.652 135.341C243.34 135.341 243.067 135.232 242.833 135.013C242.614 134.779 242.505 134.506 242.505 134.194V124.641C242.505 124.328 242.614 124.055 242.833 123.821C243.067 123.587 243.34 123.47 243.652 123.47C243.98 123.47 244.253 123.587 244.472 123.821C244.69 124.055 244.8 124.328 244.8 124.641V134.194C244.8 134.506 244.69 134.779 244.472 135.013C244.253 135.232 243.98 135.341 243.652 135.341ZM243.465 139.275C243.106 139.275 242.81 139.15 242.575 138.9C242.357 138.65 242.248 138.338 242.248 137.963C242.248 137.573 242.388 137.222 242.669 136.91C242.95 136.598 243.27 136.442 243.629 136.442C243.988 136.442 244.277 136.574 244.495 136.84C244.73 137.089 244.847 137.394 244.847 137.753C244.847 138.174 244.706 138.533 244.425 138.83C244.144 139.126 243.824 139.275 243.465 139.275ZM249.758 135.341C249.445 135.341 249.172 135.232 248.938 135.013C248.72 134.779 248.61 134.506 248.61 134.194V124.641C248.61 124.328 248.72 124.055 248.938 123.821C249.172 123.587 249.445 123.47 249.758 123.47C250.085 123.47 250.359 123.587 250.577 123.821C250.796 124.055 250.905 124.328 250.905 124.641V134.194C250.905 134.506 250.796 134.779 250.577 135.013C250.359 135.232 250.085 135.341 249.758 135.341ZM249.57 139.275C249.211 139.275 248.915 139.15 248.681 138.9C248.462 138.65 248.353 138.338 248.353 137.963C248.353 137.573 248.493 137.222 248.774 136.91C249.055 136.598 249.375 136.442 249.734 136.442C250.093 136.442 250.382 136.574 250.601 136.84C250.835 137.089 250.952 137.394 250.952 137.753C250.952 138.174 250.811 138.533 250.53 138.83C250.249 139.126 249.929 139.275 249.57 139.275Z" fill="#5F2BCF"/>
</g>
<defs>
<filter id="filter0_d_1701_1616" x="0.317144" y="69.7195" width="55.6099" height="54.6341" filterUnits="userSpaceOnUse" color-interpolation-filters="sRGB">
<feFlood flood-opacity="0" result="BackgroundImageFix"/>
<feColorMatrix in="SourceAlpha" type="matrix" values="0 0 0 0 0 0 0 0 0 0 0 0 0 0 0 0 0 0 127 0" result="hardAlpha"/>
<feOffset/>
<feGaussianBlur stdDeviation="4.87805"/>
<feComposite in2="hardAlpha" operator="out"/>
<feColorMatrix type="matrix" values="0 0 0 0 1 0 0 0 0 1 0 0 0 0 1 0 0 0 0.5 0"/>
<feBlend mode="normal" in2="BackgroundImageFix" result="effect1_dropShadow_1701_1616"/>
<feBlend mode="normal" in="SourceGraphic" in2="effect1_dropShadow_1701_1616" result="shape"/>
</filter>
<filter id="filter1_d_1701_1616" x="163.731" y="24.8415" width="84.8781" height="83.9024" filterUnits="userSpaceOnUse" color-interpolation-filters="sRGB">
<feFlood flood-opacity="0" result="BackgroundImageFix"/>
<feColorMatrix in="SourceAlpha" type="matrix" values="0 0 0 0 0 0 0 0 0 0 0 0 0 0 0 0 0 0 127 0" result="hardAlpha"/>
<feOffset/>
<feGaussianBlur stdDeviation="12.1951"/>
<feComposite in2="hardAlpha" operator="out"/>
<feColorMatrix type="matrix" values="0 0 0 0 0.372549 0 0 0 0 0.168627 0 0 0 0 0.811765 0 0 0 1 0"/>
<feBlend mode="normal" in2="BackgroundImageFix" result="effect1_dropShadow_1701_1616"/>
<feBlend mode="normal" in="SourceGraphic" in2="effect1_dropShadow_1701_1616" result="shape"/>
</filter>
<filter id="filter2_d_1701_1616" x="148.441" y="85.1108" width="115.85" height="70.2927" filterUnits="userSpaceOnUse" color-interpolation-filters="sRGB">
<feFlood flood-opacity="0" result="BackgroundImageFix"/>
<feColorMatrix in="SourceAlpha" type="matrix" values="0 0 0 0 0 0 0 0 0 0 0 0 0 0 0 0 0 0 127 0" result="hardAlpha"/>
<feOffset/>
<feGaussianBlur stdDeviation="6.09756"/>
<feComposite in2="hardAlpha" operator="out"/>
<feColorMatrix type="matrix" values="0 0 0 0 0.372549 0 0 0 0 0.168627 0 0 0 0 0.811765 0 0 0 1 0"/>
<feBlend mode="normal" in2="BackgroundImageFix" result="effect1_dropShadow_1701_1616"/>
<feBlend mode="normal" in="SourceGraphic" in2="effect1_dropShadow_1701_1616" result="shape"/>
</filter>
<clipPath id="clip0_1701_1616">
<rect width="17.561" height="17.561" fill="white" transform="translate(19.3413 88.2561)"/>
</clipPath>
</defs>
</svg>
