<svg width="264" height="198" viewBox="0 0 264 198" fill="none" xmlns="http://www.w3.org/2000/svg">
<rect width="264" height="198" fill="#0A0F2C"/>
<rect x="18.3569" y="29.5" width="34" height="33" rx="9.5" fill="#B28DFF"/>
<rect x="18.3569" y="29.5" width="34" height="33" rx="9.5" stroke="#5F2BCF" stroke-width="3"/>
<path d="M35.1137 53.644C34.0737 53.644 33.1297 53.3 32.2817 52.612C31.4497 51.908 30.7937 50.972 30.3137 49.804C29.8497 48.636 29.6177 47.38 29.6177 46.036C29.6177 44.58 29.8817 43.212 30.4097 41.932C30.9537 40.636 31.6817 39.604 32.5937 38.836C33.5217 38.052 34.5297 37.66 35.6177 37.66C36.6577 37.66 37.5937 38.012 38.4257 38.716C39.2577 39.404 39.9057 40.332 40.3697 41.5C40.8497 42.668 41.0897 43.932 41.0897 45.292C41.0897 46.764 40.8177 48.14 40.2737 49.42C39.7457 50.7 39.0177 51.724 38.0897 52.492C37.1777 53.26 36.1857 53.644 35.1137 53.644ZM35.1137 51.34C35.7697 51.34 36.3777 51.068 36.9377 50.524C37.5137 49.98 37.9697 49.252 38.3057 48.34C38.6577 47.412 38.8337 46.412 38.8337 45.34C38.8337 44.396 38.6897 43.516 38.4017 42.7C38.1297 41.868 37.7457 41.204 37.2497 40.708C36.7537 40.212 36.2097 39.964 35.6177 39.964C34.9617 39.964 34.3457 40.236 33.7697 40.78C33.1937 41.324 32.7377 42.06 32.4017 42.988C32.0657 43.916 31.8977 44.916 31.8977 45.988C31.8977 46.916 32.0337 47.796 32.3057 48.628C32.5777 49.444 32.9617 50.1 33.4577 50.596C33.9537 51.092 34.5057 51.34 35.1137 51.34Z" fill="black"/>
<rect x="33.8569" y="61" width="3" height="16" fill="#5F2BCF"/>
<rect x="18.3569" y="141.5" width="34" height="33" rx="9.5" fill="#66B2FF"/>
<rect x="18.3569" y="141.5" width="34" height="33" rx="9.5" stroke="#005FCC" stroke-width="3"/>
<path d="M33.214 165.5C32.878 165.5 32.598 165.388 32.374 165.164C32.166 164.94 32.062 164.668 32.062 164.348C32.062 164.028 32.166 163.756 32.374 163.532C32.598 163.308 32.878 163.196 33.214 163.196H34.606L34.774 153.812L33.982 154.652C33.758 154.876 33.478 154.988 33.142 154.988C32.822 154.988 32.55 154.876 32.326 154.652C32.102 154.428 31.99 154.156 31.99 153.836C31.99 153.564 32.094 153.308 32.302 153.068L35.11 150.02C35.206 149.924 35.334 149.844 35.494 149.78C35.654 149.7 35.798 149.66 35.926 149.66C36.278 149.66 36.558 149.78 36.766 150.02C36.99 150.244 37.102 150.508 37.102 150.812L36.934 163.196H37.918C38.286 163.196 38.574 163.308 38.782 163.532C39.006 163.756 39.118 164.028 39.118 164.348C39.118 164.668 38.998 164.94 38.758 165.164C38.534 165.388 38.27 165.5 37.966 165.5H33.214Z" fill="black"/>
<rect x="33.8569" y="127" width="3" height="16" fill="#005FCC"/>
<rect x="18.3571" y="77.3571" width="34.2857" height="49.2857" fill="#3CB371" stroke="black" stroke-width="0.714286"/>
<path d="M44.8569 80.9289C47.9734 80.9289 50.4995 83.455 50.4995 86.5714V99.4289C50.4994 112.486 39.9144 123.071 26.8569 123.071C23.7406 123.071 21.2145 120.545 21.2144 117.429V104.571C21.2144 91.5139 31.7993 80.9289 44.8569 80.9289Z" fill="#F6F8FF" stroke="black" stroke-width="0.714286"/>
<path d="M21.1368 83.0343C20.8549 83.0343 20.6016 82.9562 20.3768 82.8C20.152 82.64 19.9749 82.4229 19.8454 82.1486C19.7197 81.8743 19.6568 81.5676 19.6568 81.2286C19.6568 80.8438 19.7349 80.4914 19.8911 80.1714C20.0473 79.8514 20.2549 79.6 20.5139 79.4171C20.7768 79.2305 21.0587 79.1371 21.3597 79.1371C21.6416 79.1371 21.8949 79.2152 22.1197 79.3714C22.3482 79.5276 22.5254 79.7429 22.6511 80.0171C22.7806 80.2914 22.8454 80.6 22.8454 80.9429C22.8454 81.3314 22.7673 81.6857 22.6111 82.0057C22.4549 82.3219 22.2454 82.5733 21.9825 82.76C21.7235 82.9429 21.4416 83.0343 21.1368 83.0343ZM21.1368 82.4914C21.3425 82.4914 21.5311 82.4267 21.7025 82.2971C21.8777 82.1676 22.0168 81.9867 22.1197 81.7543C22.2225 81.5219 22.2739 81.259 22.2739 80.9657C22.2739 80.699 22.2282 80.4686 22.1368 80.2743C22.0492 80.08 21.9311 79.9333 21.7825 79.8343C21.6377 79.7314 21.4854 79.68 21.3254 79.68C21.1273 79.68 20.9444 79.7467 20.7768 79.88C20.6092 80.0133 20.4758 80.1981 20.3768 80.4343C20.2777 80.6667 20.2282 80.9314 20.2282 81.2286C20.2282 81.4952 20.2701 81.7238 20.3539 81.9143C20.4377 82.1048 20.5482 82.2495 20.6854 82.3486C20.8263 82.4438 20.9768 82.4914 21.1368 82.4914ZM23.7808 83.0343C23.7008 83.0343 23.6341 83.0076 23.5808 82.9543C23.5274 82.901 23.5008 82.8343 23.5008 82.7543V79.48C23.5008 79.3771 23.5103 79.3029 23.5293 79.2571C23.5522 79.2114 23.5941 79.181 23.6551 79.1657C23.7198 79.1467 23.8208 79.1371 23.9579 79.1371H24.1922C24.8322 79.1371 25.3255 79.2438 25.6722 79.4571C26.0189 79.6705 26.1922 79.9695 26.1922 80.3543C26.1922 80.8419 25.9103 81.2114 25.3465 81.4629C25.7503 81.7829 26.0665 82.1695 26.2951 82.6229C26.3141 82.661 26.3236 82.7048 26.3236 82.7543C26.3236 82.8305 26.297 82.8971 26.2436 82.9543C26.1941 83.0076 26.1274 83.0343 26.0436 83.0343C25.937 83.0343 25.8531 82.9848 25.7922 82.8857C25.2893 82.0857 24.8398 81.6857 24.4436 81.6857C24.3255 81.6857 24.1979 81.6971 24.0608 81.72V82.7543C24.0608 82.8343 24.0322 82.901 23.9751 82.9543C23.9217 83.0076 23.857 83.0343 23.7808 83.0343ZM24.0608 81.1943C24.4722 81.1676 24.836 81.0838 25.1522 80.9429C25.4684 80.8019 25.6265 80.6057 25.6265 80.3543C25.6265 80.1371 25.4989 79.9714 25.2436 79.8571C24.9922 79.7429 24.636 79.6857 24.1751 79.6857H24.0608V81.1943Z" fill="black"/>
<path d="M28.3569 96.2858C30.4998 100.572 30.4998 103.429 28.3569 107.714H32.6426C36.2141 107.714 40.4998 104.857 42.6426 102C40.4998 99.143 36.2141 96.2858 32.6426 96.2858H28.3569ZM30.4998 97.7144H32.6426C35.1426 97.7144 38.5712 99.8572 40.7141 102C38.5712 104.143 35.1426 106.286 32.6426 106.286H30.4998C31.4998 103.357 31.4998 100.643 30.4998 97.7144Z" fill="black"/>
<path d="M49.8627 120.966C50.1446 120.966 50.398 121.044 50.6227 121.2C50.8475 121.36 51.0246 121.577 51.1541 121.851C51.2799 122.126 51.3427 122.432 51.3427 122.771C51.3427 123.156 51.2646 123.509 51.1084 123.829C50.9522 124.149 50.7446 124.4 50.4856 124.583C50.2227 124.77 49.9408 124.863 49.6399 124.863C49.358 124.863 49.1046 124.785 48.8799 124.629C48.6513 124.472 48.4741 124.257 48.3484 123.983C48.2189 123.709 48.1541 123.4 48.1541 123.057C48.1541 122.669 48.2322 122.314 48.3884 121.994C48.5446 121.678 48.7541 121.427 49.017 121.24C49.2761 121.057 49.558 120.966 49.8627 120.966ZM49.8627 121.509C49.657 121.509 49.4684 121.573 49.297 121.703C49.1218 121.832 48.9827 122.013 48.8799 122.246C48.777 122.478 48.7256 122.741 48.7256 123.034C48.7256 123.301 48.7713 123.531 48.8627 123.726C48.9503 123.92 49.0684 124.067 49.217 124.166C49.3618 124.269 49.5141 124.32 49.6741 124.32C49.8722 124.32 50.0551 124.253 50.2227 124.12C50.3903 123.987 50.5237 123.802 50.6227 123.566C50.7218 123.333 50.7713 123.069 50.7713 122.771C50.7713 122.505 50.7294 122.276 50.6456 122.086C50.5618 121.895 50.4513 121.75 50.3141 121.651C50.1732 121.556 50.0227 121.509 49.8627 121.509ZM47.2187 120.966C47.2987 120.966 47.3654 120.992 47.4187 121.046C47.4721 121.099 47.4987 121.166 47.4987 121.246V124.52C47.4987 124.623 47.4892 124.697 47.4702 124.743C47.4473 124.789 47.4054 124.819 47.3445 124.834C47.2797 124.853 47.1787 124.863 47.0416 124.863H46.8073C46.1673 124.863 45.674 124.756 45.3273 124.543C44.9806 124.33 44.8073 124.03 44.8073 123.646C44.8073 123.158 45.0892 122.789 45.653 122.537C45.2492 122.217 44.933 121.83 44.7045 121.377C44.6854 121.339 44.6759 121.295 44.6759 121.246C44.6759 121.17 44.7026 121.103 44.7559 121.046C44.8054 120.992 44.8721 120.966 44.9559 120.966C45.0626 120.966 45.1464 121.015 45.2073 121.114C45.7102 121.914 46.1597 122.314 46.5559 122.314C46.674 122.314 46.8016 122.303 46.9387 122.28V121.246C46.9387 121.166 46.9673 121.099 47.0245 121.046C47.0778 120.992 47.1426 120.966 47.2187 120.966ZM46.9387 122.806C46.5273 122.832 46.1635 122.916 45.8473 123.057C45.5311 123.198 45.373 123.394 45.373 123.646C45.373 123.863 45.5006 124.029 45.7559 124.143C46.0073 124.257 46.3635 124.314 46.8245 124.314H46.9387V122.806Z" fill="black"/>
<g filter="url(#filter0_d_1701_1547)">
<rect x="86.8569" y="87" width="31" height="30" rx="8" fill="#66B2FF" shape-rendering="crispEdges"/>
<rect x="85.3569" y="85.5" width="34" height="33" rx="9.5" stroke="#005FCC" stroke-width="3" shape-rendering="crispEdges"/>
<path d="M100.214 109.5C99.878 109.5 99.598 109.388 99.374 109.164C99.166 108.94 99.062 108.668 99.062 108.348C99.062 108.028 99.166 107.756 99.374 107.532C99.598 107.308 99.878 107.196 100.214 107.196H101.606L101.774 97.812L100.982 98.652C100.758 98.876 100.478 98.988 100.142 98.988C99.822 98.988 99.55 98.876 99.326 98.652C99.102 98.428 98.99 98.156 98.99 97.836C98.99 97.564 99.094 97.308 99.302 97.068L102.11 94.02C102.206 93.924 102.334 93.844 102.494 93.78C102.654 93.7 102.798 93.66 102.926 93.66C103.278 93.66 103.558 93.78 103.766 94.02C103.99 94.244 104.102 94.508 104.102 94.812L103.934 107.196H104.918C105.286 107.196 105.574 107.308 105.782 107.532C106.006 107.756 106.118 108.028 106.118 108.348C106.118 108.668 105.998 108.94 105.758 109.164C105.534 109.388 105.27 109.5 104.966 109.5H100.214Z" fill="black"/>
</g>
<rect x="52.8569" y="100" width="34" height="4" fill="#005FCC"/>
<path d="M151.965 46.144C150.925 46.144 149.981 45.8 149.133 45.112C148.301 44.408 147.645 43.472 147.165 42.304C146.701 41.136 146.469 39.88 146.469 38.536C146.469 37.08 146.733 35.712 147.261 34.432C147.805 33.136 148.533 32.104 149.445 31.336C150.373 30.552 151.381 30.16 152.469 30.16C153.509 30.16 154.445 30.512 155.277 31.216C156.109 31.904 156.757 32.832 157.221 34C157.701 35.168 157.941 36.432 157.941 37.792C157.941 39.264 157.669 40.64 157.125 41.92C156.597 43.2 155.869 44.224 154.941 44.992C154.029 45.76 153.037 46.144 151.965 46.144ZM151.965 43.84C152.621 43.84 153.229 43.568 153.789 43.024C154.365 42.48 154.821 41.752 155.157 40.84C155.509 39.912 155.685 38.912 155.685 37.84C155.685 36.896 155.541 36.016 155.253 35.2C154.981 34.368 154.597 33.704 154.101 33.208C153.605 32.712 153.061 32.464 152.469 32.464C151.813 32.464 151.197 32.736 150.621 33.28C150.045 33.824 149.589 34.56 149.253 35.488C148.917 36.416 148.749 37.416 148.749 38.488C148.749 39.416 148.885 40.296 149.157 41.128C149.429 41.944 149.813 42.6 150.309 43.096C150.805 43.592 151.357 43.84 151.965 43.84ZM173.486 46.144C172.574 46.144 171.734 45.896 170.966 45.4C170.214 44.904 169.622 44.232 169.19 43.384C168.758 42.52 168.542 41.584 168.542 40.576C168.542 39.44 168.798 38.384 169.31 37.408C169.822 36.416 170.51 35.632 171.374 35.056C172.238 34.464 173.166 34.168 174.158 34.168C175.07 34.168 175.902 34.424 176.654 34.936C177.422 35.448 178.022 36.128 178.454 36.976C178.902 37.824 179.126 38.736 179.126 39.712C179.126 40.864 178.87 41.936 178.358 42.928C177.846 43.904 177.15 44.688 176.27 45.28C175.406 45.856 174.478 46.144 173.486 46.144ZM173.486 43.984C174.046 43.984 174.582 43.792 175.094 43.408C175.606 43.024 176.014 42.512 176.318 41.872C176.622 41.232 176.774 40.552 176.774 39.832C176.774 39.224 176.654 38.656 176.414 38.128C176.174 37.584 175.846 37.152 175.43 36.832C175.014 36.496 174.558 36.328 174.062 36.328C173.502 36.328 172.974 36.528 172.478 36.928C171.998 37.312 171.614 37.832 171.326 38.488C171.038 39.128 170.894 39.816 170.894 40.552C170.894 41.272 171.014 41.888 171.254 42.4C171.51 42.912 171.83 43.304 172.214 43.576C172.614 43.848 173.038 43.984 173.486 43.984ZM182.885 46.144C182.581 46.144 182.309 46.032 182.069 45.808C181.829 45.584 181.709 45.328 181.709 45.04V35.32C181.709 35 181.821 34.728 182.045 34.504C182.285 34.28 182.565 34.168 182.885 34.168C183.205 34.168 183.477 34.28 183.701 34.504C183.941 34.728 184.061 35 184.061 35.32V36.04C184.845 34.76 185.917 34.12 187.277 34.12C188.093 34.12 188.677 34.344 189.029 34.792C189.397 35.24 189.581 35.776 189.581 36.4V37.12C189.581 37.44 189.469 37.712 189.245 37.936C189.037 38.144 188.773 38.248 188.453 38.248C188.069 38.248 187.781 38.136 187.589 37.912C187.413 37.688 187.325 37.416 187.325 37.096V36.784C187.325 36.528 187.149 36.4 186.797 36.4C186.509 36.4 186.173 36.544 185.789 36.832C185.421 37.12 185.117 37.424 184.877 37.744C184.541 38.16 184.317 38.576 184.205 38.992C184.109 39.408 184.061 39.904 184.061 40.48L184.037 45.04C184.037 45.328 183.917 45.584 183.677 45.808C183.437 46.032 183.173 46.144 182.885 46.144ZM200.831 46C200.495 46 200.215 45.888 199.991 45.664C199.783 45.44 199.679 45.168 199.679 44.848C199.679 44.528 199.783 44.256 199.991 44.032C200.215 43.808 200.495 43.696 200.831 43.696H202.223L202.391 34.312L201.599 35.152C201.375 35.376 201.095 35.488 200.759 35.488C200.439 35.488 200.167 35.376 199.943 35.152C199.719 34.928 199.607 34.656 199.607 34.336C199.607 34.064 199.711 33.808 199.919 33.568L202.727 30.52C202.823 30.424 202.951 30.344 203.111 30.28C203.271 30.2 203.415 30.16 203.543 30.16C203.895 30.16 204.175 30.28 204.383 30.52C204.607 30.744 204.719 31.008 204.719 31.312L204.551 43.696H205.535C205.903 43.696 206.191 43.808 206.399 44.032C206.623 44.256 206.735 44.528 206.735 44.848C206.735 45.168 206.615 45.44 206.375 45.664C206.151 45.888 205.887 46 205.583 46H200.831ZM218.688 39.136C218.368 39.136 218.096 39.032 217.872 38.824C217.664 38.6 217.56 38.328 217.56 38.008C217.56 37.704 217.664 37.44 217.872 37.216C218.096 36.976 218.368 36.856 218.688 36.856H224.928C225.232 36.856 225.496 36.976 225.72 37.216C225.96 37.44 226.08 37.704 226.08 38.008C226.08 38.312 225.96 38.576 225.72 38.8C225.496 39.024 225.232 39.136 224.928 39.136H218.688ZM218.688 43.456C218.368 43.456 218.096 43.352 217.872 43.144C217.664 42.92 217.56 42.648 217.56 42.328C217.56 42.024 217.664 41.76 217.872 41.536C218.096 41.296 218.368 41.176 218.688 41.176H224.928C225.232 41.176 225.496 41.296 225.72 41.536C225.96 41.76 226.08 42.024 226.08 42.328C226.08 42.632 225.96 42.896 225.72 43.12C225.496 43.344 225.232 43.456 224.928 43.456H218.688ZM238.519 46C238.183 46 237.903 45.888 237.679 45.664C237.471 45.44 237.367 45.168 237.367 44.848C237.367 44.528 237.471 44.256 237.679 44.032C237.903 43.808 238.183 43.696 238.519 43.696H239.911L240.079 34.312L239.287 35.152C239.063 35.376 238.783 35.488 238.447 35.488C238.127 35.488 237.855 35.376 237.631 35.152C237.407 34.928 237.295 34.656 237.295 34.336C237.295 34.064 237.399 33.808 237.607 33.568L240.415 30.52C240.511 30.424 240.639 30.344 240.799 30.28C240.959 30.2 241.103 30.16 241.231 30.16C241.583 30.16 241.863 30.28 242.071 30.52C242.295 30.744 242.407 31.008 242.407 31.312L242.239 43.696H243.223C243.591 43.696 243.879 43.808 244.087 44.032C244.311 44.256 244.423 44.528 244.423 44.848C244.423 45.168 244.303 45.44 244.063 45.664C243.839 45.888 243.575 46 243.271 46H238.519Z" fill="#F6F8FF"/>
<path d="M145.341 58H245.383V59.2H145.341V58Z" fill="#F6F8FF"/>
<defs>
<filter id="filter0_d_1701_1547" x="53.8569" y="54" width="97" height="96" filterUnits="userSpaceOnUse" color-interpolation-filters="sRGB">
<feFlood flood-opacity="0" result="BackgroundImageFix"/>
<feColorMatrix in="SourceAlpha" type="matrix" values="0 0 0 0 0 0 0 0 0 0 0 0 0 0 0 0 0 0 127 0" result="hardAlpha"/>
<feOffset/>
<feGaussianBlur stdDeviation="15"/>
<feComposite in2="hardAlpha" operator="out"/>
<feColorMatrix type="matrix" values="0 0 0 0 1 0 0 0 0 1 0 0 0 0 1 0 0 0 0.5 0"/>
<feBlend mode="normal" in2="BackgroundImageFix" result="effect1_dropShadow_1701_1547"/>
<feBlend mode="normal" in="SourceGraphic" in2="effect1_dropShadow_1701_1547" result="shape"/>
</filter>
</defs>
</svg>
