<svg width="287" height="213" viewBox="0 0 287 213" fill="none" xmlns="http://www.w3.org/2000/svg">
<rect x="9" y="2" width="264" height="198" fill="#0A0F2C"/>
<rect x="20.5742" y="185.647" width="295.657" height="5" transform="rotate(-36 20.5742 185.647)" fill="#F6F8FF"/>
<g filter="url(#filter0_d_1701_1236)">
<rect x="24" y="24" width="63.2264" height="32.8302" rx="9.66038" fill="#B28DFF" shape-rendering="crispEdges"/>
<rect x="22.1887" y="22.1887" width="66.8491" height="36.4528" rx="11.4717" stroke="#5F2BCF" stroke-width="3.62264" shape-rendering="crispEdges"/>
<g clip-path="url(#clip0_1701_1236)">
<path fill-rule="evenodd" clip-rule="evenodd" d="M46.5406 29.6246C46.7268 29.7017 46.886 29.8323 46.9979 29.9999C47.1099 30.1675 47.1696 30.3645 47.1696 30.566V32.9434H49.547C49.7484 32.9436 49.9452 33.0034 50.1126 33.1154C50.2799 33.2273 50.4104 33.3864 50.4874 33.5725C50.5645 33.7585 50.5847 33.9632 50.5454 34.1608C50.5062 34.3583 50.4093 34.5398 50.267 34.6822L46.1915 38.7577C46.0006 38.9488 45.7416 39.0563 45.4715 39.0566H44.9593C45.2291 40.1016 45.1816 41.2032 44.8228 42.2211C44.4641 43.239 43.8103 44.127 42.945 44.7719C42.0796 45.4168 41.0418 45.7895 39.9638 45.8423C38.8858 45.8951 37.8166 45.6257 36.8923 45.0685C35.968 44.5113 35.2306 43.6914 34.774 42.7135C34.3175 41.7356 34.1625 40.6438 34.3288 39.5775C34.4951 38.5111 34.9752 37.5184 35.7079 36.7259C36.4405 35.9335 37.3926 35.3771 38.4427 35.1278C38.7057 35.0653 38.9828 35.1098 39.2129 35.2516C39.4431 35.3934 39.6076 35.6208 39.6701 35.8838C39.7326 36.1468 39.688 36.4239 39.5463 36.6541C39.4045 36.8843 39.1771 37.0487 38.9141 37.1112C38.2352 37.272 37.6222 37.6379 37.1586 38.1593C36.695 38.6806 36.4033 39.3321 36.3229 40.0251C36.2426 40.7182 36.3777 41.4191 36.7098 42.0327C37.0419 42.6462 37.5549 43.1426 38.179 43.4544C38.8032 43.7661 39.5082 43.8781 40.1982 43.775C40.8882 43.672 41.5298 43.359 42.0356 42.8785C42.5414 42.398 42.887 41.7734 43.0254 41.0896C43.1637 40.4057 43.0881 39.6959 42.8089 39.0566H42.4964L40.4179 41.1351C40.3246 41.2352 40.2122 41.3155 40.0872 41.3712C39.9622 41.4268 39.8273 41.4568 39.6905 41.4592C39.5537 41.4616 39.4178 41.4364 39.2909 41.3852C39.164 41.334 39.0488 41.2577 38.952 41.1609C38.8553 41.0642 38.779 40.9489 38.7278 40.8221C38.6765 40.6952 38.6514 40.5593 38.6538 40.4225C38.6562 40.2857 38.6861 40.1508 38.7418 40.0258C38.7975 39.9008 38.8778 39.7883 38.9779 39.6951L41.0564 37.6166V34.6415C41.0566 34.3714 41.1641 34.1124 41.3553 33.9215L45.4307 29.846C45.5731 29.7035 45.7546 29.6064 45.9521 29.567C46.1497 29.5276 46.3545 29.5476 46.5406 29.6246ZM43.0941 35.064V37.0188H45.0504L47.0881 34.9811H45.1319V33.0249L43.0941 35.064ZM35.3779 32.7124C36.9691 31.8199 38.7976 31.4422 40.6122 31.6311C40.7453 31.6449 40.8798 31.6324 41.008 31.5942C41.1363 31.5561 41.2557 31.493 41.3596 31.4087C41.4635 31.3244 41.5498 31.2204 41.6135 31.1027C41.6772 30.9851 41.7171 30.856 41.7309 30.7229C41.7447 30.5898 41.7322 30.4553 41.694 30.3271C41.6559 30.1988 41.5928 30.0794 41.5085 29.9755C41.4242 29.8716 41.3202 29.7853 41.2026 29.7216C41.0849 29.6579 40.9558 29.618 40.8227 29.6042C38.5892 29.3718 36.3385 29.837 34.3801 30.9358C32.4217 32.0346 30.8518 33.7131 29.8862 35.7405C28.9206 37.7678 28.6067 40.0446 28.9876 42.2576C29.3686 44.4706 30.4258 46.5113 32.0138 48.0991C33.6018 49.6869 35.6426 50.7437 37.8557 51.1244C40.0688 51.5051 42.3454 51.1909 44.3727 50.2249C46.3999 49.259 48.0782 47.6889 49.1767 45.7303C50.2753 43.7718 50.7401 41.521 50.5074 39.2875C50.4936 39.1544 50.4537 39.0254 50.39 38.9077C50.3263 38.79 50.24 38.6861 50.1361 38.6018C50.0323 38.5174 49.9128 38.4544 49.7845 38.4162C49.6563 38.3781 49.5218 38.3655 49.3887 38.3794C49.2556 38.3932 49.1266 38.4331 49.0089 38.4968C48.8912 38.5605 48.7873 38.6468 48.7029 38.7506C48.6186 38.8545 48.5556 38.974 48.5174 39.1023C48.4792 39.2305 48.4667 39.365 48.4806 39.4981C48.646 41.0831 48.3795 42.6833 47.7092 44.1291C47.0389 45.5749 45.9898 46.8123 44.6732 47.7102C43.3566 48.6081 41.8216 49.1329 40.2309 49.2291C38.6402 49.3252 37.0531 48.9891 35.638 48.2564C34.2228 47.5236 33.0323 46.4216 32.1927 45.0671C31.3532 43.7126 30.8958 42.1561 30.8691 40.5627C30.8425 38.9693 31.2475 37.3984 32.0413 36.0166C32.8351 34.6347 33.9881 33.4935 35.3779 32.7138V32.7124Z" fill="black"/>
</g>
<path d="M57.4047 40.8894C57.1471 40.8894 56.9281 40.8056 56.7478 40.6382C56.5803 40.4579 56.4966 40.2389 56.4966 39.9813C56.4966 39.7366 56.5803 39.524 56.7478 39.3437C56.9281 39.1505 57.1471 39.0539 57.4047 39.0539H62.4281C62.6728 39.0539 62.8853 39.1505 63.0657 39.3437C63.2589 39.524 63.3555 39.7366 63.3555 39.9813C63.3555 40.226 63.2589 40.4385 63.0657 40.6189C62.8853 40.7992 62.6728 40.8894 62.4281 40.8894H57.4047ZM57.4047 44.3671C57.1471 44.3671 56.9281 44.2834 56.7478 44.1159C56.5803 43.9356 56.4966 43.7166 56.4966 43.459C56.4966 43.2143 56.5803 43.0018 56.7478 42.8214C56.9281 42.6282 57.1471 42.5316 57.4047 42.5316H62.4281C62.6728 42.5316 62.8853 42.6282 63.0657 42.8214C63.2589 43.0018 63.3555 43.2143 63.3555 43.459C63.3555 43.7038 63.2589 43.9163 63.0657 44.0966C62.8853 44.2769 62.6728 44.3671 62.4281 44.3671H57.4047ZM76.6344 46.531C75.7972 46.531 75.0372 46.2541 74.3546 45.7002C73.6848 45.1335 73.1567 44.38 72.7703 43.4397C72.3967 42.4994 72.21 41.4883 72.21 40.4063C72.21 39.2342 72.4225 38.1329 72.8476 37.1025C73.2855 36.0592 73.8716 35.2284 74.6058 34.6101C75.3528 33.979 76.1643 33.6634 77.0402 33.6634C77.8774 33.6634 78.6309 33.9468 79.3007 34.5135C79.9705 35.0674 80.4921 35.8144 80.8657 36.7547C81.2521 37.695 81.4453 38.7126 81.4453 39.8074C81.4453 40.9924 81.2263 42.1001 80.7884 43.1306C80.3633 44.161 79.7773 44.9854 79.0302 45.6036C78.296 46.2219 77.4974 46.531 76.6344 46.531ZM76.6344 44.6762C77.1625 44.6762 77.652 44.4573 78.1028 44.0193C78.5665 43.5814 78.9336 42.9953 79.2041 42.2611C79.4875 41.5141 79.6291 40.709 79.6291 39.846C79.6291 39.0861 79.5132 38.3777 79.2814 37.7208C79.0624 37.051 78.7533 36.5164 78.354 36.1171C77.9547 35.7178 77.5167 35.5182 77.0402 35.5182C76.5121 35.5182 76.0162 35.7372 75.5525 36.1751C75.0888 36.613 74.7217 37.2055 74.4512 37.9526C74.1807 38.6997 74.0454 39.5047 74.0454 40.3677C74.0454 41.1148 74.1549 41.8232 74.3739 42.493C74.5929 43.1499 74.902 43.678 75.3013 44.0773C75.7006 44.4766 76.145 44.6762 76.6344 44.6762Z" fill="black"/>
</g>
<g filter="url(#filter1_d_1701_1236)">
<rect x="189" y="145" width="63.4" height="34.12" rx="10.24" fill="#66B2FF" shape-rendering="crispEdges"/>
<rect x="187.08" y="143.08" width="67.24" height="37.96" rx="12.16" stroke="#005FCC" stroke-width="3.84" shape-rendering="crispEdges"/>
<g clip-path="url(#clip1_1701_1236)">
<path fill-rule="evenodd" clip-rule="evenodd" d="M212.893 150.622C213.091 150.704 213.259 150.842 213.378 151.02C213.497 151.198 213.56 151.406 213.56 151.62V154.14H216.08C216.293 154.14 216.502 154.204 216.68 154.322C216.857 154.441 216.995 154.61 217.077 154.807C217.159 155.004 217.18 155.221 217.138 155.43C217.097 155.64 216.994 155.832 216.843 155.983L212.523 160.303C212.321 160.506 212.046 160.62 211.76 160.62H211.217C211.503 161.728 211.453 162.895 211.072 163.974C210.692 165.053 209.999 165.995 209.082 166.678C208.165 167.362 207.065 167.757 205.922 167.813C204.779 167.869 203.646 167.583 202.666 166.993C201.686 166.402 200.905 165.533 200.421 164.496C199.937 163.46 199.772 162.302 199.949 161.172C200.125 160.042 200.634 158.99 201.411 158.15C202.187 157.309 203.196 156.72 204.309 156.456C204.588 156.389 204.882 156.436 205.126 156.587C205.37 156.737 205.544 156.978 205.611 157.257C205.677 157.536 205.63 157.829 205.479 158.073C205.329 158.317 205.088 158.492 204.809 158.558C204.09 158.728 203.44 159.116 202.948 159.669C202.457 160.221 202.148 160.912 202.063 161.647C201.977 162.381 202.121 163.124 202.473 163.775C202.825 164.425 203.368 164.951 204.03 165.282C204.692 165.612 205.439 165.731 206.17 165.622C206.902 165.512 207.582 165.181 208.118 164.671C208.654 164.162 209.02 163.5 209.167 162.775C209.314 162.05 209.234 161.298 208.938 160.62H208.606L206.403 162.823C206.304 162.929 206.185 163.014 206.053 163.073C205.92 163.132 205.777 163.164 205.632 163.167C205.487 163.169 205.343 163.143 205.209 163.088C205.074 163.034 204.952 162.953 204.849 162.851C204.747 162.748 204.666 162.626 204.612 162.491C204.557 162.357 204.531 162.213 204.533 162.068C204.536 161.923 204.568 161.78 204.627 161.647C204.686 161.515 204.771 161.396 204.877 161.297L207.08 159.094V155.94C207.08 155.654 207.194 155.379 207.397 155.177L211.717 150.857C211.868 150.706 212.06 150.603 212.269 150.561C212.479 150.519 212.696 150.541 212.893 150.622ZM209.24 156.388V158.46H211.314L213.474 156.3H211.4V154.226L209.24 156.388ZM201.061 153.895C202.747 152.949 204.686 152.549 206.609 152.749C206.75 152.764 206.893 152.75 207.029 152.71C207.165 152.669 207.291 152.603 207.401 152.513C207.512 152.424 207.603 152.314 207.671 152.189C207.738 152.064 207.78 151.927 207.795 151.786C207.81 151.645 207.796 151.503 207.756 151.367C207.715 151.231 207.649 151.104 207.559 150.994C207.47 150.884 207.36 150.792 207.235 150.725C207.11 150.657 206.973 150.615 206.832 150.6C204.465 150.354 202.079 150.847 200.003 152.012C197.927 153.177 196.263 154.956 195.24 157.105C194.216 159.254 193.883 161.667 194.287 164.013C194.691 166.359 195.812 168.522 197.495 170.205C199.178 171.888 201.341 173.008 203.687 173.412C206.033 173.815 208.446 173.482 210.595 172.458C212.744 171.435 214.523 169.77 215.688 167.694C216.852 165.618 217.345 163.232 217.098 160.865C217.083 160.724 217.041 160.587 216.974 160.462C216.906 160.337 216.815 160.227 216.705 160.138C216.594 160.048 216.468 159.982 216.332 159.941C216.196 159.901 216.053 159.887 215.912 159.902C215.771 159.917 215.634 159.959 215.51 160.027C215.385 160.094 215.275 160.186 215.185 160.296C215.096 160.406 215.029 160.532 214.989 160.668C214.948 160.804 214.935 160.947 214.95 161.088C215.125 162.768 214.842 164.464 214.132 165.997C213.421 167.529 212.309 168.841 210.914 169.793C209.518 170.745 207.891 171.301 206.205 171.403C204.519 171.505 202.837 171.148 201.336 170.372C199.836 169.595 198.574 168.427 197.685 166.991C196.795 165.555 196.31 163.905 196.282 162.216C196.253 160.527 196.683 158.862 197.524 157.398C198.365 155.933 199.588 154.723 201.061 153.897V153.895Z" fill="black"/>
</g>
<path d="M224.439 162.703C224.166 162.703 223.934 162.614 223.743 162.437C223.565 162.245 223.476 162.013 223.476 161.74C223.476 161.481 223.565 161.255 223.743 161.064C223.934 160.86 224.166 160.757 224.439 160.757H229.764C230.023 160.757 230.248 160.86 230.44 161.064C230.644 161.255 230.747 161.481 230.747 161.74C230.747 162 230.644 162.225 230.44 162.416C230.248 162.607 230.023 162.703 229.764 162.703H224.439ZM224.439 166.389C224.166 166.389 223.934 166.3 223.743 166.123C223.565 165.932 223.476 165.7 223.476 165.427C223.476 165.167 223.565 164.942 223.743 164.751C223.934 164.546 224.166 164.444 224.439 164.444H229.764C230.023 164.444 230.248 164.546 230.44 164.751C230.644 164.942 230.747 165.167 230.747 165.427C230.747 165.686 230.644 165.911 230.44 166.102C230.248 166.294 230.023 166.389 229.764 166.389H224.439ZM241.361 168.56C241.075 168.56 240.836 168.464 240.645 168.273C240.467 168.082 240.378 167.85 240.378 167.577C240.378 167.304 240.467 167.072 240.645 166.881C240.836 166.69 241.075 166.594 241.361 166.594H242.549L242.693 158.586L242.017 159.303C241.826 159.494 241.587 159.59 241.3 159.59C241.027 159.59 240.795 159.494 240.604 159.303C240.412 159.112 240.317 158.88 240.317 158.607C240.317 158.375 240.406 158.156 240.583 157.951L242.979 155.35C243.061 155.269 243.17 155.2 243.307 155.146C243.444 155.077 243.566 155.043 243.676 155.043C243.976 155.043 244.215 155.146 244.392 155.35C244.584 155.542 244.679 155.767 244.679 156.026L244.536 166.594H245.375C245.689 166.594 245.935 166.69 246.113 166.881C246.304 167.072 246.399 167.304 246.399 167.577C246.399 167.85 246.297 168.082 246.092 168.273C245.901 168.464 245.676 168.56 245.416 168.56H241.361Z" fill="black"/>
</g>
<g filter="url(#filter2_d_1701_1236)">
<rect x="126" y="86" width="31" height="30" rx="8" fill="#828282" shape-rendering="crispEdges"/>
<rect x="124.5" y="84.5" width="34" height="33" rx="9.5" stroke="#282828" stroke-width="3" shape-rendering="crispEdges"/>
<g clip-path="url(#clip2_1701_1236)">
<path fill-rule="evenodd" clip-rule="evenodd" d="M147.167 92.0641C147.321 92.128 147.453 92.2361 147.545 92.3749C147.638 92.5137 147.687 92.6768 147.687 92.8437V94.8125H149.656C149.823 94.8126 149.986 94.8622 150.125 94.9549C150.263 95.0476 150.371 95.1794 150.435 95.3334C150.499 95.4875 150.516 95.6571 150.483 95.8206C150.451 95.9842 150.37 96.1345 150.252 96.2525L146.877 99.6275C146.719 99.7858 146.505 99.8748 146.281 99.875H145.857C146.08 100.74 146.041 101.653 145.744 102.496C145.447 103.339 144.906 104.074 144.189 104.608C143.472 105.142 142.613 105.451 141.72 105.494C140.827 105.538 139.942 105.315 139.177 104.854C138.411 104.392 137.8 103.713 137.422 102.903C137.044 102.094 136.916 101.189 137.054 100.306C137.191 99.4232 137.589 98.6012 138.196 97.9449C138.802 97.2887 139.591 96.8279 140.46 96.6215C140.678 96.5697 140.908 96.6066 141.098 96.724C141.289 96.8414 141.425 97.0297 141.477 97.2475C141.529 97.4654 141.492 97.6948 141.374 97.8854C141.257 98.076 141.069 98.2122 140.851 98.264C140.289 98.3971 139.781 98.7001 139.397 99.1319C139.013 99.5636 138.772 100.103 138.705 100.677C138.639 101.251 138.75 101.831 139.025 102.34C139.3 102.848 139.725 103.259 140.242 103.517C140.759 103.775 141.343 103.868 141.914 103.782C142.486 103.697 143.017 103.438 143.436 103.04C143.855 102.642 144.141 102.125 144.255 101.559C144.37 100.992 144.307 100.404 144.076 99.875H143.817L142.096 101.596C142.019 101.679 141.926 101.746 141.822 101.792C141.719 101.838 141.607 101.863 141.494 101.865C141.38 101.867 141.268 101.846 141.163 101.803C141.058 101.761 140.962 101.698 140.882 101.618C140.802 101.538 140.739 101.442 140.697 101.337C140.654 101.232 140.633 101.119 140.635 101.006C140.637 100.893 140.662 100.781 140.708 100.678C140.754 100.574 140.821 100.481 140.904 100.404L142.625 98.6825V96.2187C142.625 95.995 142.714 95.7806 142.872 95.6225L146.247 92.2475C146.365 92.1295 146.516 92.0491 146.679 92.0164C146.843 91.9838 147.012 92.0004 147.167 92.0641ZM144.312 96.5686V98.1875H145.932L147.62 96.5H146V94.88L144.312 96.5686ZM137.922 94.6212C139.24 93.8821 140.754 93.5693 142.257 93.7257C142.367 93.7372 142.479 93.7268 142.585 93.6952C142.691 93.6636 142.79 93.6114 142.876 93.5416C142.962 93.4717 143.033 93.3856 143.086 93.2882C143.139 93.1908 143.172 93.0839 143.183 92.9737C143.195 92.8635 143.185 92.7521 143.153 92.6459C143.121 92.5397 143.069 92.4407 142.999 92.3547C142.929 92.2687 142.843 92.1972 142.746 92.1445C142.649 92.0917 142.542 92.0587 142.431 92.0472C140.582 91.8548 138.718 92.24 137.096 93.15C135.474 94.0599 134.174 95.4499 133.375 97.1288C132.575 98.8078 132.315 100.693 132.63 102.526C132.946 104.359 133.821 106.048 135.136 107.363C136.452 108.678 138.142 109.553 139.974 109.869C141.807 110.184 143.692 109.924 145.371 109.124C147.05 108.324 148.44 107.024 149.35 105.402C150.259 103.78 150.644 101.916 150.452 100.066C150.44 99.956 150.407 99.8491 150.354 99.7517C150.302 99.6543 150.23 99.5682 150.144 99.4983C150.058 99.4285 149.959 99.3763 149.853 99.3447C149.747 99.3131 149.635 99.3027 149.525 99.3142C149.415 99.3256 149.308 99.3587 149.211 99.4114C149.113 99.4642 149.027 99.5356 148.957 99.6216C148.887 99.7077 148.835 99.8066 148.804 99.9128C148.772 100.019 148.762 100.13 148.773 100.241C148.91 101.553 148.689 102.878 148.134 104.076C147.579 105.273 146.71 106.298 145.62 107.041C144.53 107.785 143.259 108.219 141.941 108.299C140.624 108.379 139.31 108.1 138.138 107.494C136.966 106.887 135.98 105.974 135.285 104.852C134.589 103.731 134.211 102.442 134.189 101.122C134.167 99.8027 134.502 98.5018 135.159 97.3575C135.817 96.2131 136.771 95.268 137.922 94.6224V94.6212Z" fill="black"/>
</g>
</g>
<defs>
<filter id="filter0_d_1701_1236" x="0.377441" y="0.37735" width="110.472" height="80.0755" filterUnits="userSpaceOnUse" color-interpolation-filters="sRGB">
<feFlood flood-opacity="0" result="BackgroundImageFix"/>
<feColorMatrix in="SourceAlpha" type="matrix" values="0 0 0 0 0 0 0 0 0 0 0 0 0 0 0 0 0 0 127 0" result="hardAlpha"/>
<feOffset/>
<feGaussianBlur stdDeviation="10"/>
<feComposite in2="hardAlpha" operator="out"/>
<feColorMatrix type="matrix" values="0 0 0 0 0.372549 0 0 0 0 0.168627 0 0 0 0 0.811765 0 0 0 0.5 0"/>
<feBlend mode="normal" in2="BackgroundImageFix" result="effect1_dropShadow_1701_1236"/>
<feBlend mode="normal" in="SourceGraphic" in2="effect1_dropShadow_1701_1236" result="shape"/>
</filter>
<filter id="filter1_d_1701_1236" x="155.16" y="111.16" width="131.08" height="101.8" filterUnits="userSpaceOnUse" color-interpolation-filters="sRGB">
<feFlood flood-opacity="0" result="BackgroundImageFix"/>
<feColorMatrix in="SourceAlpha" type="matrix" values="0 0 0 0 0 0 0 0 0 0 0 0 0 0 0 0 0 0 127 0" result="hardAlpha"/>
<feOffset/>
<feGaussianBlur stdDeviation="15"/>
<feComposite in2="hardAlpha" operator="out"/>
<feColorMatrix type="matrix" values="0 0 0 0 0 0 0 0 0 0.372549 0 0 0 0 0.8 0 0 0 0.5 0"/>
<feBlend mode="normal" in2="BackgroundImageFix" result="effect1_dropShadow_1701_1236"/>
<feBlend mode="normal" in="SourceGraphic" in2="effect1_dropShadow_1701_1236" result="shape"/>
</filter>
<filter id="filter2_d_1701_1236" x="113" y="73" width="57" height="56" filterUnits="userSpaceOnUse" color-interpolation-filters="sRGB">
<feFlood flood-opacity="0" result="BackgroundImageFix"/>
<feColorMatrix in="SourceAlpha" type="matrix" values="0 0 0 0 0 0 0 0 0 0 0 0 0 0 0 0 0 0 127 0" result="hardAlpha"/>
<feOffset/>
<feGaussianBlur stdDeviation="5"/>
<feComposite in2="hardAlpha" operator="out"/>
<feColorMatrix type="matrix" values="0 0 0 0 1 0 0 0 0 1 0 0 0 0 1 0 0 0 0.5 0"/>
<feBlend mode="normal" in2="BackgroundImageFix" result="effect1_dropShadow_1701_1236"/>
<feBlend mode="normal" in="SourceGraphic" in2="effect1_dropShadow_1701_1236" result="shape"/>
</filter>
<clipPath id="clip0_1701_1236">
<rect width="21.7358" height="21.7358" fill="white" transform="translate(28.8301 29.5472)"/>
</clipPath>
<clipPath id="clip1_1701_1236">
<rect width="23.04" height="23.04" fill="white" transform="translate(194.12 150.54)"/>
</clipPath>
<clipPath id="clip2_1701_1236">
<rect width="18" height="18" fill="white" transform="translate(132.5 92)"/>
</clipPath>
</defs>
</svg>
