<svg width="288" height="198" viewBox="0 0 288 198" fill="none" xmlns="http://www.w3.org/2000/svg">
<rect x="12" width="264" height="198" fill="#0A0F2C"/>
<g filter="url(#filter0_d_1701_1297)">
<rect x="24.4598" y="67.4598" width="44.1379" height="63.4483" fill="#FF8C00" stroke="black" stroke-width="0.91954"/>
<path d="M58.5747 72.0576C62.5867 72.0576 65.8394 75.3103 65.8394 79.3223V95.8731C65.8394 112.683 52.2124 126.31 35.4028 126.311C31.3908 126.311 28.1382 123.058 28.1382 119.046V102.494C28.1382 85.6845 41.765 72.0577 58.5747 72.0576Z" fill="#F6F8FF" stroke="black" stroke-width="0.91954"/>
<path d="M29.4731 75.0515C29.2966 75.0515 29.1813 74.9681 29.1274 74.8014L28.5977 73.2713L27.097 73.6023L26.6189 74.8087C26.5895 74.8774 26.5453 74.9338 26.4865 74.9779C26.4325 75.0221 26.3639 75.0441 26.2805 75.0441C26.1824 75.0441 26.0966 75.0098 26.023 74.9411C25.9495 74.8725 25.9127 74.7916 25.9127 74.6984C25.9127 74.6346 25.9298 74.5611 25.9642 74.4777L26.2584 73.7421C26.229 73.7323 26.2069 73.7225 26.1922 73.7126C26.0647 73.6489 26.001 73.541 26.001 73.389C26.001 73.3007 26.0255 73.2247 26.0745 73.1609C26.1285 73.0972 26.1971 73.0555 26.2805 73.0359L26.5527 72.977L27.6414 70.211C27.6708 70.1375 27.7174 70.0811 27.7812 70.0418C27.8449 70.0026 27.9136 69.983 27.9872 69.983C28.0656 69.983 28.1343 70.0026 28.1931 70.0418C28.252 70.0811 28.2961 70.1424 28.3255 70.2257L29.7895 74.4703C29.7944 74.4802 29.8042 74.5096 29.8189 74.5586C29.8336 74.6028 29.841 74.6493 29.841 74.6984C29.841 74.7916 29.8066 74.8749 29.738 74.9485C29.6693 75.0172 29.581 75.0515 29.4731 75.0515ZM28.355 72.5871L27.9577 71.4028L27.406 72.7931L28.355 72.5871ZM30.8102 75.0441C30.717 75.0441 30.6337 75.0074 30.5601 74.9338C30.4865 74.8602 30.4497 74.7769 30.4497 74.6837L30.4571 70.3949C30.4571 70.2969 30.489 70.2135 30.5527 70.1448C30.6214 70.0713 30.7072 70.0345 30.8102 70.0345C30.8691 70.0345 30.9255 70.0492 30.9794 70.0786C31.0333 70.1031 31.0775 70.1399 31.1118 70.189L33.4143 73.5214V70.3949C33.4143 70.2969 33.4487 70.211 33.5173 70.1375C33.5909 70.0639 33.6792 70.0271 33.7822 70.0271C33.8802 70.0271 33.9636 70.0639 34.0323 70.1375C34.1058 70.211 34.1426 70.2969 34.1426 70.3949V74.6837C34.1426 74.7867 34.1083 74.8725 34.0396 74.9411C33.971 75.0098 33.8851 75.0441 33.7822 75.0441C33.7282 75.0441 33.6718 75.0294 33.613 75C33.559 74.9706 33.5149 74.9313 33.4805 74.8823L31.1854 71.5646L31.178 74.6837C31.178 74.7867 31.1412 74.8725 31.0677 74.9411C30.999 75.0098 30.9132 75.0441 30.8102 75.0441ZM36.4109 75.0883C36.2392 75.0883 36.0651 75.0711 35.8886 75.0368C35.712 75.0074 35.5919 74.9828 35.5281 74.9632C35.4497 74.9387 35.3835 74.8921 35.3295 74.8234C35.2756 74.7548 35.2486 74.6812 35.2486 74.6028V70.4317C35.2486 70.3287 35.2829 70.2429 35.3516 70.1743C35.4251 70.1056 35.5134 70.0713 35.6164 70.0713C36.1117 70.0713 36.612 70.1448 37.1171 70.292C37.6222 70.4391 38.0587 70.7137 38.4265 71.1159C38.7992 71.518 38.9856 72.0746 38.9856 72.7857C38.9856 73.3007 38.8728 73.7323 38.6472 74.0805C38.4216 74.4238 38.1151 74.6788 37.7277 74.8455C37.3402 75.0074 36.9013 75.0883 36.4109 75.0883ZM36.4109 74.3526C36.9847 74.3526 37.4334 74.2202 37.7571 73.9554C38.0857 73.6906 38.25 73.3007 38.25 72.7857C38.25 72.1482 38.0415 71.6749 37.6247 71.366C37.2127 71.057 36.6659 70.8756 35.9842 70.8216V74.3085C36.151 74.3379 36.2932 74.3526 36.4109 74.3526Z" fill="black"/>
<path d="M37.3333 91.8276V106.54H48.3677C50.3188 106.54 52.1899 105.765 53.5694 104.386C54.949 103.006 55.7241 101.135 55.7241 99.1839C55.7241 97.2329 54.949 95.3618 53.5694 93.9822C52.1899 92.6026 50.3188 91.8276 48.3677 91.8276H37.3333ZM39.1723 93.6667H48.3677C49.831 93.6667 51.2343 94.2479 52.269 95.2826C53.3037 96.3173 53.885 97.7206 53.885 99.1839C53.885 100.647 53.3037 102.05 52.269 103.085C51.2343 104.12 49.831 104.701 48.3677 104.701H39.1723V93.6667Z" fill="black"/>
<path d="M63.5845 123.316C63.761 123.316 63.8763 123.4 63.9302 123.566L64.4599 125.097L65.9606 124.765L66.4387 123.559C66.4682 123.49 66.5123 123.434 66.5711 123.39C66.6251 123.346 66.6938 123.324 66.7771 123.324C66.8752 123.324 66.961 123.358 67.0346 123.427C67.1082 123.495 67.1449 123.576 67.1449 123.669C67.1449 123.733 67.1278 123.807 67.0934 123.89L66.7992 124.626C66.8286 124.636 66.8507 124.645 66.8654 124.655C66.9929 124.719 67.0567 124.827 67.0567 124.979C67.0567 125.067 67.0321 125.143 66.9831 125.207C66.9292 125.271 66.8605 125.312 66.7771 125.332L66.5049 125.391L65.4162 128.157C65.3868 128.23 65.3402 128.287 65.2764 128.326C65.2127 128.365 65.144 128.385 65.0705 128.385C64.992 128.385 64.9233 128.365 64.8645 128.326C64.8056 128.287 64.7615 128.225 64.7321 128.142L63.2682 123.897C63.2633 123.888 63.2534 123.858 63.2387 123.809C63.224 123.765 63.2167 123.718 63.2167 123.669C63.2167 123.576 63.251 123.493 63.3197 123.419C63.3883 123.351 63.4766 123.316 63.5845 123.316ZM64.7026 125.781L65.0999 126.965L65.6516 125.575L64.7026 125.781ZM62.2474 123.324C62.3406 123.324 62.424 123.36 62.4975 123.434C62.5711 123.508 62.6079 123.591 62.6079 123.684L62.6005 127.973C62.6005 128.071 62.5686 128.154 62.5049 128.223C62.4362 128.297 62.3504 128.333 62.2474 128.333C62.1886 128.333 62.1322 128.319 62.0782 128.289C62.0243 128.265 61.9801 128.228 61.9458 128.179L59.6433 124.846V127.973C59.6433 128.071 59.6089 128.157 59.5403 128.23C59.4667 128.304 59.3784 128.341 59.2755 128.341C59.1774 128.341 59.094 128.304 59.0253 128.23C58.9518 128.157 58.915 128.071 58.915 127.973V123.684C58.915 123.581 58.9493 123.495 59.018 123.427C59.0866 123.358 59.1725 123.324 59.2755 123.324C59.3294 123.324 59.3858 123.338 59.4447 123.368C59.4986 123.397 59.5427 123.436 59.5771 123.485L61.8722 126.803L61.8796 123.684C61.8796 123.581 61.9164 123.495 61.9899 123.427C62.0586 123.358 62.1444 123.324 62.2474 123.324ZM56.6467 123.28C56.8184 123.28 56.9925 123.297 57.169 123.331C57.3456 123.36 57.4657 123.385 57.5295 123.405C57.608 123.429 57.6742 123.476 57.7281 123.544C57.782 123.613 57.809 123.687 57.809 123.765V127.936C57.809 128.039 57.7747 128.125 57.706 128.194C57.6325 128.262 57.5442 128.297 57.4412 128.297C56.9459 128.297 56.4457 128.223 55.9405 128.076C55.4354 127.929 54.9989 127.654 54.6311 127.252C54.2584 126.85 54.072 126.293 54.072 125.582C54.072 125.067 54.1848 124.636 54.4104 124.287C54.636 123.944 54.9425 123.689 55.3299 123.522C55.7174 123.36 56.1563 123.28 56.6467 123.28ZM56.6467 124.015C56.0729 124.015 55.6242 124.148 55.3005 124.412C54.9719 124.677 54.8076 125.067 54.8076 125.582C54.8076 126.22 55.0161 126.693 55.4329 127.002C55.8449 127.311 56.3917 127.492 57.0734 127.546V124.059C56.9066 124.03 56.7644 124.015 56.6467 124.015Z" fill="black"/>
<rect x="73.1954" y="67.4598" width="44.1379" height="63.4483" fill="#3CB371" stroke="black" stroke-width="0.91954"/>
<path d="M107.31 72.0576C111.322 72.0576 114.575 75.3103 114.575 79.3223V95.8731C114.575 112.683 100.948 126.31 84.1384 126.311C80.1264 126.311 76.8738 123.058 76.8738 119.046V102.494C76.8738 85.6845 90.5006 72.0577 107.31 72.0576Z" fill="#F6F8FF" stroke="black" stroke-width="0.91954"/>
<path d="M76.7742 75.0441C76.4113 75.0441 76.0852 74.9436 75.7959 74.7425C75.5065 74.5366 75.2785 74.257 75.1117 73.9039C74.9499 73.5508 74.869 73.156 74.869 72.7195C74.869 72.2242 74.9695 71.7706 75.1706 71.3586C75.3716 70.9467 75.6389 70.623 75.9724 70.3876C76.3108 70.1473 76.6737 70.0271 77.0611 70.0271C77.4241 70.0271 77.7502 70.1277 78.0395 70.3287C78.3338 70.5298 78.5618 70.8069 78.7237 71.16C78.8904 71.5131 78.9738 71.9103 78.9738 72.3517C78.9738 72.852 78.8733 73.308 78.6722 73.72C78.4711 74.127 78.2014 74.4507 77.863 74.691C77.5295 74.9264 77.1666 75.0441 76.7742 75.0441ZM76.7742 74.3453C77.0391 74.3453 77.2818 74.2619 77.5025 74.0952C77.7281 73.9284 77.9071 73.6955 78.0395 73.3963C78.1719 73.0972 78.2382 72.7588 78.2382 72.3811C78.2382 72.0379 78.1793 71.7411 78.0616 71.491C77.9488 71.2409 77.7968 71.0521 77.6055 70.9246C77.4192 70.7922 77.223 70.726 77.017 70.726C76.762 70.726 76.5266 70.8118 76.3108 70.9834C76.095 71.1551 75.9234 71.3929 75.7959 71.697C75.6683 71.9962 75.6046 72.337 75.6046 72.7195C75.6046 73.0628 75.6585 73.3571 75.7664 73.6023C75.8743 73.8475 76.0165 74.0339 76.1931 74.1614C76.3746 74.284 76.5683 74.3453 76.7742 74.3453ZM80.178 75.0441C80.075 75.0441 79.9892 75.0098 79.9205 74.9411C79.8519 74.8725 79.8175 74.7867 79.8175 74.6837V70.4685C79.8175 70.3361 79.8298 70.2405 79.8543 70.1816C79.8837 70.1228 79.9377 70.0835 80.0161 70.0639C80.0995 70.0394 80.2295 70.0271 80.406 70.0271H80.7076C81.5315 70.0271 82.1666 70.1644 82.6129 70.4391C83.0592 70.7137 83.2824 71.0987 83.2824 71.594C83.2824 72.2218 82.9194 72.6975 82.1936 73.0211C82.7135 73.4331 83.1205 73.9309 83.4148 74.5145C83.4393 74.5635 83.4515 74.6199 83.4515 74.6837C83.4515 74.7818 83.4172 74.8676 83.3486 74.9411C83.2848 75.0098 83.199 75.0441 83.0911 75.0441C82.9538 75.0441 82.8459 74.9804 82.7674 74.8529C82.1201 73.823 81.5414 73.308 81.0313 73.308C80.8793 73.308 80.715 73.3228 80.5384 73.3522V74.6837C80.5384 74.7867 80.5017 74.8725 80.4281 74.9411C80.3594 75.0098 80.2761 75.0441 80.178 75.0441ZM80.5384 72.6754C81.0681 72.6411 81.5365 72.5332 81.9435 72.3517C82.3506 72.1703 82.5541 71.9177 82.5541 71.594C82.5541 71.3145 82.3898 71.1011 82.0612 70.954C81.7375 70.8069 81.279 70.7333 80.6856 70.7333H80.5384V72.6754Z" fill="black"/>
<path d="M86.0688 91.8276C88.8275 97.3448 88.8275 101.023 86.0688 106.54H91.5861C96.1838 106.54 101.701 102.862 104.46 99.1839C101.701 95.5057 96.1838 91.8276 91.5861 91.8276H86.0688ZM88.8275 93.6667H91.5861C94.8045 93.6667 99.2183 96.4253 101.977 99.1839C99.2183 101.943 94.8045 104.701 91.5861 104.701H88.8275C90.1148 100.931 90.1148 97.4368 88.8275 93.6667Z" fill="black"/>
<path d="M113.755 123.324C114.117 123.324 114.444 123.424 114.733 123.625C115.022 123.831 115.25 124.111 115.417 124.464C115.579 124.817 115.66 125.212 115.66 125.648C115.66 126.144 115.559 126.597 115.358 127.009C115.157 127.421 114.89 127.745 114.556 127.98C114.218 128.221 113.855 128.341 113.468 128.341C113.105 128.341 112.779 128.24 112.489 128.039C112.195 127.838 111.967 127.561 111.805 127.208C111.638 126.855 111.555 126.457 111.555 126.016C111.555 125.516 111.656 125.06 111.857 124.648C112.058 124.241 112.327 123.917 112.666 123.677C112.999 123.441 113.362 123.324 113.755 123.324ZM113.755 124.023C113.49 124.023 113.247 124.106 113.026 124.273C112.801 124.439 112.622 124.672 112.489 124.971C112.357 125.271 112.291 125.609 112.291 125.987C112.291 126.33 112.35 126.627 112.467 126.877C112.58 127.127 112.732 127.316 112.923 127.443C113.11 127.576 113.306 127.642 113.512 127.642C113.767 127.642 114.002 127.556 114.218 127.384C114.434 127.213 114.605 126.975 114.733 126.671C114.86 126.372 114.924 126.031 114.924 125.648C114.924 125.305 114.87 125.011 114.762 124.765C114.654 124.52 114.512 124.334 114.336 124.206C114.154 124.084 113.961 124.023 113.755 124.023ZM110.351 123.324C110.454 123.324 110.54 123.358 110.608 123.427C110.677 123.495 110.711 123.581 110.711 123.684V127.899C110.711 128.032 110.699 128.127 110.675 128.186C110.645 128.245 110.591 128.284 110.513 128.304C110.429 128.328 110.299 128.341 110.123 128.341H109.821C108.997 128.341 108.362 128.203 107.916 127.929C107.47 127.654 107.246 127.269 107.246 126.774C107.246 126.146 107.609 125.67 108.335 125.347C107.815 124.935 107.408 124.437 107.114 123.853C107.09 123.804 107.077 123.748 107.077 123.684C107.077 123.586 107.112 123.5 107.18 123.427C107.244 123.358 107.33 123.324 107.438 123.324C107.575 123.324 107.683 123.387 107.761 123.515C108.409 124.545 108.987 125.06 109.497 125.06C109.65 125.06 109.814 125.045 109.99 125.016V123.684C109.99 123.581 110.027 123.495 110.101 123.427C110.169 123.358 110.253 123.324 110.351 123.324ZM109.99 125.692C109.461 125.727 108.992 125.835 108.585 126.016C108.178 126.198 107.975 126.45 107.975 126.774C107.975 127.053 108.139 127.267 108.468 127.414C108.791 127.561 109.25 127.634 109.843 127.634H109.99V125.692Z" fill="black"/>
<rect x="121.931" y="67.4598" width="44.1379" height="63.4483" fill="#B22222" stroke="black" stroke-width="0.91954"/>
<path d="M156.046 72.0576C160.058 72.0576 163.311 75.3103 163.311 79.3223V95.8731C163.311 112.683 149.684 126.31 132.874 126.311C128.862 126.311 125.609 123.058 125.609 119.046V102.494C125.609 85.6845 139.236 72.0577 156.046 72.0576Z" fill="#F6F8FF" stroke="black" stroke-width="0.91954"/>
<path d="M124.222 75.0441C124.129 75.0441 124.046 75.0074 123.972 74.9338C123.899 74.8602 123.862 74.7769 123.862 74.6837L123.869 70.3949C123.869 70.2969 123.901 70.2135 123.965 70.1448C124.034 70.0713 124.119 70.0345 124.222 70.0345C124.281 70.0345 124.338 70.0492 124.392 70.0786C124.446 70.1031 124.49 70.1399 124.524 70.189L126.827 73.5214V70.3949C126.827 70.2969 126.861 70.211 126.93 70.1375C127.003 70.0639 127.091 70.0271 127.194 70.0271C127.293 70.0271 127.376 70.0639 127.445 70.1375C127.518 70.211 127.555 70.2969 127.555 70.3949V74.6837C127.555 74.7867 127.521 74.8725 127.452 74.9411C127.383 75.0098 127.297 75.0441 127.194 75.0441C127.14 75.0441 127.084 75.0294 127.025 75C126.971 74.9706 126.927 74.9313 126.893 74.8823L124.598 71.5646L124.59 74.6837C124.59 74.7867 124.554 74.8725 124.48 74.9411C124.411 75.0098 124.325 75.0441 124.222 75.0441ZM131.743 75.0515C131.567 75.0515 131.451 74.9681 131.397 74.8014L130.868 73.2713L129.367 73.6023L128.889 74.8087C128.859 74.8774 128.815 74.9338 128.757 74.9779C128.703 75.0221 128.634 75.0441 128.551 75.0441C128.452 75.0441 128.367 75.0098 128.293 74.9411C128.219 74.8725 128.183 74.7916 128.183 74.6984C128.183 74.6346 128.2 74.5611 128.234 74.4777L128.528 73.7421C128.499 73.7323 128.477 73.7225 128.462 73.7126C128.335 73.6489 128.271 73.541 128.271 73.389C128.271 73.3007 128.296 73.2247 128.345 73.1609C128.399 73.0972 128.467 73.0555 128.551 73.0359L128.823 72.977L129.911 70.211C129.941 70.1375 129.987 70.0811 130.051 70.0418C130.115 70.0026 130.184 69.983 130.257 69.983C130.336 69.983 130.404 70.0026 130.463 70.0418C130.522 70.0811 130.566 70.1424 130.596 70.2257L132.059 74.4703C132.064 74.4802 132.074 74.5096 132.089 74.5586C132.104 74.6028 132.111 74.6493 132.111 74.6984C132.111 74.7916 132.077 74.8749 132.008 74.9485C131.939 75.0172 131.851 75.0515 131.743 75.0515ZM130.625 72.5871L130.228 71.4028L129.676 72.7931L130.625 72.5871ZM133.08 75.0441C132.987 75.0441 132.904 75.0074 132.83 74.9338C132.757 74.8602 132.72 74.7769 132.72 74.6837L132.727 70.3949C132.727 70.2969 132.759 70.2135 132.823 70.1448C132.891 70.0713 132.977 70.0345 133.08 70.0345C133.139 70.0345 133.195 70.0492 133.249 70.0786C133.303 70.1031 133.348 70.1399 133.382 70.189L135.684 73.5214V70.3949C135.684 70.2969 135.719 70.211 135.787 70.1375C135.861 70.0639 135.949 70.0271 136.052 70.0271C136.15 70.0271 136.234 70.0639 136.302 70.1375C136.376 70.211 136.413 70.2969 136.413 70.3949V74.6837C136.413 74.7867 136.378 74.8725 136.31 74.9411C136.241 75.0098 136.155 75.0441 136.052 75.0441C135.998 75.0441 135.942 75.0294 135.883 75C135.829 74.9706 135.785 74.9313 135.751 74.8823L133.455 71.5646L133.448 74.6837C133.448 74.7867 133.411 74.8725 133.338 74.9411C133.269 75.0098 133.183 75.0441 133.08 75.0441ZM138.681 75.0883C138.509 75.0883 138.335 75.0711 138.159 75.0368C137.982 75.0074 137.862 74.9828 137.798 74.9632C137.72 74.9387 137.654 74.8921 137.6 74.8234C137.546 74.7548 137.519 74.6812 137.519 74.6028V70.4317C137.519 70.3287 137.553 70.2429 137.622 70.1743C137.695 70.1056 137.783 70.0713 137.886 70.0713C138.382 70.0713 138.882 70.1448 139.387 70.292C139.892 70.4391 140.329 70.7137 140.697 71.1159C141.069 71.518 141.256 72.0746 141.256 72.7857C141.256 73.3007 141.143 73.7323 140.917 74.0805C140.692 74.4238 140.385 74.6788 139.998 74.8455C139.61 75.0074 139.171 75.0883 138.681 75.0883ZM138.681 74.3526C139.255 74.3526 139.703 74.2202 140.027 73.9554C140.356 73.6906 140.52 73.3007 140.52 72.7857C140.52 72.1482 140.312 71.6749 139.895 71.366C139.483 71.057 138.936 70.8756 138.254 70.8216V74.3085C138.421 74.3379 138.563 74.3526 138.681 74.3526Z" fill="black"/>
<path d="M134.805 91.8276V106.54H142.161C145.315 106.54 148.138 104.554 149.15 101.575C149.517 101.759 149.977 101.943 150.437 101.943C151.169 101.943 151.87 101.652 152.388 101.135C152.905 100.617 153.195 99.9155 153.195 99.1839C153.195 98.4523 152.905 97.7506 152.388 97.2333C151.87 96.7159 151.169 96.4253 150.437 96.4253C149.977 96.4253 149.545 96.5632 149.15 96.7931C148.138 93.8138 145.315 91.8276 142.161 91.8276H134.805ZM136.644 93.6667H142.161C143.624 93.6667 145.028 94.2479 146.062 95.2826C147.097 96.3173 147.678 97.7206 147.678 99.1839C147.678 100.647 147.097 102.05 146.062 103.085C145.028 104.12 143.624 104.701 142.161 104.701H136.644V93.6667ZM150.437 98.2644C150.897 98.2644 151.356 98.7241 151.356 99.1839C151.356 99.6437 150.897 100.103 150.437 100.103C150.193 100.103 149.959 100.007 149.787 99.8341C149.614 99.6617 149.517 99.4278 149.517 99.1839C149.517 98.7241 149.977 98.2644 150.437 98.2644Z" fill="black"/>
<path d="M163.778 123.324C163.871 123.324 163.954 123.36 164.028 123.434C164.101 123.508 164.138 123.591 164.138 123.684L164.131 127.973C164.131 128.071 164.099 128.154 164.035 128.223C163.966 128.297 163.881 128.333 163.778 128.333C163.719 128.333 163.662 128.319 163.608 128.289C163.554 128.265 163.51 128.228 163.476 128.179L161.173 124.846V127.973C161.173 128.071 161.139 128.157 161.07 128.23C160.997 128.304 160.909 128.341 160.806 128.341C160.707 128.341 160.624 128.304 160.555 128.23C160.482 128.157 160.445 128.071 160.445 127.973V123.684C160.445 123.581 160.479 123.495 160.548 123.427C160.617 123.358 160.703 123.324 160.806 123.324C160.86 123.324 160.916 123.338 160.975 123.368C161.029 123.397 161.073 123.436 161.107 123.485L163.402 126.803L163.41 123.684C163.41 123.581 163.446 123.495 163.52 123.427C163.589 123.358 163.675 123.324 163.778 123.324ZM156.257 123.316C156.433 123.316 156.549 123.4 156.603 123.566L157.132 125.097L158.633 124.765L159.111 123.559C159.141 123.49 159.185 123.434 159.243 123.39C159.297 123.346 159.366 123.324 159.449 123.324C159.548 123.324 159.633 123.358 159.707 123.427C159.781 123.495 159.817 123.576 159.817 123.669C159.817 123.733 159.8 123.807 159.766 123.89L159.472 124.626C159.501 124.636 159.523 124.645 159.538 124.655C159.665 124.719 159.729 124.827 159.729 124.979C159.729 125.067 159.704 125.143 159.655 125.207C159.601 125.271 159.533 125.312 159.449 125.332L159.177 125.391L158.089 128.157C158.059 128.23 158.013 128.287 157.949 128.326C157.885 128.365 157.816 128.385 157.743 128.385C157.664 128.385 157.596 128.365 157.537 128.326C157.478 128.287 157.434 128.225 157.404 128.142L155.941 123.897C155.936 123.888 155.926 123.858 155.911 123.809C155.896 123.765 155.889 123.718 155.889 123.669C155.889 123.576 155.923 123.493 155.992 123.419C156.061 123.351 156.149 123.316 156.257 123.316ZM157.375 125.781L157.772 126.965L158.324 125.575L157.375 125.781ZM154.92 123.324C155.013 123.324 155.096 123.36 155.17 123.434C155.243 123.508 155.28 123.591 155.28 123.684L155.273 127.973C155.273 128.071 155.241 128.154 155.177 128.223C155.109 128.297 155.023 128.333 154.92 128.333C154.861 128.333 154.805 128.319 154.751 128.289C154.697 128.265 154.652 128.228 154.618 128.179L152.316 124.846V127.973C152.316 128.071 152.281 128.157 152.213 128.23C152.139 128.304 152.051 128.341 151.948 128.341C151.85 128.341 151.766 128.304 151.698 128.23C151.624 128.157 151.587 128.071 151.587 127.973V123.684C151.587 123.581 151.622 123.495 151.69 123.427C151.759 123.358 151.845 123.324 151.948 123.324C152.002 123.324 152.058 123.338 152.117 123.368C152.171 123.397 152.215 123.436 152.249 123.485L154.545 126.803L154.552 123.684C154.552 123.581 154.589 123.495 154.662 123.427C154.731 123.358 154.817 123.324 154.92 123.324ZM149.319 123.28C149.491 123.28 149.665 123.297 149.841 123.331C150.018 123.36 150.138 123.385 150.202 123.405C150.28 123.429 150.346 123.476 150.4 123.544C150.454 123.613 150.481 123.687 150.481 123.765V127.936C150.481 128.039 150.447 128.125 150.378 128.194C150.305 128.262 150.217 128.297 150.114 128.297C149.618 128.297 149.118 128.223 148.613 128.076C148.108 127.929 147.671 127.654 147.303 127.252C146.931 126.85 146.744 126.293 146.744 125.582C146.744 125.067 146.857 124.636 147.083 124.287C147.308 123.944 147.615 123.689 148.002 123.522C148.39 123.36 148.829 123.28 149.319 123.28ZM149.319 124.015C148.745 124.015 148.297 124.148 147.973 124.412C147.644 124.677 147.48 125.067 147.48 125.582C147.48 126.22 147.688 126.693 148.105 127.002C148.517 127.311 149.064 127.492 149.746 127.546V124.059C149.579 124.03 149.437 124.015 149.319 124.015Z" fill="black"/>
<rect x="170.667" y="67.4598" width="44.1379" height="63.4483" fill="#8B4513" stroke="black" stroke-width="0.91954"/>
<path d="M204.781 72.0576C208.793 72.0576 212.046 75.3103 212.046 79.3223V95.8731C212.046 112.683 198.419 126.31 181.61 126.311C177.598 126.311 174.345 123.058 174.345 119.046V102.494C174.345 85.6845 187.972 72.0577 204.781 72.0576Z" fill="#F6F8FF" stroke="black" stroke-width="0.91954"/>
<path d="M172.958 75.0441C172.865 75.0441 172.782 75.0074 172.708 74.9338C172.634 74.8602 172.598 74.7769 172.598 74.6837L172.605 70.3949C172.605 70.2969 172.637 70.2135 172.701 70.1448C172.769 70.0713 172.855 70.0345 172.958 70.0345C173.017 70.0345 173.073 70.0492 173.127 70.0786C173.181 70.1031 173.225 70.1399 173.26 70.189L175.562 73.5214V70.3949C175.562 70.2969 175.597 70.211 175.665 70.1375C175.739 70.0639 175.827 70.0271 175.93 70.0271C176.028 70.0271 176.111 70.0639 176.18 70.1375C176.254 70.211 176.29 70.2969 176.29 70.3949V74.6837C176.29 74.7867 176.256 74.8725 176.188 74.9411C176.119 75.0098 176.033 75.0441 175.93 75.0441C175.876 75.0441 175.82 75.0294 175.761 75C175.707 74.9706 175.663 74.9313 175.628 74.8823L173.333 71.5646L173.326 74.6837C173.326 74.7867 173.289 74.8725 173.216 74.9411C173.147 75.0098 173.061 75.0441 172.958 75.0441ZM179.044 75.0441C178.681 75.0441 178.355 74.9436 178.066 74.7425C177.777 74.5366 177.549 74.257 177.382 73.9039C177.22 73.5508 177.139 73.156 177.139 72.7195C177.139 72.2242 177.24 71.7706 177.441 71.3586C177.642 70.9467 177.909 70.623 178.242 70.3876C178.581 70.1473 178.944 70.0271 179.331 70.0271C179.694 70.0271 180.02 70.1277 180.31 70.3287C180.604 70.5298 180.832 70.8069 180.994 71.16C181.16 71.5131 181.244 71.9103 181.244 72.3517C181.244 72.852 181.143 73.308 180.942 73.72C180.741 74.127 180.471 74.4507 180.133 74.691C179.8 74.9264 179.437 75.0441 179.044 75.0441ZM179.044 74.3453C179.309 74.3453 179.552 74.2619 179.773 74.0952C179.998 73.9284 180.177 73.6955 180.31 73.3963C180.442 73.0972 180.508 72.7588 180.508 72.3811C180.508 72.0379 180.449 71.7411 180.332 71.491C180.219 71.2409 180.067 71.0521 179.876 70.9246C179.689 70.7922 179.493 70.726 179.287 70.726C179.032 70.726 178.797 70.8118 178.581 70.9834C178.365 71.1551 178.193 71.3929 178.066 71.697C177.938 71.9962 177.875 72.337 177.875 72.7195C177.875 73.0628 177.929 73.3571 178.036 73.6023C178.144 73.8475 178.287 74.0339 178.463 74.1614C178.645 74.284 178.838 74.3453 179.044 74.3453ZM182.448 75.0441C182.345 75.0441 182.259 75.0098 182.191 74.9411C182.122 74.8725 182.088 74.7867 182.088 74.6837V70.4685C182.088 70.3361 182.1 70.2405 182.124 70.1816C182.154 70.1228 182.208 70.0835 182.286 70.0639C182.37 70.0394 182.5 70.0271 182.676 70.0271H182.978C183.802 70.0271 184.437 70.1644 184.883 70.4391C185.329 70.7137 185.552 71.0987 185.552 71.594C185.552 72.2218 185.189 72.6975 184.464 73.0211C184.984 73.4331 185.391 73.9309 185.685 74.5145C185.709 74.5635 185.722 74.6199 185.722 74.6837C185.722 74.7818 185.687 74.8676 185.619 74.9411C185.555 75.0098 185.469 75.0441 185.361 75.0441C185.224 75.0441 185.116 74.9804 185.037 74.8529C184.39 73.823 183.811 73.308 183.301 73.308C183.149 73.308 182.985 73.3228 182.808 73.3522V74.6837C182.808 74.7867 182.772 74.8725 182.698 74.9411C182.629 75.0098 182.546 75.0441 182.448 75.0441ZM182.808 72.6754C183.338 72.6411 183.806 72.5332 184.214 72.3517C184.621 72.1703 184.824 71.9177 184.824 71.594C184.824 71.3145 184.66 71.1011 184.331 70.954C184.008 70.8069 183.549 70.7333 182.956 70.7333H182.808V72.6754Z" fill="black"/>
<path d="M183.54 91.8276C186.299 97.3448 186.299 101.023 183.54 106.54H186.299C190.345 106.54 193.655 104.425 196.966 100.747C197.471 101.483 198.29 101.943 199.172 101.943C199.904 101.943 200.606 101.652 201.123 101.135C201.64 100.617 201.931 99.9155 201.931 99.1839C201.931 98.4523 201.64 97.7506 201.123 97.2333C200.606 96.7159 199.904 96.4253 199.172 96.4253C198.29 96.4253 197.471 96.885 196.966 97.6207C193.655 93.9425 190.345 91.8276 186.299 91.8276H183.54ZM186.299 93.6667C189.793 93.6667 192.736 95.5977 195.77 99.1839C192.736 102.77 189.793 104.701 186.299 104.701C187.678 101.023 187.678 97.3448 186.299 93.6667ZM199.172 98.2644C199.632 98.2644 200.092 98.7241 200.092 99.1839C200.092 99.6437 199.632 100.103 199.172 100.103C198.929 100.103 198.695 100.007 198.522 99.8341C198.35 99.6617 198.253 99.4278 198.253 99.1839C198.253 98.7241 198.713 98.2644 199.172 98.2644Z" fill="black"/>
<path d="M212.513 123.324C212.606 123.324 212.69 123.36 212.763 123.434C212.837 123.508 212.874 123.591 212.874 123.684L212.866 127.973C212.866 128.071 212.834 128.154 212.771 128.223C212.702 128.297 212.616 128.333 212.513 128.333C212.454 128.333 212.398 128.319 212.344 128.289C212.29 128.265 212.246 128.228 212.211 128.179L209.909 124.846V127.973C209.909 128.071 209.875 128.157 209.806 128.23C209.732 128.304 209.644 128.341 209.541 128.341C209.443 128.341 209.36 128.304 209.291 128.23C209.217 128.157 209.181 128.071 209.181 127.973V123.684C209.181 123.581 209.215 123.495 209.284 123.427C209.352 123.358 209.438 123.324 209.541 123.324C209.595 123.324 209.651 123.338 209.71 123.368C209.764 123.397 209.808 123.436 209.843 123.485L212.138 126.803L212.145 123.684C212.145 123.581 212.182 123.495 212.256 123.427C212.324 123.358 212.41 123.324 212.513 123.324ZM206.427 123.324C206.79 123.324 207.116 123.424 207.405 123.625C207.695 123.831 207.923 124.111 208.089 124.464C208.251 124.817 208.332 125.212 208.332 125.648C208.332 126.144 208.232 126.597 208.031 127.009C207.83 127.421 207.562 127.745 207.229 127.98C206.89 128.221 206.527 128.341 206.14 128.341C205.777 128.341 205.451 128.24 205.162 128.039C204.867 127.838 204.639 127.561 204.477 127.208C204.311 126.855 204.227 126.457 204.227 126.016C204.227 125.516 204.328 125.06 204.529 124.648C204.73 124.241 205 123.917 205.338 123.677C205.672 123.441 206.035 123.324 206.427 123.324ZM206.427 124.023C206.162 124.023 205.919 124.106 205.699 124.273C205.473 124.439 205.294 124.672 205.162 124.971C205.029 125.271 204.963 125.609 204.963 125.987C204.963 126.33 205.022 126.627 205.14 126.877C205.252 127.127 205.404 127.316 205.596 127.443C205.782 127.576 205.978 127.642 206.184 127.642C206.439 127.642 206.675 127.556 206.89 127.384C207.106 127.213 207.278 126.975 207.405 126.671C207.533 126.372 207.597 126.031 207.597 125.648C207.597 125.305 207.543 125.011 207.435 124.765C207.327 124.52 207.185 124.334 207.008 124.206C206.827 124.084 206.633 124.023 206.427 124.023ZM203.023 123.324C203.126 123.324 203.212 123.358 203.281 123.427C203.349 123.495 203.384 123.581 203.384 123.684V127.899C203.384 128.032 203.371 128.127 203.347 128.186C203.317 128.245 203.263 128.284 203.185 128.304C203.102 128.328 202.972 128.341 202.795 128.341H202.494C201.67 128.341 201.035 128.203 200.588 127.929C200.142 127.654 199.919 127.269 199.919 126.774C199.919 126.146 200.282 125.67 201.008 125.347C200.488 124.935 200.081 124.437 199.786 123.853C199.762 123.804 199.75 123.748 199.75 123.684C199.75 123.586 199.784 123.5 199.853 123.427C199.916 123.358 200.002 123.324 200.11 123.324C200.247 123.324 200.355 123.387 200.434 123.515C201.081 124.545 201.66 125.06 202.17 125.06C202.322 125.06 202.486 125.045 202.663 125.016V123.684C202.663 123.581 202.699 123.495 202.773 123.427C202.842 123.358 202.925 123.324 203.023 123.324ZM202.663 125.692C202.133 125.727 201.665 125.835 201.258 126.016C200.851 126.198 200.647 126.45 200.647 126.774C200.647 127.053 200.811 127.267 201.14 127.414C201.464 127.561 201.922 127.634 202.516 127.634H202.663V125.692Z" fill="black"/>
<rect x="219.402" y="67.4598" width="44.1379" height="63.4483" fill="#FFD700" stroke="black" stroke-width="0.91954"/>
<path d="M253.517 72.0576C257.529 72.0576 260.782 75.3103 260.782 79.3223V95.8731C260.782 112.683 247.155 126.31 230.345 126.311C226.333 126.311 223.081 123.058 223.081 119.046V102.494C223.081 85.6845 236.707 72.0577 253.517 72.0576Z" fill="#F6F8FF" stroke="black" stroke-width="0.91954"/>
<path d="M221.502 75.0441C221.395 75.0441 221.306 75.0098 221.238 74.9411C221.169 74.8676 221.135 74.7818 221.135 74.6837C221.135 74.6444 221.142 74.6028 221.157 74.5586C221.171 74.5096 221.191 74.4728 221.216 74.4483L222.856 72.4989L221.363 70.623C221.304 70.5445 221.274 70.4685 221.274 70.3949C221.274 70.2969 221.311 70.2135 221.385 70.1448C221.463 70.0713 221.551 70.0345 221.65 70.0345C221.762 70.0345 221.856 70.0786 221.929 70.1669L223.334 71.9251L224.813 70.1669C224.847 70.1228 224.889 70.0909 224.938 70.0713C224.992 70.0467 225.043 70.0345 225.092 70.0345C225.19 70.0345 225.276 70.0713 225.35 70.1448C225.423 70.2184 225.46 70.3018 225.46 70.3949C225.46 70.4783 225.431 70.5568 225.372 70.6303L223.798 72.5062L225.35 74.463C225.394 74.5169 225.416 74.5905 225.416 74.6837C225.416 74.7818 225.382 74.8676 225.313 74.9411C225.244 75.0098 225.161 75.0441 225.063 75.0441C224.945 75.0441 224.85 75 224.776 74.9117L223.312 73.0874L221.775 74.9117C221.701 75 221.61 75.0441 221.502 75.0441ZM228.182 75.0441C227.819 75.0441 227.493 74.9436 227.204 74.7425C226.914 74.5366 226.686 74.257 226.52 73.9039C226.358 73.5508 226.277 73.156 226.277 72.7195C226.277 72.2242 226.377 71.7706 226.579 71.3586C226.78 70.9467 227.047 70.623 227.38 70.3876C227.719 70.1473 228.082 70.0271 228.469 70.0271C228.832 70.0271 229.158 70.1277 229.447 70.3287C229.742 70.5298 229.97 70.8069 230.132 71.16C230.298 71.5131 230.382 71.9103 230.382 72.3517C230.382 72.852 230.281 73.308 230.08 73.72C229.879 74.127 229.609 74.4507 229.271 74.691C228.937 74.9264 228.575 75.0441 228.182 75.0441ZM228.182 74.3453C228.447 74.3453 228.69 74.2619 228.91 74.0952C229.136 73.9284 229.315 73.6955 229.447 73.3963C229.58 73.0972 229.646 72.7588 229.646 72.3811C229.646 72.0379 229.587 71.7411 229.47 71.491C229.357 71.2409 229.205 71.0521 229.013 70.9246C228.827 70.7922 228.631 70.726 228.425 70.726C228.17 70.726 227.935 70.8118 227.719 70.9834C227.503 71.1551 227.331 71.3929 227.204 71.697C227.076 71.9962 227.013 72.337 227.013 72.7195C227.013 73.0628 227.066 73.3571 227.174 73.6023C227.282 73.8475 227.424 74.0339 227.601 74.1614C227.782 74.284 227.976 74.3453 228.182 74.3453ZM231.586 75.0441C231.483 75.0441 231.397 75.0098 231.328 74.9411C231.26 74.8725 231.225 74.7867 231.225 74.6837V70.4685C231.225 70.3361 231.238 70.2405 231.262 70.1816C231.292 70.1228 231.346 70.0835 231.424 70.0639C231.507 70.0394 231.637 70.0271 231.814 70.0271H232.116C232.939 70.0271 233.575 70.1644 234.021 70.4391C234.467 70.7137 234.69 71.0987 234.69 71.594C234.69 72.2218 234.327 72.6975 233.602 73.0211C234.121 73.4331 234.528 73.9309 234.823 74.5145C234.847 74.5635 234.859 74.6199 234.859 74.6837C234.859 74.7818 234.825 74.8676 234.756 74.9411C234.693 75.0098 234.607 75.0441 234.499 75.0441C234.362 75.0441 234.254 74.9804 234.175 74.8529C233.528 73.823 232.949 73.308 232.439 73.308C232.287 73.308 232.123 73.3228 231.946 73.3522V74.6837C231.946 74.7867 231.91 74.8725 231.836 74.9411C231.767 75.0098 231.684 75.0441 231.586 75.0441ZM231.946 72.6754C232.476 72.6411 232.944 72.5332 233.351 72.3517C233.758 72.1703 233.962 71.9177 233.962 71.594C233.962 71.3145 233.798 71.1011 233.469 70.954C233.145 70.8069 232.687 70.7333 232.094 70.7333H231.946V72.6754Z" fill="black"/>
<path d="M232.276 91.8276C235.034 97.3448 235.034 101.023 232.276 106.54H234.115C236.874 101.023 236.874 97.3448 234.207 91.8276H232.276ZM235.954 91.8276C238.713 97.3448 238.713 101.023 235.954 106.54H238.713C243.31 106.54 246.989 103.782 250.667 99.1839C246.989 94.5862 243.31 91.8276 238.713 91.8276H235.954ZM238.713 93.6667C242.207 93.6667 245.149 95.5977 248.184 99.1839C245.057 102.77 242.207 104.701 238.713 104.701C240.092 101.023 240.092 97.3448 238.713 93.6667Z" fill="black"/>
<path d="M261.44 123.324C261.548 123.324 261.636 123.358 261.705 123.427C261.773 123.5 261.808 123.586 261.808 123.684C261.808 123.723 261.8 123.765 261.786 123.809C261.771 123.858 261.751 123.895 261.727 123.92L260.086 125.869L261.58 127.745C261.639 127.823 261.668 127.899 261.668 127.973C261.668 128.071 261.631 128.154 261.558 128.223C261.479 128.297 261.391 128.333 261.293 128.333C261.18 128.333 261.087 128.289 261.013 128.201L259.608 126.443L258.13 128.201C258.095 128.245 258.054 128.277 258.005 128.297C257.951 128.321 257.899 128.333 257.85 128.333C257.752 128.333 257.666 128.297 257.593 128.223C257.519 128.149 257.482 128.066 257.482 127.973C257.482 127.889 257.512 127.811 257.571 127.737L259.145 125.862L257.593 123.905C257.548 123.851 257.526 123.777 257.526 123.684C257.526 123.586 257.561 123.5 257.629 123.427C257.698 123.358 257.781 123.324 257.88 123.324C257.997 123.324 258.093 123.368 258.166 123.456L259.63 125.28L261.168 123.456C261.241 123.368 261.332 123.324 261.44 123.324ZM254.76 123.324C255.123 123.324 255.449 123.424 255.739 123.625C256.028 123.831 256.256 124.111 256.423 124.464C256.585 124.817 256.665 125.212 256.665 125.648C256.665 126.144 256.565 126.597 256.364 127.009C256.163 127.421 255.896 127.745 255.562 127.98C255.224 128.221 254.861 128.341 254.473 128.341C254.11 128.341 253.784 128.24 253.495 128.039C253.201 127.838 252.973 127.561 252.811 127.208C252.644 126.855 252.561 126.457 252.561 126.016C252.561 125.516 252.661 125.06 252.862 124.648C253.063 124.241 253.333 123.917 253.671 123.677C254.005 123.441 254.368 123.324 254.76 123.324ZM254.76 124.023C254.495 124.023 254.253 124.106 254.032 124.273C253.806 124.439 253.627 124.672 253.495 124.971C253.362 125.271 253.296 125.609 253.296 125.987C253.296 126.33 253.355 126.627 253.473 126.877C253.586 127.127 253.738 127.316 253.929 127.443C254.115 127.576 254.311 127.642 254.517 127.642C254.772 127.642 255.008 127.556 255.224 127.384C255.439 127.213 255.611 126.975 255.739 126.671C255.866 126.372 255.93 126.031 255.93 125.648C255.93 125.305 255.876 125.011 255.768 124.765C255.66 124.52 255.518 124.334 255.341 124.206C255.16 124.084 254.966 124.023 254.76 124.023ZM251.356 123.324C251.459 123.324 251.545 123.358 251.614 123.427C251.683 123.495 251.717 123.581 251.717 123.684V127.899C251.717 128.032 251.705 128.127 251.68 128.186C251.651 128.245 251.597 128.284 251.518 128.304C251.435 128.328 251.305 128.341 251.128 128.341H250.827C250.003 128.341 249.368 128.203 248.922 127.929C248.475 127.654 248.252 127.269 248.252 126.774C248.252 126.146 248.615 125.67 249.341 125.347C248.821 124.935 248.414 124.437 248.12 123.853C248.095 123.804 248.083 123.748 248.083 123.684C248.083 123.586 248.117 123.5 248.186 123.427C248.25 123.358 248.335 123.324 248.443 123.324C248.581 123.324 248.689 123.387 248.767 123.515C249.414 124.545 249.993 125.06 250.503 125.06C250.655 125.06 250.819 125.045 250.996 125.016V123.684C250.996 123.581 251.033 123.495 251.106 123.427C251.175 123.358 251.258 123.324 251.356 123.324ZM250.996 125.692C250.466 125.727 249.998 125.835 249.591 126.016C249.184 126.198 248.98 126.45 248.98 126.774C248.98 127.053 249.145 127.267 249.473 127.414C249.797 127.561 250.255 127.634 250.849 127.634H250.996V125.692Z" fill="black"/>
</g>
<defs>
<filter id="filter0_d_1701_1297" x="0" y="43" width="288" height="112.368" filterUnits="userSpaceOnUse" color-interpolation-filters="sRGB">
<feFlood flood-opacity="0" result="BackgroundImageFix"/>
<feColorMatrix in="SourceAlpha" type="matrix" values="0 0 0 0 0 0 0 0 0 0 0 0 0 0 0 0 0 0 127 0" result="hardAlpha"/>
<feOffset/>
<feGaussianBlur stdDeviation="12"/>
<feComposite in2="hardAlpha" operator="out"/>
<feColorMatrix type="matrix" values="0 0 0 0 1 0 0 0 0 1 0 0 0 0 1 0 0 0 0.5 0"/>
<feBlend mode="normal" in2="BackgroundImageFix" result="effect1_dropShadow_1701_1297"/>
<feBlend mode="normal" in="SourceGraphic" in2="effect1_dropShadow_1701_1297" result="shape"/>
</filter>
</defs>
</svg>
